G04 #@! TF.GenerationSoftware,KiCad,Pcbnew,5.1.12-1.fc33*
G04 #@! TF.CreationDate,2021-12-28T16:25:16-05:00*
G04 #@! TF.ProjectId,crisco,63726973-636f-42e6-9b69-6361645f7063,rev?*
G04 #@! TF.SameCoordinates,Original*
G04 #@! TF.FileFunction,Copper,L1,Top*
G04 #@! TF.FilePolarity,Positive*
%FSLAX46Y46*%
G04 Gerber Fmt 4.6, Leading zero omitted, Abs format (unit mm)*
G04 Created by KiCad (PCBNEW 5.1.12-1.fc33) date 2021-12-28 16:25:16*
%MOMM*%
%LPD*%
G01*
G04 APERTURE LIST*
G04 #@! TA.AperFunction,ComponentPad*
%ADD10R,1.397000X1.397000*%
G04 #@! TD*
G04 #@! TA.AperFunction,ComponentPad*
%ADD11C,1.397000*%
G04 #@! TD*
G04 #@! TA.AperFunction,ComponentPad*
%ADD12O,1.700000X1.700000*%
G04 #@! TD*
G04 #@! TA.AperFunction,ComponentPad*
%ADD13R,1.700000X1.700000*%
G04 #@! TD*
G04 #@! TA.AperFunction,ComponentPad*
%ADD14C,2.250000*%
G04 #@! TD*
G04 #@! TA.AperFunction,ComponentPad*
%ADD15R,1.752600X1.752600*%
G04 #@! TD*
G04 #@! TA.AperFunction,ComponentPad*
%ADD16C,1.752600*%
G04 #@! TD*
G04 #@! TA.AperFunction,ComponentPad*
%ADD17R,1.524000X1.524000*%
G04 #@! TD*
G04 #@! TA.AperFunction,ComponentPad*
%ADD18C,1.524000*%
G04 #@! TD*
G04 #@! TA.AperFunction,Conductor*
%ADD19C,0.250000*%
G04 #@! TD*
G04 APERTURE END LIST*
D10*
X106045000Y-86360000D03*
D11*
X113665000Y-86360000D03*
D10*
X48895000Y-86360000D03*
D11*
X56515000Y-86360000D03*
D10*
X67945000Y-86360000D03*
D11*
X75565000Y-86360000D03*
D10*
X86995000Y-86360000D03*
D11*
X94615000Y-86360000D03*
D10*
X48895000Y-88900000D03*
D11*
X56515000Y-88900000D03*
D10*
X67945000Y-88900000D03*
D11*
X75565000Y-88900000D03*
D10*
X86995000Y-88900000D03*
D11*
X94615000Y-88900000D03*
D10*
X106045000Y-88900000D03*
D11*
X113665000Y-88900000D03*
D10*
X220345000Y-86360000D03*
D11*
X227965000Y-86360000D03*
D10*
X220345000Y-88900000D03*
D11*
X227965000Y-88900000D03*
D10*
X201295000Y-88900000D03*
D11*
X208915000Y-88900000D03*
D10*
X182245000Y-88900000D03*
D11*
X189865000Y-88900000D03*
D10*
X163195000Y-88900000D03*
D11*
X170815000Y-88900000D03*
D10*
X144145000Y-88900000D03*
D11*
X151765000Y-88900000D03*
D10*
X125095000Y-88900000D03*
D11*
X132715000Y-88900000D03*
D10*
X201295000Y-86360000D03*
D11*
X208915000Y-86360000D03*
D10*
X182245000Y-86360000D03*
D11*
X189865000Y-86360000D03*
D10*
X163195000Y-86360000D03*
D11*
X170815000Y-86360000D03*
D10*
X144145000Y-86360000D03*
D11*
X151765000Y-86360000D03*
D10*
X125095000Y-86360000D03*
D11*
X132715000Y-86360000D03*
D12*
X27305000Y-104140000D03*
X29845000Y-104140000D03*
X32385000Y-104140000D03*
D13*
X34925000Y-104140000D03*
D14*
X67945000Y-94615000D03*
X74295000Y-92075000D03*
D15*
X23177500Y-72231250D03*
D16*
X23177500Y-74771250D03*
X23177500Y-77311250D03*
X23177500Y-79851250D03*
X23177500Y-82391250D03*
X23177500Y-84931250D03*
X23177500Y-87471250D03*
X23177500Y-90011250D03*
X23177500Y-92551250D03*
X23177500Y-95091250D03*
X23177500Y-97631250D03*
X38417500Y-100171250D03*
X38417500Y-97631250D03*
X38417500Y-95091250D03*
X38417500Y-92551250D03*
X38417500Y-90011250D03*
X38417500Y-87471250D03*
X38417500Y-84931250D03*
X38417500Y-82391250D03*
X38417500Y-79851250D03*
X38417500Y-77311250D03*
X38417500Y-74771250D03*
X23177500Y-100171250D03*
X38417500Y-72231250D03*
D14*
X226695000Y-92075000D03*
X220345000Y-94615000D03*
X207645000Y-92075000D03*
X201295000Y-94615000D03*
X188595000Y-92075000D03*
X182245000Y-94615000D03*
X169545000Y-92075000D03*
X163195000Y-94615000D03*
X150495000Y-92075000D03*
X144145000Y-94615000D03*
X131445000Y-92075000D03*
X125095000Y-94615000D03*
X112395000Y-92075000D03*
X106045000Y-94615000D03*
X226695000Y-73025000D03*
X220345000Y-75565000D03*
X207645000Y-73025000D03*
X201295000Y-75565000D03*
X188595000Y-73025000D03*
X182245000Y-75565000D03*
X169545000Y-73025000D03*
X163195000Y-75565000D03*
X150495000Y-73025000D03*
X144145000Y-75565000D03*
X131445000Y-73025000D03*
X125095000Y-75565000D03*
X112395000Y-73025000D03*
X106045000Y-75565000D03*
X55245000Y-92075000D03*
X48895000Y-94615000D03*
X48895000Y-75565000D03*
X55245000Y-73025000D03*
X74295000Y-73025000D03*
X67945000Y-75565000D03*
X86995000Y-75565000D03*
X93345000Y-73025000D03*
X93345000Y-92075000D03*
X86995000Y-94615000D03*
D17*
X42703750Y-90328750D03*
D18*
X42703750Y-87788750D03*
X42703750Y-85248750D03*
D19*
X48387000Y-86868000D02*
X48387000Y-86614000D01*
X66921499Y-87383501D02*
X67945000Y-86360000D01*
X49918501Y-87383501D02*
X66921499Y-87383501D01*
X48895000Y-86360000D02*
X49918501Y-87383501D01*
X85971499Y-87383501D02*
X86995000Y-86360000D01*
X68968501Y-87383501D02*
X85971499Y-87383501D01*
X67945000Y-86360000D02*
X68968501Y-87383501D01*
X105021499Y-87383501D02*
X106045000Y-86360000D01*
X88018501Y-87383501D02*
X105021499Y-87383501D01*
X86995000Y-86360000D02*
X88018501Y-87383501D01*
X124071499Y-87383501D02*
X125095000Y-86360000D01*
X107068501Y-87383501D02*
X124071499Y-87383501D01*
X106045000Y-86360000D02*
X107068501Y-87383501D01*
X143121499Y-87383501D02*
X144145000Y-86360000D01*
X126118501Y-87383501D02*
X143121499Y-87383501D01*
X125095000Y-86360000D02*
X126118501Y-87383501D01*
X162171499Y-87383501D02*
X163195000Y-86360000D01*
X145168501Y-87383501D02*
X162171499Y-87383501D01*
X144145000Y-86360000D02*
X145168501Y-87383501D01*
X181221499Y-87383501D02*
X182245000Y-86360000D01*
X164218501Y-87383501D02*
X181221499Y-87383501D01*
X163195000Y-86360000D02*
X164218501Y-87383501D01*
X200271499Y-87383501D02*
X201295000Y-86360000D01*
X183268501Y-87383501D02*
X200271499Y-87383501D01*
X182245000Y-86360000D02*
X183268501Y-87383501D01*
X219321499Y-87383501D02*
X220345000Y-86360000D01*
X202318501Y-87383501D02*
X219321499Y-87383501D01*
X201295000Y-86360000D02*
X202318501Y-87383501D01*
X55000218Y-88900000D02*
X56023719Y-89923501D01*
X66921499Y-89923501D02*
X67945000Y-88900000D01*
X56023719Y-89923501D02*
X66921499Y-89923501D01*
X48895000Y-88900000D02*
X55000218Y-88900000D01*
X85971499Y-89923501D02*
X86995000Y-88900000D01*
X68968501Y-89923501D02*
X85971499Y-89923501D01*
X67945000Y-88900000D02*
X68968501Y-89923501D01*
X105021499Y-89923501D02*
X106045000Y-88900000D01*
X88018501Y-89923501D02*
X105021499Y-89923501D01*
X86995000Y-88900000D02*
X88018501Y-89923501D01*
X124071499Y-89923501D02*
X125095000Y-88900000D01*
X107068501Y-89923501D02*
X124071499Y-89923501D01*
X106045000Y-88900000D02*
X107068501Y-89923501D01*
X143121499Y-89923501D02*
X144145000Y-88900000D01*
X126118501Y-89923501D02*
X143121499Y-89923501D01*
X125095000Y-88900000D02*
X126118501Y-89923501D01*
X162171499Y-89923501D02*
X163195000Y-88900000D01*
X145168501Y-89923501D02*
X162171499Y-89923501D01*
X144145000Y-88900000D02*
X145168501Y-89923501D01*
X181221499Y-89923501D02*
X182245000Y-88900000D01*
X164218501Y-89923501D02*
X181221499Y-89923501D01*
X163195000Y-88900000D02*
X164218501Y-89923501D01*
X200271499Y-89923501D02*
X201295000Y-88900000D01*
X183268501Y-89923501D02*
X200271499Y-89923501D01*
X182245000Y-88900000D02*
X183268501Y-89923501D01*
X219321499Y-89923501D02*
X220345000Y-88900000D01*
X202318501Y-89923501D02*
X219321499Y-89923501D01*
X201295000Y-88900000D02*
X202318501Y-89923501D01*
X38417500Y-87471250D02*
X38417500Y-87312500D01*
X44880998Y-94615000D02*
X48895000Y-94615000D01*
X39618801Y-89352803D02*
X44880998Y-94615000D01*
X39618801Y-88672551D02*
X39618801Y-89352803D01*
X38417500Y-87471250D02*
X39618801Y-88672551D01*
X53794999Y-91861003D02*
X53794999Y-91378999D01*
X48198999Y-96065001D02*
X49591001Y-96065001D01*
X53794999Y-91378999D02*
X54548999Y-90624999D01*
X49591001Y-96065001D02*
X53794999Y-91861003D01*
X47444999Y-95311001D02*
X48198999Y-96065001D01*
X44940589Y-95311001D02*
X47444999Y-95311001D01*
X63954999Y-90624999D02*
X67945000Y-94615000D01*
X40842139Y-91212551D02*
X44940589Y-95311001D01*
X37840875Y-91212551D02*
X40842139Y-91212551D01*
X37216199Y-90587875D02*
X37840875Y-91212551D01*
X37216199Y-86132551D02*
X37216199Y-90587875D01*
X54548999Y-90624999D02*
X63954999Y-90624999D01*
X38417500Y-84931250D02*
X37216199Y-86132551D01*
X81151002Y-75565000D02*
X86995000Y-75565000D01*
X74324752Y-82391250D02*
X81151002Y-75565000D01*
X38417500Y-82391250D02*
X74324752Y-82391250D01*
X106045000Y-97661002D02*
X106045000Y-94615000D01*
X104232101Y-99473901D02*
X106045000Y-97661002D01*
X42800151Y-99473901D02*
X104232101Y-99473901D01*
X38417500Y-95091250D02*
X42800151Y-99473901D01*
X123504010Y-94615000D02*
X125095000Y-94615000D01*
X118195099Y-99923911D02*
X123504010Y-94615000D01*
X40710161Y-99923911D02*
X118195099Y-99923911D01*
X38417500Y-97631250D02*
X40710161Y-99923911D01*
X142554010Y-94615000D02*
X144145000Y-94615000D01*
X136121461Y-101047549D02*
X142554010Y-94615000D01*
X39293799Y-101047549D02*
X136121461Y-101047549D01*
X38417500Y-100171250D02*
X39293799Y-101047549D01*
X161604010Y-94615000D02*
X163195000Y-94615000D01*
X154721451Y-101497559D02*
X161604010Y-94615000D01*
X29583809Y-101497559D02*
X154721451Y-101497559D01*
X23177500Y-95091250D02*
X29583809Y-101497559D01*
X180654010Y-94615000D02*
X182245000Y-94615000D01*
X173321442Y-101947568D02*
X180654010Y-94615000D01*
X23175892Y-101947568D02*
X173321442Y-101947568D01*
X21976199Y-100747875D02*
X23175892Y-101947568D01*
X21976199Y-93752551D02*
X21976199Y-100747875D01*
X23177500Y-92551250D02*
X21976199Y-93752551D01*
X201295000Y-78611002D02*
X201295000Y-75565000D01*
X26918801Y-83729949D02*
X196176053Y-83729949D01*
X196176053Y-83729949D02*
X201295000Y-78611002D01*
X23177500Y-87471250D02*
X26918801Y-83729949D01*
X205996974Y-94615000D02*
X220345000Y-94615000D01*
X204546973Y-93164999D02*
X205996974Y-94615000D01*
X183695001Y-93918999D02*
X199844999Y-93918999D01*
X72940489Y-90373511D02*
X180149513Y-90373511D01*
X180149513Y-90373511D02*
X183695001Y-93918999D01*
X69395001Y-93918999D02*
X72940489Y-90373511D01*
X69395001Y-95311001D02*
X69395001Y-93918999D01*
X68641001Y-96065001D02*
X69395001Y-95311001D01*
X67248999Y-96065001D02*
X68641001Y-96065001D01*
X65102997Y-93918999D02*
X67248999Y-96065001D01*
X52637003Y-93918999D02*
X65102997Y-93918999D01*
X48201001Y-98355001D02*
X52637003Y-93918999D01*
X199844999Y-93918999D02*
X200598999Y-93164999D01*
X47048999Y-98355001D02*
X48201001Y-98355001D01*
X42446549Y-93752551D02*
X47048999Y-98355001D01*
X200598999Y-93164999D02*
X204546973Y-93164999D01*
X26918801Y-93752551D02*
X42446549Y-93752551D01*
X23177500Y-90011250D02*
X26918801Y-93752551D01*
M02*
