G04 #@! TF.GenerationSoftware,KiCad,Pcbnew,5.1.12-1.fc33*
G04 #@! TF.CreationDate,2022-01-04T20:48:51-05:00*
G04 #@! TF.ProjectId,crisco,63726973-636f-42e6-9b69-6361645f7063,rev?*
G04 #@! TF.SameCoordinates,Original*
G04 #@! TF.FileFunction,Copper,L2,Bot*
G04 #@! TF.FilePolarity,Positive*
%FSLAX46Y46*%
G04 Gerber Fmt 4.6, Leading zero omitted, Abs format (unit mm)*
G04 Created by KiCad (PCBNEW 5.1.12-1.fc33) date 2022-01-04 20:48:51*
%MOMM*%
%LPD*%
G01*
G04 APERTURE LIST*
G04 #@! TA.AperFunction,ComponentPad*
%ADD10C,2.032000*%
G04 #@! TD*
G04 #@! TA.AperFunction,ComponentPad*
%ADD11C,2.250000*%
G04 #@! TD*
G04 #@! TA.AperFunction,ComponentPad*
%ADD12O,1.700000X1.700000*%
G04 #@! TD*
G04 #@! TA.AperFunction,ComponentPad*
%ADD13R,1.700000X1.700000*%
G04 #@! TD*
G04 #@! TA.AperFunction,ComponentPad*
%ADD14R,1.397000X1.397000*%
G04 #@! TD*
G04 #@! TA.AperFunction,ComponentPad*
%ADD15C,1.397000*%
G04 #@! TD*
G04 #@! TA.AperFunction,ComponentPad*
%ADD16R,1.752600X1.752600*%
G04 #@! TD*
G04 #@! TA.AperFunction,ComponentPad*
%ADD17C,1.752600*%
G04 #@! TD*
G04 #@! TA.AperFunction,ViaPad*
%ADD18C,0.800000*%
G04 #@! TD*
G04 #@! TA.AperFunction,Conductor*
%ADD19C,0.250000*%
G04 #@! TD*
G04 #@! TA.AperFunction,Conductor*
%ADD20C,0.500000*%
G04 #@! TD*
G04 APERTURE END LIST*
D10*
X181055000Y-100955000D03*
X186055000Y-103055000D03*
D11*
X188595000Y-92075000D03*
X182245000Y-94615000D03*
D10*
X142955000Y-81905000D03*
X147955000Y-84005000D03*
D11*
X150495000Y-73025000D03*
X144145000Y-75565000D03*
D10*
X47705000Y-100955000D03*
X52705000Y-103055000D03*
D11*
X55245000Y-92075000D03*
X48895000Y-94615000D03*
D10*
X219155000Y-100955000D03*
X224155000Y-103055000D03*
D11*
X226695000Y-92075000D03*
X220345000Y-94615000D03*
D10*
X200105000Y-100955000D03*
X205105000Y-103055000D03*
D11*
X207645000Y-92075000D03*
X201295000Y-94615000D03*
D10*
X162005000Y-100955000D03*
X167005000Y-103055000D03*
D11*
X169545000Y-92075000D03*
X163195000Y-94615000D03*
D10*
X142955000Y-100955000D03*
X147955000Y-103055000D03*
D11*
X150495000Y-92075000D03*
X144145000Y-94615000D03*
D10*
X123905000Y-100955000D03*
X128905000Y-103055000D03*
D11*
X131445000Y-92075000D03*
X125095000Y-94615000D03*
D10*
X104855000Y-100955000D03*
X109855000Y-103055000D03*
D11*
X112395000Y-92075000D03*
X106045000Y-94615000D03*
D10*
X85805000Y-100955000D03*
X90805000Y-103055000D03*
D11*
X93345000Y-92075000D03*
X86995000Y-94615000D03*
D10*
X66755000Y-100955000D03*
X71755000Y-103055000D03*
D11*
X74295000Y-92075000D03*
X67945000Y-94615000D03*
D10*
X219155000Y-81905000D03*
X224155000Y-84005000D03*
D11*
X226695000Y-73025000D03*
X220345000Y-75565000D03*
D10*
X200105000Y-81905000D03*
X205105000Y-84005000D03*
D11*
X207645000Y-73025000D03*
X201295000Y-75565000D03*
D10*
X181055000Y-81905000D03*
X186055000Y-84005000D03*
D11*
X188595000Y-73025000D03*
X182245000Y-75565000D03*
D10*
X162005000Y-81905000D03*
X167005000Y-84005000D03*
D11*
X169545000Y-73025000D03*
X163195000Y-75565000D03*
D10*
X123905000Y-81905000D03*
X128905000Y-84005000D03*
D11*
X131445000Y-73025000D03*
X125095000Y-75565000D03*
D10*
X104855000Y-81905000D03*
X109855000Y-84005000D03*
D11*
X112395000Y-73025000D03*
X106045000Y-75565000D03*
D10*
X85805000Y-81905000D03*
X90805000Y-84005000D03*
D11*
X93345000Y-73025000D03*
X86995000Y-75565000D03*
D10*
X66755000Y-81905000D03*
X71755000Y-84005000D03*
D11*
X74295000Y-73025000D03*
X67945000Y-75565000D03*
D10*
X47705000Y-81905000D03*
X52705000Y-84005000D03*
D11*
X55245000Y-73025000D03*
X48895000Y-75565000D03*
D12*
X42799000Y-85090000D03*
X42799000Y-87630000D03*
D13*
X42799000Y-90170000D03*
D12*
X27305000Y-104140000D03*
X29845000Y-104140000D03*
X32385000Y-104140000D03*
D13*
X34925000Y-104140000D03*
D14*
X106045000Y-86360000D03*
D15*
X113665000Y-86360000D03*
D14*
X48895000Y-86360000D03*
D15*
X56515000Y-86360000D03*
D14*
X67945000Y-86360000D03*
D15*
X75565000Y-86360000D03*
D14*
X86995000Y-86360000D03*
D15*
X94615000Y-86360000D03*
D14*
X48895000Y-88900000D03*
D15*
X56515000Y-88900000D03*
D14*
X67945000Y-88900000D03*
D15*
X75565000Y-88900000D03*
D14*
X86995000Y-88900000D03*
D15*
X94615000Y-88900000D03*
D14*
X106045000Y-88900000D03*
D15*
X113665000Y-88900000D03*
D14*
X220345000Y-86360000D03*
D15*
X227965000Y-86360000D03*
D14*
X220345000Y-88900000D03*
D15*
X227965000Y-88900000D03*
D14*
X201295000Y-88900000D03*
D15*
X208915000Y-88900000D03*
D14*
X182245000Y-88900000D03*
D15*
X189865000Y-88900000D03*
D14*
X163195000Y-88900000D03*
D15*
X170815000Y-88900000D03*
D14*
X144145000Y-88900000D03*
D15*
X151765000Y-88900000D03*
D14*
X125095000Y-88900000D03*
D15*
X132715000Y-88900000D03*
D14*
X201295000Y-86360000D03*
D15*
X208915000Y-86360000D03*
D14*
X182245000Y-86360000D03*
D15*
X189865000Y-86360000D03*
D14*
X163195000Y-86360000D03*
D15*
X170815000Y-86360000D03*
D14*
X144145000Y-86360000D03*
D15*
X151765000Y-86360000D03*
D14*
X125095000Y-86360000D03*
D15*
X132715000Y-86360000D03*
D16*
X23177500Y-72231250D03*
D17*
X23177500Y-74771250D03*
X23177500Y-77311250D03*
X23177500Y-79851250D03*
X23177500Y-82391250D03*
X23177500Y-84931250D03*
X23177500Y-87471250D03*
X23177500Y-90011250D03*
X23177500Y-92551250D03*
X23177500Y-95091250D03*
X23177500Y-97631250D03*
X38417500Y-100171250D03*
X38417500Y-97631250D03*
X38417500Y-95091250D03*
X38417500Y-92551250D03*
X38417500Y-90011250D03*
X38417500Y-87471250D03*
X38417500Y-84931250D03*
X38417500Y-82391250D03*
X38417500Y-79851250D03*
X38417500Y-77311250D03*
X38417500Y-74771250D03*
X23177500Y-100171250D03*
X38417500Y-72231250D03*
D18*
X36353824Y-90773176D03*
X46355000Y-88900000D03*
D19*
X55245000Y-85090000D02*
X56515000Y-86360000D01*
X55187000Y-84005000D02*
X55245000Y-83947000D01*
X52705000Y-84005000D02*
X55187000Y-84005000D01*
X55245000Y-83947000D02*
X55245000Y-85090000D01*
X55245000Y-73025000D02*
X55245000Y-83947000D01*
X74295000Y-85090000D02*
X75565000Y-86360000D01*
X74226000Y-84005000D02*
X74295000Y-84074000D01*
X74295000Y-84074000D02*
X74295000Y-85090000D01*
X71755000Y-84005000D02*
X74226000Y-84005000D01*
X74295000Y-73025000D02*
X74295000Y-84074000D01*
X93345000Y-85090000D02*
X94615000Y-86360000D01*
X93276000Y-84005000D02*
X93345000Y-84074000D01*
X90805000Y-84005000D02*
X93276000Y-84005000D01*
X93345000Y-84074000D02*
X93345000Y-85090000D01*
X93345000Y-73025000D02*
X93345000Y-84074000D01*
X36353824Y-90773176D02*
X36353824Y-90773176D01*
X36353824Y-90207491D02*
X36353824Y-90773176D01*
X37751366Y-88809949D02*
X36353824Y-90207491D01*
X38994125Y-88809949D02*
X37751366Y-88809949D01*
X39084176Y-88900000D02*
X38994125Y-88809949D01*
X46355000Y-88900000D02*
X39084176Y-88900000D01*
X112395000Y-85090000D02*
X113665000Y-86360000D01*
X109855000Y-84005000D02*
X112326000Y-84005000D01*
X112326000Y-84005000D02*
X112395000Y-84074000D01*
X112395000Y-84074000D02*
X112395000Y-85090000D01*
X112395000Y-73025000D02*
X112395000Y-84074000D01*
X131445000Y-85090000D02*
X132715000Y-86360000D01*
X131387000Y-84005000D02*
X131445000Y-83947000D01*
X128905000Y-84005000D02*
X131387000Y-84005000D01*
X131445000Y-83947000D02*
X131445000Y-85090000D01*
X131445000Y-73025000D02*
X131445000Y-83947000D01*
X150495000Y-85090000D02*
X151765000Y-86360000D01*
X150426000Y-84005000D02*
X150495000Y-84074000D01*
X147955000Y-84005000D02*
X150426000Y-84005000D01*
X150495000Y-84074000D02*
X150495000Y-85090000D01*
X150495000Y-73025000D02*
X150495000Y-84074000D01*
X25717500Y-74771250D02*
X23177500Y-77311250D01*
X38417500Y-74771250D02*
X25717500Y-74771250D01*
X23177500Y-77311250D02*
X23177500Y-79851250D01*
X34925000Y-94265824D02*
X34925000Y-104140000D01*
X37840875Y-91349949D02*
X34925000Y-94265824D01*
X41682551Y-91349949D02*
X37840875Y-91349949D01*
X42703750Y-90328750D02*
X41682551Y-91349949D01*
X26554598Y-105765010D02*
X21463000Y-100673412D01*
X21463000Y-81565750D02*
X23177500Y-79851250D01*
X21463000Y-100673412D02*
X21463000Y-81565750D01*
X33299990Y-105765010D02*
X26554598Y-105765010D01*
X34925000Y-104140000D02*
X33299990Y-105765010D01*
X24378801Y-73432551D02*
X23177500Y-72231250D01*
X44323000Y-78898824D02*
X38856727Y-73432551D01*
X44323000Y-86169500D02*
X44323000Y-78898824D01*
X38856727Y-73432551D02*
X24378801Y-73432551D01*
X42703750Y-87788750D02*
X44323000Y-86169500D01*
X32385000Y-84074000D02*
X32385000Y-104140000D01*
X36607750Y-79851250D02*
X32385000Y-84074000D01*
X38417500Y-79851250D02*
X36607750Y-79851250D01*
X42799000Y-85153500D02*
X42703750Y-85248750D01*
X42799000Y-84232750D02*
X42799000Y-85153500D01*
X38417500Y-79851250D02*
X42799000Y-84232750D01*
X48895000Y-99765000D02*
X47705000Y-100955000D01*
X48895000Y-94615000D02*
X48895000Y-99765000D01*
X48895000Y-80715000D02*
X47705000Y-81905000D01*
X48895000Y-75565000D02*
X48895000Y-80715000D01*
X48895000Y-93150954D02*
X48895000Y-94615000D01*
X47705000Y-91960954D02*
X48895000Y-93150954D01*
X47705000Y-81905000D02*
X47705000Y-91960954D01*
D20*
X67468750Y-75723750D02*
X67523751Y-75778751D01*
D19*
X67945000Y-80715000D02*
X66755000Y-81905000D01*
X67945000Y-75565000D02*
X67945000Y-80715000D01*
X67875001Y-94684999D02*
X67945000Y-94615000D01*
X67875001Y-99834999D02*
X67875001Y-94684999D01*
X66755000Y-100955000D02*
X67875001Y-99834999D01*
X67945000Y-93150954D02*
X67945000Y-94615000D01*
X66755000Y-91960954D02*
X67945000Y-93150954D01*
X66755000Y-81905000D02*
X66755000Y-91960954D01*
D20*
X86518750Y-75723750D02*
X86573751Y-75778751D01*
D19*
X86995000Y-99765000D02*
X85805000Y-100955000D01*
X86995000Y-94615000D02*
X86995000Y-99765000D01*
X86995000Y-80715000D02*
X85805000Y-81905000D01*
X86995000Y-75565000D02*
X86995000Y-80715000D01*
X86995000Y-93150954D02*
X86995000Y-94615000D01*
X85805000Y-91960954D02*
X86995000Y-93150954D01*
X85805000Y-81905000D02*
X85805000Y-91960954D01*
X169545000Y-85090000D02*
X170815000Y-86360000D01*
X169487000Y-84005000D02*
X169545000Y-83947000D01*
X167005000Y-84005000D02*
X169487000Y-84005000D01*
X169545000Y-83947000D02*
X169545000Y-85090000D01*
X169545000Y-73025000D02*
X169545000Y-83947000D01*
X188595000Y-85090000D02*
X189865000Y-86360000D01*
X188526000Y-84005000D02*
X188595000Y-84074000D01*
X186055000Y-84005000D02*
X188526000Y-84005000D01*
X188595000Y-84074000D02*
X188595000Y-85090000D01*
X188595000Y-73025000D02*
X188595000Y-84074000D01*
X207645000Y-85090000D02*
X208915000Y-86360000D01*
X207576000Y-84005000D02*
X207645000Y-84074000D01*
X205105000Y-84005000D02*
X207576000Y-84005000D01*
X207645000Y-84074000D02*
X207645000Y-85090000D01*
X207645000Y-73025000D02*
X207645000Y-84074000D01*
X226695000Y-85090000D02*
X227965000Y-86360000D01*
X224155000Y-84005000D02*
X226637000Y-84005000D01*
X226695000Y-83947000D02*
X226695000Y-85090000D01*
X226637000Y-84005000D02*
X226695000Y-83947000D01*
X226695000Y-73025000D02*
X226695000Y-83947000D01*
X55245000Y-90170000D02*
X56515000Y-88900000D01*
X55245000Y-92075000D02*
X55245000Y-90170000D01*
X55245000Y-100515000D02*
X52705000Y-103055000D01*
X55245000Y-92075000D02*
X55245000Y-100515000D01*
X74295000Y-90170000D02*
X75565000Y-88900000D01*
X74295000Y-92075000D02*
X74295000Y-90170000D01*
X74295000Y-100515000D02*
X71755000Y-103055000D01*
X74295000Y-92075000D02*
X74295000Y-100515000D01*
X93345000Y-90170000D02*
X94615000Y-88900000D01*
X93345000Y-92075000D02*
X93345000Y-90170000D01*
X93345000Y-100515000D02*
X90805000Y-103055000D01*
X93345000Y-92075000D02*
X93345000Y-100515000D01*
X112395000Y-90170000D02*
X113665000Y-88900000D01*
X112395000Y-92075000D02*
X112395000Y-90170000D01*
X112395000Y-100515000D02*
X109855000Y-103055000D01*
X112395000Y-92075000D02*
X112395000Y-100515000D01*
X131445000Y-90170000D02*
X132715000Y-88900000D01*
X131445000Y-92075000D02*
X131445000Y-90170000D01*
X131445000Y-100515000D02*
X128905000Y-103055000D01*
X131445000Y-92075000D02*
X131445000Y-100515000D01*
X150495000Y-90170000D02*
X151765000Y-88900000D01*
X150495000Y-92075000D02*
X150495000Y-90170000D01*
X150495000Y-100515000D02*
X147955000Y-103055000D01*
X150495000Y-92075000D02*
X150495000Y-100515000D01*
X169545000Y-90170000D02*
X170815000Y-88900000D01*
X169545000Y-92075000D02*
X169545000Y-90170000D01*
X169545000Y-100515000D02*
X167005000Y-103055000D01*
X169545000Y-92075000D02*
X169545000Y-100515000D01*
X188595000Y-90170000D02*
X189865000Y-88900000D01*
X188595000Y-92075000D02*
X188595000Y-90170000D01*
X188595000Y-100515000D02*
X186055000Y-103055000D01*
X188595000Y-92075000D02*
X188595000Y-100515000D01*
X207645000Y-90170000D02*
X208915000Y-88900000D01*
X207645000Y-92075000D02*
X207645000Y-90170000D01*
X207645000Y-100515000D02*
X205105000Y-103055000D01*
X207645000Y-92075000D02*
X207645000Y-100515000D01*
X226695000Y-90170000D02*
X227965000Y-88900000D01*
X226695000Y-92075000D02*
X226695000Y-90170000D01*
X226695000Y-100515000D02*
X224155000Y-103055000D01*
X226695000Y-92075000D02*
X226695000Y-100515000D01*
X106045000Y-99765000D02*
X104855000Y-100955000D01*
X106045000Y-94615000D02*
X106045000Y-99765000D01*
X106045000Y-80715000D02*
X104855000Y-81905000D01*
X106045000Y-75565000D02*
X106045000Y-80715000D01*
X106045000Y-93150954D02*
X106045000Y-94615000D01*
X104855000Y-91960954D02*
X106045000Y-93150954D01*
X104855000Y-81905000D02*
X104855000Y-91960954D01*
X125095000Y-99765000D02*
X123905000Y-100955000D01*
X125095000Y-94615000D02*
X125095000Y-99765000D01*
X125095000Y-80715000D02*
X123905000Y-81905000D01*
X125095000Y-75565000D02*
X125095000Y-80715000D01*
X125095000Y-93150954D02*
X125095000Y-94615000D01*
X123905000Y-91960954D02*
X125095000Y-93150954D01*
X123905000Y-81905000D02*
X123905000Y-91960954D01*
X144145000Y-99765000D02*
X142955000Y-100955000D01*
X144145000Y-94615000D02*
X144145000Y-99765000D01*
X144145000Y-80715000D02*
X142955000Y-81905000D01*
X144145000Y-75565000D02*
X144145000Y-80715000D01*
X144145000Y-93150954D02*
X144145000Y-94615000D01*
X142955000Y-91960954D02*
X144145000Y-93150954D01*
X142955000Y-81905000D02*
X142955000Y-91960954D01*
X163195000Y-99765000D02*
X162005000Y-100955000D01*
X163195000Y-94615000D02*
X163195000Y-99765000D01*
X163195000Y-80715000D02*
X162005000Y-81905000D01*
X163195000Y-75565000D02*
X163195000Y-80715000D01*
X163195000Y-93150954D02*
X163195000Y-94615000D01*
X162005000Y-91960954D02*
X163195000Y-93150954D01*
X162005000Y-81905000D02*
X162005000Y-91960954D01*
X182245000Y-99765000D02*
X181055000Y-100955000D01*
X182245000Y-94615000D02*
X182245000Y-99765000D01*
X182245000Y-80715000D02*
X181055000Y-81905000D01*
X182245000Y-75565000D02*
X182245000Y-80715000D01*
X182245000Y-93150954D02*
X182245000Y-94615000D01*
X181055000Y-91960954D02*
X182245000Y-93150954D01*
X181055000Y-81905000D02*
X181055000Y-91960954D01*
X201295000Y-99765000D02*
X200105000Y-100955000D01*
X201295000Y-94615000D02*
X201295000Y-99765000D01*
X201295000Y-80715000D02*
X200105000Y-81905000D01*
X201295000Y-75565000D02*
X201295000Y-80715000D01*
X201295000Y-93150954D02*
X201295000Y-94615000D01*
X200105000Y-91960954D02*
X201295000Y-93150954D01*
X200105000Y-81905000D02*
X200105000Y-91960954D01*
X220345000Y-99765000D02*
X219155000Y-100955000D01*
X220345000Y-94615000D02*
X220345000Y-99765000D01*
X220345000Y-80715000D02*
X219155000Y-81905000D01*
X220345000Y-75565000D02*
X220345000Y-80715000D01*
X220345000Y-93150954D02*
X220345000Y-94615000D01*
X219155000Y-91960954D02*
X220345000Y-93150954D01*
X219155000Y-81905000D02*
X219155000Y-91960954D01*
X27305000Y-86518750D02*
X23177500Y-82391250D01*
X27305000Y-104140000D02*
X27305000Y-86518750D01*
X24378801Y-86132551D02*
X23177500Y-84931250D01*
X26740999Y-105315001D02*
X24378801Y-102952803D01*
X24378801Y-102952803D02*
X24378801Y-86132551D01*
X28669999Y-105315001D02*
X26740999Y-105315001D01*
X29845000Y-104140000D02*
X28669999Y-105315001D01*
D20*
X38417500Y-77311250D02*
X38100000Y-77311250D01*
M02*
