G04 #@! TF.GenerationSoftware,KiCad,Pcbnew,5.1.12-1.fc33*
G04 #@! TF.CreationDate,2022-01-04T19:50:43-05:00*
G04 #@! TF.ProjectId,crisco,63726973-636f-42e6-9b69-6361645f7063,rev?*
G04 #@! TF.SameCoordinates,Original*
G04 #@! TF.FileFunction,Copper,L1,Top*
G04 #@! TF.FilePolarity,Positive*
%FSLAX46Y46*%
G04 Gerber Fmt 4.6, Leading zero omitted, Abs format (unit mm)*
G04 Created by KiCad (PCBNEW 5.1.12-1.fc33) date 2022-01-04 19:50:43*
%MOMM*%
%LPD*%
G01*
G04 APERTURE LIST*
G04 #@! TA.AperFunction,ComponentPad*
%ADD10C,2.250000*%
G04 #@! TD*
G04 #@! TA.AperFunction,ComponentPad*
%ADD11O,1.700000X1.700000*%
G04 #@! TD*
G04 #@! TA.AperFunction,ComponentPad*
%ADD12R,1.700000X1.700000*%
G04 #@! TD*
G04 #@! TA.AperFunction,SMDPad,CuDef*
%ADD13R,1.700000X0.900000*%
G04 #@! TD*
G04 #@! TA.AperFunction,SMDPad,CuDef*
%ADD14R,1.300000X0.950000*%
G04 #@! TD*
G04 #@! TA.AperFunction,ComponentPad*
%ADD15R,1.397000X1.397000*%
G04 #@! TD*
G04 #@! TA.AperFunction,ComponentPad*
%ADD16C,1.397000*%
G04 #@! TD*
G04 #@! TA.AperFunction,ComponentPad*
%ADD17R,1.752600X1.752600*%
G04 #@! TD*
G04 #@! TA.AperFunction,ComponentPad*
%ADD18C,1.752600*%
G04 #@! TD*
G04 #@! TA.AperFunction,ViaPad*
%ADD19C,0.800000*%
G04 #@! TD*
G04 #@! TA.AperFunction,Conductor*
%ADD20C,0.250000*%
G04 #@! TD*
G04 APERTURE END LIST*
D10*
X221655000Y-93155000D03*
G04 #@! TA.AperFunction,ComponentPad*
G36*
G01*
X219593688Y-95452350D02*
X219593683Y-95452345D01*
G75*
G02*
X219507655Y-93863683I751317J837345D01*
G01*
X220817657Y-92403683D01*
G75*
G02*
X222406319Y-92317655I837345J-751317D01*
G01*
X222406319Y-92317655D01*
G75*
G02*
X222492347Y-93906317I-751317J-837345D01*
G01*
X221182345Y-95366317D01*
G75*
G02*
X219593683Y-95452345I-837345J751317D01*
G01*
G37*
G04 #@! TD.AperFunction*
X226695000Y-92075000D03*
G04 #@! TA.AperFunction,ComponentPad*
G36*
G01*
X226578483Y-93777395D02*
X226577597Y-93777334D01*
G75*
G02*
X225532666Y-92577597I77403J1122334D01*
G01*
X225572666Y-91997597D01*
G75*
G02*
X226772403Y-90952666I1122334J-77403D01*
G01*
X226772403Y-90952666D01*
G75*
G02*
X227817334Y-92152403I-77403J-1122334D01*
G01*
X227777334Y-92732403D01*
G75*
G02*
X226577597Y-93777334I-1122334J77403D01*
G01*
G37*
G04 #@! TD.AperFunction*
X202605000Y-93155000D03*
G04 #@! TA.AperFunction,ComponentPad*
G36*
G01*
X200543688Y-95452350D02*
X200543683Y-95452345D01*
G75*
G02*
X200457655Y-93863683I751317J837345D01*
G01*
X201767657Y-92403683D01*
G75*
G02*
X203356319Y-92317655I837345J-751317D01*
G01*
X203356319Y-92317655D01*
G75*
G02*
X203442347Y-93906317I-751317J-837345D01*
G01*
X202132345Y-95366317D01*
G75*
G02*
X200543683Y-95452345I-837345J751317D01*
G01*
G37*
G04 #@! TD.AperFunction*
X207645000Y-92075000D03*
G04 #@! TA.AperFunction,ComponentPad*
G36*
G01*
X207528483Y-93777395D02*
X207527597Y-93777334D01*
G75*
G02*
X206482666Y-92577597I77403J1122334D01*
G01*
X206522666Y-91997597D01*
G75*
G02*
X207722403Y-90952666I1122334J-77403D01*
G01*
X207722403Y-90952666D01*
G75*
G02*
X208767334Y-92152403I-77403J-1122334D01*
G01*
X208727334Y-92732403D01*
G75*
G02*
X207527597Y-93777334I-1122334J77403D01*
G01*
G37*
G04 #@! TD.AperFunction*
X183555000Y-93155000D03*
G04 #@! TA.AperFunction,ComponentPad*
G36*
G01*
X181493688Y-95452350D02*
X181493683Y-95452345D01*
G75*
G02*
X181407655Y-93863683I751317J837345D01*
G01*
X182717657Y-92403683D01*
G75*
G02*
X184306319Y-92317655I837345J-751317D01*
G01*
X184306319Y-92317655D01*
G75*
G02*
X184392347Y-93906317I-751317J-837345D01*
G01*
X183082345Y-95366317D01*
G75*
G02*
X181493683Y-95452345I-837345J751317D01*
G01*
G37*
G04 #@! TD.AperFunction*
X188595000Y-92075000D03*
G04 #@! TA.AperFunction,ComponentPad*
G36*
G01*
X188478483Y-93777395D02*
X188477597Y-93777334D01*
G75*
G02*
X187432666Y-92577597I77403J1122334D01*
G01*
X187472666Y-91997597D01*
G75*
G02*
X188672403Y-90952666I1122334J-77403D01*
G01*
X188672403Y-90952666D01*
G75*
G02*
X189717334Y-92152403I-77403J-1122334D01*
G01*
X189677334Y-92732403D01*
G75*
G02*
X188477597Y-93777334I-1122334J77403D01*
G01*
G37*
G04 #@! TD.AperFunction*
X164505000Y-93155000D03*
G04 #@! TA.AperFunction,ComponentPad*
G36*
G01*
X162443688Y-95452350D02*
X162443683Y-95452345D01*
G75*
G02*
X162357655Y-93863683I751317J837345D01*
G01*
X163667657Y-92403683D01*
G75*
G02*
X165256319Y-92317655I837345J-751317D01*
G01*
X165256319Y-92317655D01*
G75*
G02*
X165342347Y-93906317I-751317J-837345D01*
G01*
X164032345Y-95366317D01*
G75*
G02*
X162443683Y-95452345I-837345J751317D01*
G01*
G37*
G04 #@! TD.AperFunction*
X169545000Y-92075000D03*
G04 #@! TA.AperFunction,ComponentPad*
G36*
G01*
X169428483Y-93777395D02*
X169427597Y-93777334D01*
G75*
G02*
X168382666Y-92577597I77403J1122334D01*
G01*
X168422666Y-91997597D01*
G75*
G02*
X169622403Y-90952666I1122334J-77403D01*
G01*
X169622403Y-90952666D01*
G75*
G02*
X170667334Y-92152403I-77403J-1122334D01*
G01*
X170627334Y-92732403D01*
G75*
G02*
X169427597Y-93777334I-1122334J77403D01*
G01*
G37*
G04 #@! TD.AperFunction*
X145455000Y-93155000D03*
G04 #@! TA.AperFunction,ComponentPad*
G36*
G01*
X143393688Y-95452350D02*
X143393683Y-95452345D01*
G75*
G02*
X143307655Y-93863683I751317J837345D01*
G01*
X144617657Y-92403683D01*
G75*
G02*
X146206319Y-92317655I837345J-751317D01*
G01*
X146206319Y-92317655D01*
G75*
G02*
X146292347Y-93906317I-751317J-837345D01*
G01*
X144982345Y-95366317D01*
G75*
G02*
X143393683Y-95452345I-837345J751317D01*
G01*
G37*
G04 #@! TD.AperFunction*
X150495000Y-92075000D03*
G04 #@! TA.AperFunction,ComponentPad*
G36*
G01*
X150378483Y-93777395D02*
X150377597Y-93777334D01*
G75*
G02*
X149332666Y-92577597I77403J1122334D01*
G01*
X149372666Y-91997597D01*
G75*
G02*
X150572403Y-90952666I1122334J-77403D01*
G01*
X150572403Y-90952666D01*
G75*
G02*
X151617334Y-92152403I-77403J-1122334D01*
G01*
X151577334Y-92732403D01*
G75*
G02*
X150377597Y-93777334I-1122334J77403D01*
G01*
G37*
G04 #@! TD.AperFunction*
X126405000Y-93155000D03*
G04 #@! TA.AperFunction,ComponentPad*
G36*
G01*
X124343688Y-95452350D02*
X124343683Y-95452345D01*
G75*
G02*
X124257655Y-93863683I751317J837345D01*
G01*
X125567657Y-92403683D01*
G75*
G02*
X127156319Y-92317655I837345J-751317D01*
G01*
X127156319Y-92317655D01*
G75*
G02*
X127242347Y-93906317I-751317J-837345D01*
G01*
X125932345Y-95366317D01*
G75*
G02*
X124343683Y-95452345I-837345J751317D01*
G01*
G37*
G04 #@! TD.AperFunction*
X131445000Y-92075000D03*
G04 #@! TA.AperFunction,ComponentPad*
G36*
G01*
X131328483Y-93777395D02*
X131327597Y-93777334D01*
G75*
G02*
X130282666Y-92577597I77403J1122334D01*
G01*
X130322666Y-91997597D01*
G75*
G02*
X131522403Y-90952666I1122334J-77403D01*
G01*
X131522403Y-90952666D01*
G75*
G02*
X132567334Y-92152403I-77403J-1122334D01*
G01*
X132527334Y-92732403D01*
G75*
G02*
X131327597Y-93777334I-1122334J77403D01*
G01*
G37*
G04 #@! TD.AperFunction*
X107355000Y-93155000D03*
G04 #@! TA.AperFunction,ComponentPad*
G36*
G01*
X105293688Y-95452350D02*
X105293683Y-95452345D01*
G75*
G02*
X105207655Y-93863683I751317J837345D01*
G01*
X106517657Y-92403683D01*
G75*
G02*
X108106319Y-92317655I837345J-751317D01*
G01*
X108106319Y-92317655D01*
G75*
G02*
X108192347Y-93906317I-751317J-837345D01*
G01*
X106882345Y-95366317D01*
G75*
G02*
X105293683Y-95452345I-837345J751317D01*
G01*
G37*
G04 #@! TD.AperFunction*
X112395000Y-92075000D03*
G04 #@! TA.AperFunction,ComponentPad*
G36*
G01*
X112278483Y-93777395D02*
X112277597Y-93777334D01*
G75*
G02*
X111232666Y-92577597I77403J1122334D01*
G01*
X111272666Y-91997597D01*
G75*
G02*
X112472403Y-90952666I1122334J-77403D01*
G01*
X112472403Y-90952666D01*
G75*
G02*
X113517334Y-92152403I-77403J-1122334D01*
G01*
X113477334Y-92732403D01*
G75*
G02*
X112277597Y-93777334I-1122334J77403D01*
G01*
G37*
G04 #@! TD.AperFunction*
X88305000Y-93155000D03*
G04 #@! TA.AperFunction,ComponentPad*
G36*
G01*
X86243688Y-95452350D02*
X86243683Y-95452345D01*
G75*
G02*
X86157655Y-93863683I751317J837345D01*
G01*
X87467657Y-92403683D01*
G75*
G02*
X89056319Y-92317655I837345J-751317D01*
G01*
X89056319Y-92317655D01*
G75*
G02*
X89142347Y-93906317I-751317J-837345D01*
G01*
X87832345Y-95366317D01*
G75*
G02*
X86243683Y-95452345I-837345J751317D01*
G01*
G37*
G04 #@! TD.AperFunction*
X93345000Y-92075000D03*
G04 #@! TA.AperFunction,ComponentPad*
G36*
G01*
X93228483Y-93777395D02*
X93227597Y-93777334D01*
G75*
G02*
X92182666Y-92577597I77403J1122334D01*
G01*
X92222666Y-91997597D01*
G75*
G02*
X93422403Y-90952666I1122334J-77403D01*
G01*
X93422403Y-90952666D01*
G75*
G02*
X94467334Y-92152403I-77403J-1122334D01*
G01*
X94427334Y-92732403D01*
G75*
G02*
X93227597Y-93777334I-1122334J77403D01*
G01*
G37*
G04 #@! TD.AperFunction*
X69255000Y-93155000D03*
G04 #@! TA.AperFunction,ComponentPad*
G36*
G01*
X67193688Y-95452350D02*
X67193683Y-95452345D01*
G75*
G02*
X67107655Y-93863683I751317J837345D01*
G01*
X68417657Y-92403683D01*
G75*
G02*
X70006319Y-92317655I837345J-751317D01*
G01*
X70006319Y-92317655D01*
G75*
G02*
X70092347Y-93906317I-751317J-837345D01*
G01*
X68782345Y-95366317D01*
G75*
G02*
X67193683Y-95452345I-837345J751317D01*
G01*
G37*
G04 #@! TD.AperFunction*
X74295000Y-92075000D03*
G04 #@! TA.AperFunction,ComponentPad*
G36*
G01*
X74178483Y-93777395D02*
X74177597Y-93777334D01*
G75*
G02*
X73132666Y-92577597I77403J1122334D01*
G01*
X73172666Y-91997597D01*
G75*
G02*
X74372403Y-90952666I1122334J-77403D01*
G01*
X74372403Y-90952666D01*
G75*
G02*
X75417334Y-92152403I-77403J-1122334D01*
G01*
X75377334Y-92732403D01*
G75*
G02*
X74177597Y-93777334I-1122334J77403D01*
G01*
G37*
G04 #@! TD.AperFunction*
X50205000Y-93155000D03*
G04 #@! TA.AperFunction,ComponentPad*
G36*
G01*
X48143688Y-95452350D02*
X48143683Y-95452345D01*
G75*
G02*
X48057655Y-93863683I751317J837345D01*
G01*
X49367657Y-92403683D01*
G75*
G02*
X50956319Y-92317655I837345J-751317D01*
G01*
X50956319Y-92317655D01*
G75*
G02*
X51042347Y-93906317I-751317J-837345D01*
G01*
X49732345Y-95366317D01*
G75*
G02*
X48143683Y-95452345I-837345J751317D01*
G01*
G37*
G04 #@! TD.AperFunction*
X55245000Y-92075000D03*
G04 #@! TA.AperFunction,ComponentPad*
G36*
G01*
X55128483Y-93777395D02*
X55127597Y-93777334D01*
G75*
G02*
X54082666Y-92577597I77403J1122334D01*
G01*
X54122666Y-91997597D01*
G75*
G02*
X55322403Y-90952666I1122334J-77403D01*
G01*
X55322403Y-90952666D01*
G75*
G02*
X56367334Y-92152403I-77403J-1122334D01*
G01*
X56327334Y-92732403D01*
G75*
G02*
X55127597Y-93777334I-1122334J77403D01*
G01*
G37*
G04 #@! TD.AperFunction*
X221655000Y-74105000D03*
G04 #@! TA.AperFunction,ComponentPad*
G36*
G01*
X219593688Y-76402350D02*
X219593683Y-76402345D01*
G75*
G02*
X219507655Y-74813683I751317J837345D01*
G01*
X220817657Y-73353683D01*
G75*
G02*
X222406319Y-73267655I837345J-751317D01*
G01*
X222406319Y-73267655D01*
G75*
G02*
X222492347Y-74856317I-751317J-837345D01*
G01*
X221182345Y-76316317D01*
G75*
G02*
X219593683Y-76402345I-837345J751317D01*
G01*
G37*
G04 #@! TD.AperFunction*
X226695000Y-73025000D03*
G04 #@! TA.AperFunction,ComponentPad*
G36*
G01*
X226578483Y-74727395D02*
X226577597Y-74727334D01*
G75*
G02*
X225532666Y-73527597I77403J1122334D01*
G01*
X225572666Y-72947597D01*
G75*
G02*
X226772403Y-71902666I1122334J-77403D01*
G01*
X226772403Y-71902666D01*
G75*
G02*
X227817334Y-73102403I-77403J-1122334D01*
G01*
X227777334Y-73682403D01*
G75*
G02*
X226577597Y-74727334I-1122334J77403D01*
G01*
G37*
G04 #@! TD.AperFunction*
X202605000Y-74105000D03*
G04 #@! TA.AperFunction,ComponentPad*
G36*
G01*
X200543688Y-76402350D02*
X200543683Y-76402345D01*
G75*
G02*
X200457655Y-74813683I751317J837345D01*
G01*
X201767657Y-73353683D01*
G75*
G02*
X203356319Y-73267655I837345J-751317D01*
G01*
X203356319Y-73267655D01*
G75*
G02*
X203442347Y-74856317I-751317J-837345D01*
G01*
X202132345Y-76316317D01*
G75*
G02*
X200543683Y-76402345I-837345J751317D01*
G01*
G37*
G04 #@! TD.AperFunction*
X207645000Y-73025000D03*
G04 #@! TA.AperFunction,ComponentPad*
G36*
G01*
X207528483Y-74727395D02*
X207527597Y-74727334D01*
G75*
G02*
X206482666Y-73527597I77403J1122334D01*
G01*
X206522666Y-72947597D01*
G75*
G02*
X207722403Y-71902666I1122334J-77403D01*
G01*
X207722403Y-71902666D01*
G75*
G02*
X208767334Y-73102403I-77403J-1122334D01*
G01*
X208727334Y-73682403D01*
G75*
G02*
X207527597Y-74727334I-1122334J77403D01*
G01*
G37*
G04 #@! TD.AperFunction*
X183555000Y-74105000D03*
G04 #@! TA.AperFunction,ComponentPad*
G36*
G01*
X181493688Y-76402350D02*
X181493683Y-76402345D01*
G75*
G02*
X181407655Y-74813683I751317J837345D01*
G01*
X182717657Y-73353683D01*
G75*
G02*
X184306319Y-73267655I837345J-751317D01*
G01*
X184306319Y-73267655D01*
G75*
G02*
X184392347Y-74856317I-751317J-837345D01*
G01*
X183082345Y-76316317D01*
G75*
G02*
X181493683Y-76402345I-837345J751317D01*
G01*
G37*
G04 #@! TD.AperFunction*
X188595000Y-73025000D03*
G04 #@! TA.AperFunction,ComponentPad*
G36*
G01*
X188478483Y-74727395D02*
X188477597Y-74727334D01*
G75*
G02*
X187432666Y-73527597I77403J1122334D01*
G01*
X187472666Y-72947597D01*
G75*
G02*
X188672403Y-71902666I1122334J-77403D01*
G01*
X188672403Y-71902666D01*
G75*
G02*
X189717334Y-73102403I-77403J-1122334D01*
G01*
X189677334Y-73682403D01*
G75*
G02*
X188477597Y-74727334I-1122334J77403D01*
G01*
G37*
G04 #@! TD.AperFunction*
X164505000Y-74105000D03*
G04 #@! TA.AperFunction,ComponentPad*
G36*
G01*
X162443688Y-76402350D02*
X162443683Y-76402345D01*
G75*
G02*
X162357655Y-74813683I751317J837345D01*
G01*
X163667657Y-73353683D01*
G75*
G02*
X165256319Y-73267655I837345J-751317D01*
G01*
X165256319Y-73267655D01*
G75*
G02*
X165342347Y-74856317I-751317J-837345D01*
G01*
X164032345Y-76316317D01*
G75*
G02*
X162443683Y-76402345I-837345J751317D01*
G01*
G37*
G04 #@! TD.AperFunction*
X169545000Y-73025000D03*
G04 #@! TA.AperFunction,ComponentPad*
G36*
G01*
X169428483Y-74727395D02*
X169427597Y-74727334D01*
G75*
G02*
X168382666Y-73527597I77403J1122334D01*
G01*
X168422666Y-72947597D01*
G75*
G02*
X169622403Y-71902666I1122334J-77403D01*
G01*
X169622403Y-71902666D01*
G75*
G02*
X170667334Y-73102403I-77403J-1122334D01*
G01*
X170627334Y-73682403D01*
G75*
G02*
X169427597Y-74727334I-1122334J77403D01*
G01*
G37*
G04 #@! TD.AperFunction*
X145455000Y-74105000D03*
G04 #@! TA.AperFunction,ComponentPad*
G36*
G01*
X143393688Y-76402350D02*
X143393683Y-76402345D01*
G75*
G02*
X143307655Y-74813683I751317J837345D01*
G01*
X144617657Y-73353683D01*
G75*
G02*
X146206319Y-73267655I837345J-751317D01*
G01*
X146206319Y-73267655D01*
G75*
G02*
X146292347Y-74856317I-751317J-837345D01*
G01*
X144982345Y-76316317D01*
G75*
G02*
X143393683Y-76402345I-837345J751317D01*
G01*
G37*
G04 #@! TD.AperFunction*
X150495000Y-73025000D03*
G04 #@! TA.AperFunction,ComponentPad*
G36*
G01*
X150378483Y-74727395D02*
X150377597Y-74727334D01*
G75*
G02*
X149332666Y-73527597I77403J1122334D01*
G01*
X149372666Y-72947597D01*
G75*
G02*
X150572403Y-71902666I1122334J-77403D01*
G01*
X150572403Y-71902666D01*
G75*
G02*
X151617334Y-73102403I-77403J-1122334D01*
G01*
X151577334Y-73682403D01*
G75*
G02*
X150377597Y-74727334I-1122334J77403D01*
G01*
G37*
G04 #@! TD.AperFunction*
X126405000Y-74105000D03*
G04 #@! TA.AperFunction,ComponentPad*
G36*
G01*
X124343688Y-76402350D02*
X124343683Y-76402345D01*
G75*
G02*
X124257655Y-74813683I751317J837345D01*
G01*
X125567657Y-73353683D01*
G75*
G02*
X127156319Y-73267655I837345J-751317D01*
G01*
X127156319Y-73267655D01*
G75*
G02*
X127242347Y-74856317I-751317J-837345D01*
G01*
X125932345Y-76316317D01*
G75*
G02*
X124343683Y-76402345I-837345J751317D01*
G01*
G37*
G04 #@! TD.AperFunction*
X131445000Y-73025000D03*
G04 #@! TA.AperFunction,ComponentPad*
G36*
G01*
X131328483Y-74727395D02*
X131327597Y-74727334D01*
G75*
G02*
X130282666Y-73527597I77403J1122334D01*
G01*
X130322666Y-72947597D01*
G75*
G02*
X131522403Y-71902666I1122334J-77403D01*
G01*
X131522403Y-71902666D01*
G75*
G02*
X132567334Y-73102403I-77403J-1122334D01*
G01*
X132527334Y-73682403D01*
G75*
G02*
X131327597Y-74727334I-1122334J77403D01*
G01*
G37*
G04 #@! TD.AperFunction*
X107355000Y-74105000D03*
G04 #@! TA.AperFunction,ComponentPad*
G36*
G01*
X105293688Y-76402350D02*
X105293683Y-76402345D01*
G75*
G02*
X105207655Y-74813683I751317J837345D01*
G01*
X106517657Y-73353683D01*
G75*
G02*
X108106319Y-73267655I837345J-751317D01*
G01*
X108106319Y-73267655D01*
G75*
G02*
X108192347Y-74856317I-751317J-837345D01*
G01*
X106882345Y-76316317D01*
G75*
G02*
X105293683Y-76402345I-837345J751317D01*
G01*
G37*
G04 #@! TD.AperFunction*
X112395000Y-73025000D03*
G04 #@! TA.AperFunction,ComponentPad*
G36*
G01*
X112278483Y-74727395D02*
X112277597Y-74727334D01*
G75*
G02*
X111232666Y-73527597I77403J1122334D01*
G01*
X111272666Y-72947597D01*
G75*
G02*
X112472403Y-71902666I1122334J-77403D01*
G01*
X112472403Y-71902666D01*
G75*
G02*
X113517334Y-73102403I-77403J-1122334D01*
G01*
X113477334Y-73682403D01*
G75*
G02*
X112277597Y-74727334I-1122334J77403D01*
G01*
G37*
G04 #@! TD.AperFunction*
X88305000Y-74105000D03*
G04 #@! TA.AperFunction,ComponentPad*
G36*
G01*
X86243688Y-76402350D02*
X86243683Y-76402345D01*
G75*
G02*
X86157655Y-74813683I751317J837345D01*
G01*
X87467657Y-73353683D01*
G75*
G02*
X89056319Y-73267655I837345J-751317D01*
G01*
X89056319Y-73267655D01*
G75*
G02*
X89142347Y-74856317I-751317J-837345D01*
G01*
X87832345Y-76316317D01*
G75*
G02*
X86243683Y-76402345I-837345J751317D01*
G01*
G37*
G04 #@! TD.AperFunction*
X93345000Y-73025000D03*
G04 #@! TA.AperFunction,ComponentPad*
G36*
G01*
X93228483Y-74727395D02*
X93227597Y-74727334D01*
G75*
G02*
X92182666Y-73527597I77403J1122334D01*
G01*
X92222666Y-72947597D01*
G75*
G02*
X93422403Y-71902666I1122334J-77403D01*
G01*
X93422403Y-71902666D01*
G75*
G02*
X94467334Y-73102403I-77403J-1122334D01*
G01*
X94427334Y-73682403D01*
G75*
G02*
X93227597Y-74727334I-1122334J77403D01*
G01*
G37*
G04 #@! TD.AperFunction*
X69255000Y-74105000D03*
G04 #@! TA.AperFunction,ComponentPad*
G36*
G01*
X67193688Y-76402350D02*
X67193683Y-76402345D01*
G75*
G02*
X67107655Y-74813683I751317J837345D01*
G01*
X68417657Y-73353683D01*
G75*
G02*
X70006319Y-73267655I837345J-751317D01*
G01*
X70006319Y-73267655D01*
G75*
G02*
X70092347Y-74856317I-751317J-837345D01*
G01*
X68782345Y-76316317D01*
G75*
G02*
X67193683Y-76402345I-837345J751317D01*
G01*
G37*
G04 #@! TD.AperFunction*
X74295000Y-73025000D03*
G04 #@! TA.AperFunction,ComponentPad*
G36*
G01*
X74178483Y-74727395D02*
X74177597Y-74727334D01*
G75*
G02*
X73132666Y-73527597I77403J1122334D01*
G01*
X73172666Y-72947597D01*
G75*
G02*
X74372403Y-71902666I1122334J-77403D01*
G01*
X74372403Y-71902666D01*
G75*
G02*
X75417334Y-73102403I-77403J-1122334D01*
G01*
X75377334Y-73682403D01*
G75*
G02*
X74177597Y-74727334I-1122334J77403D01*
G01*
G37*
G04 #@! TD.AperFunction*
X50205000Y-74105000D03*
G04 #@! TA.AperFunction,ComponentPad*
G36*
G01*
X48143688Y-76402350D02*
X48143683Y-76402345D01*
G75*
G02*
X48057655Y-74813683I751317J837345D01*
G01*
X49367657Y-73353683D01*
G75*
G02*
X50956319Y-73267655I837345J-751317D01*
G01*
X50956319Y-73267655D01*
G75*
G02*
X51042347Y-74856317I-751317J-837345D01*
G01*
X49732345Y-76316317D01*
G75*
G02*
X48143683Y-76402345I-837345J751317D01*
G01*
G37*
G04 #@! TD.AperFunction*
X55245000Y-73025000D03*
G04 #@! TA.AperFunction,ComponentPad*
G36*
G01*
X55128483Y-74727395D02*
X55127597Y-74727334D01*
G75*
G02*
X54082666Y-73527597I77403J1122334D01*
G01*
X54122666Y-72947597D01*
G75*
G02*
X55322403Y-71902666I1122334J-77403D01*
G01*
X55322403Y-71902666D01*
G75*
G02*
X56367334Y-73102403I-77403J-1122334D01*
G01*
X56327334Y-73682403D01*
G75*
G02*
X55127597Y-74727334I-1122334J77403D01*
G01*
G37*
G04 #@! TD.AperFunction*
D11*
X42799000Y-85090000D03*
X42799000Y-87630000D03*
D12*
X42799000Y-90170000D03*
D13*
X42926000Y-77773000D03*
X42926000Y-74373000D03*
D14*
X108080000Y-86360000D03*
D15*
X106045000Y-86360000D03*
D16*
X113665000Y-86360000D03*
D14*
X111630000Y-86360000D03*
X50930000Y-86360000D03*
D15*
X48895000Y-86360000D03*
D16*
X56515000Y-86360000D03*
D14*
X54480000Y-86360000D03*
X69980000Y-86360000D03*
D15*
X67945000Y-86360000D03*
D16*
X75565000Y-86360000D03*
D14*
X73530000Y-86360000D03*
X89030000Y-86360000D03*
D15*
X86995000Y-86360000D03*
D16*
X94615000Y-86360000D03*
D14*
X92580000Y-86360000D03*
X50930000Y-88900000D03*
D15*
X48895000Y-88900000D03*
D16*
X56515000Y-88900000D03*
D14*
X54480000Y-88900000D03*
X69980000Y-88900000D03*
D15*
X67945000Y-88900000D03*
D16*
X75565000Y-88900000D03*
D14*
X73530000Y-88900000D03*
X89030000Y-88900000D03*
D15*
X86995000Y-88900000D03*
D16*
X94615000Y-88900000D03*
D14*
X92580000Y-88900000D03*
X108080000Y-88900000D03*
D15*
X106045000Y-88900000D03*
D16*
X113665000Y-88900000D03*
D14*
X111630000Y-88900000D03*
X222380000Y-86360000D03*
D15*
X220345000Y-86360000D03*
D16*
X227965000Y-86360000D03*
D14*
X225930000Y-86360000D03*
X222380000Y-88900000D03*
D15*
X220345000Y-88900000D03*
D16*
X227965000Y-88900000D03*
D14*
X225930000Y-88900000D03*
X203330000Y-88900000D03*
D15*
X201295000Y-88900000D03*
D16*
X208915000Y-88900000D03*
D14*
X206880000Y-88900000D03*
X184280000Y-88900000D03*
D15*
X182245000Y-88900000D03*
D16*
X189865000Y-88900000D03*
D14*
X187830000Y-88900000D03*
X165230000Y-88900000D03*
D15*
X163195000Y-88900000D03*
D16*
X170815000Y-88900000D03*
D14*
X168780000Y-88900000D03*
X146180000Y-88900000D03*
D15*
X144145000Y-88900000D03*
D16*
X151765000Y-88900000D03*
D14*
X149730000Y-88900000D03*
X127130000Y-88900000D03*
D15*
X125095000Y-88900000D03*
D16*
X132715000Y-88900000D03*
D14*
X130680000Y-88900000D03*
X203330000Y-86360000D03*
D15*
X201295000Y-86360000D03*
D16*
X208915000Y-86360000D03*
D14*
X206880000Y-86360000D03*
X184280000Y-86360000D03*
D15*
X182245000Y-86360000D03*
D16*
X189865000Y-86360000D03*
D14*
X187830000Y-86360000D03*
X165230000Y-86360000D03*
D15*
X163195000Y-86360000D03*
D16*
X170815000Y-86360000D03*
D14*
X168780000Y-86360000D03*
X146180000Y-86360000D03*
D15*
X144145000Y-86360000D03*
D16*
X151765000Y-86360000D03*
D14*
X149730000Y-86360000D03*
X127130000Y-86360000D03*
D15*
X125095000Y-86360000D03*
D16*
X132715000Y-86360000D03*
D14*
X130680000Y-86360000D03*
D11*
X27305000Y-104140000D03*
X29845000Y-104140000D03*
X32385000Y-104140000D03*
D12*
X34925000Y-104140000D03*
D17*
X23177500Y-72231250D03*
D18*
X23177500Y-74771250D03*
X23177500Y-77311250D03*
X23177500Y-79851250D03*
X23177500Y-82391250D03*
X23177500Y-84931250D03*
X23177500Y-87471250D03*
X23177500Y-90011250D03*
X23177500Y-92551250D03*
X23177500Y-95091250D03*
X23177500Y-97631250D03*
X38417500Y-100171250D03*
X38417500Y-97631250D03*
X38417500Y-95091250D03*
X38417500Y-92551250D03*
X38417500Y-90011250D03*
X38417500Y-87471250D03*
X38417500Y-84931250D03*
X38417500Y-82391250D03*
X38417500Y-79851250D03*
X38417500Y-77311250D03*
X38417500Y-74771250D03*
X23177500Y-100171250D03*
X38417500Y-72231250D03*
D19*
X36353824Y-90773176D03*
X46355000Y-88900000D03*
D20*
X54480000Y-86360000D02*
X56515000Y-86360000D01*
X48387000Y-86868000D02*
X48387000Y-86614000D01*
X222380000Y-86360000D02*
X220345000Y-86360000D01*
X201295000Y-86360000D02*
X203330000Y-86360000D01*
X184280000Y-86360000D02*
X182245000Y-86360000D01*
X165230000Y-86360000D02*
X163195000Y-86360000D01*
X144145000Y-86360000D02*
X146180000Y-86360000D01*
X127130000Y-86360000D02*
X125095000Y-86360000D01*
X108080000Y-86360000D02*
X106045000Y-86360000D01*
X89030000Y-86360000D02*
X86995000Y-86360000D01*
X69980000Y-86360000D02*
X67945000Y-86360000D01*
X50930000Y-86360000D02*
X48895000Y-86360000D01*
X66921499Y-87383501D02*
X67945000Y-86360000D01*
X49918501Y-87383501D02*
X66921499Y-87383501D01*
X48895000Y-86360000D02*
X49918501Y-87383501D01*
X85971499Y-87383501D02*
X86995000Y-86360000D01*
X68968501Y-87383501D02*
X85971499Y-87383501D01*
X67945000Y-86360000D02*
X68968501Y-87383501D01*
X105021499Y-87383501D02*
X106045000Y-86360000D01*
X88018501Y-87383501D02*
X105021499Y-87383501D01*
X86995000Y-86360000D02*
X88018501Y-87383501D01*
X124071499Y-87383501D02*
X125095000Y-86360000D01*
X107068501Y-87383501D02*
X124071499Y-87383501D01*
X106045000Y-86360000D02*
X107068501Y-87383501D01*
X143121499Y-87383501D02*
X144145000Y-86360000D01*
X126118501Y-87383501D02*
X143121499Y-87383501D01*
X125095000Y-86360000D02*
X126118501Y-87383501D01*
X162171499Y-87383501D02*
X163195000Y-86360000D01*
X145168501Y-87383501D02*
X162171499Y-87383501D01*
X144145000Y-86360000D02*
X145168501Y-87383501D01*
X181221499Y-87383501D02*
X182245000Y-86360000D01*
X164218501Y-87383501D02*
X181221499Y-87383501D01*
X163195000Y-86360000D02*
X164218501Y-87383501D01*
X200271499Y-87383501D02*
X201295000Y-86360000D01*
X183268501Y-87383501D02*
X200271499Y-87383501D01*
X182245000Y-86360000D02*
X183268501Y-87383501D01*
X219321499Y-87383501D02*
X220345000Y-86360000D01*
X202318501Y-87383501D02*
X219321499Y-87383501D01*
X201295000Y-86360000D02*
X202318501Y-87383501D01*
X42116187Y-86269949D02*
X42206238Y-86360000D01*
X37840875Y-86269949D02*
X42116187Y-86269949D01*
X42206238Y-86360000D02*
X48895000Y-86360000D01*
X37216199Y-86894625D02*
X37840875Y-86269949D01*
X37216199Y-88809949D02*
X37216199Y-86894625D01*
X38417500Y-90011250D02*
X37216199Y-88809949D01*
X73530000Y-86360000D02*
X75565000Y-86360000D01*
X92580000Y-86360000D02*
X94615000Y-86360000D01*
X220345000Y-88900000D02*
X222380000Y-88900000D01*
X203330000Y-88900000D02*
X201295000Y-88900000D01*
X182245000Y-88900000D02*
X184280000Y-88900000D01*
X163195000Y-88900000D02*
X165230000Y-88900000D01*
X146180000Y-88900000D02*
X144145000Y-88900000D01*
X125095000Y-88900000D02*
X127130000Y-88900000D01*
X106045000Y-88900000D02*
X108080000Y-88900000D01*
X86995000Y-88900000D02*
X89030000Y-88900000D01*
X67945000Y-88900000D02*
X69980000Y-88900000D01*
X48895000Y-88900000D02*
X50930000Y-88900000D01*
X85971499Y-89923501D02*
X86995000Y-88900000D01*
X68968501Y-89923501D02*
X85971499Y-89923501D01*
X67945000Y-88900000D02*
X68968501Y-89923501D01*
X105021499Y-89923501D02*
X106045000Y-88900000D01*
X88018501Y-89923501D02*
X105021499Y-89923501D01*
X86995000Y-88900000D02*
X88018501Y-89923501D01*
X124071499Y-89923501D02*
X125095000Y-88900000D01*
X107068501Y-89923501D02*
X124071499Y-89923501D01*
X106045000Y-88900000D02*
X107068501Y-89923501D01*
X143121499Y-89923501D02*
X144145000Y-88900000D01*
X126118501Y-89923501D02*
X143121499Y-89923501D01*
X125095000Y-88900000D02*
X126118501Y-89923501D01*
X162171499Y-89923501D02*
X163195000Y-88900000D01*
X145168501Y-89923501D02*
X162171499Y-89923501D01*
X144145000Y-88900000D02*
X145168501Y-89923501D01*
X181221499Y-89923501D02*
X182245000Y-88900000D01*
X164218501Y-89923501D02*
X181221499Y-89923501D01*
X163195000Y-88900000D02*
X164218501Y-89923501D01*
X200271499Y-89923501D02*
X201295000Y-88900000D01*
X183268501Y-89923501D02*
X200271499Y-89923501D01*
X182245000Y-88900000D02*
X183268501Y-89923501D01*
X219321499Y-89923501D02*
X220345000Y-88900000D01*
X202318501Y-89923501D02*
X219321499Y-89923501D01*
X201295000Y-88900000D02*
X202318501Y-89923501D01*
X66921499Y-89923501D02*
X67945000Y-88900000D01*
X49918501Y-89923501D02*
X66921499Y-89923501D01*
X48895000Y-88900000D02*
X49918501Y-89923501D01*
X48895000Y-88900000D02*
X46355000Y-88900000D01*
X46355000Y-88900000D02*
X46355000Y-88900000D01*
X38131898Y-92551250D02*
X38417500Y-92551250D01*
X36353824Y-90773176D02*
X38131898Y-92551250D01*
X46355000Y-88900000D02*
X46355000Y-88900000D01*
X111630000Y-86360000D02*
X113665000Y-86360000D01*
X130680000Y-86360000D02*
X132715000Y-86360000D01*
X149730000Y-86360000D02*
X151765000Y-86360000D01*
X42602750Y-74771250D02*
X42926000Y-74448000D01*
X38417500Y-74771250D02*
X42602750Y-74771250D01*
X42703750Y-85248750D02*
X42862500Y-85090000D01*
X38417500Y-87471250D02*
X38417500Y-87312500D01*
X42520751Y-91415751D02*
X45720000Y-94615000D01*
X41681749Y-91415751D02*
X42520751Y-91415751D01*
X39618801Y-89352803D02*
X41681749Y-91415751D01*
X45720000Y-94615000D02*
X48895000Y-94615000D01*
X39618801Y-88672551D02*
X39618801Y-89352803D01*
X38417500Y-87471250D02*
X39618801Y-88672551D01*
X36576000Y-89947676D02*
X36576000Y-86772750D01*
X37840875Y-91212551D02*
X36576000Y-89947676D01*
X39396551Y-91212551D02*
X37840875Y-91212551D01*
X41265999Y-93081999D02*
X39396551Y-91212551D01*
X41265999Y-93329001D02*
X41265999Y-93081999D01*
X41798999Y-93862001D02*
X41265999Y-93329001D01*
X42046001Y-93862001D02*
X41798999Y-93862001D01*
X47657901Y-99473901D02*
X42046001Y-93862001D01*
X57242101Y-99473901D02*
X47657901Y-99473901D01*
X62101002Y-94615000D02*
X57242101Y-99473901D01*
X36576000Y-86772750D02*
X38417500Y-84931250D01*
X67945000Y-94615000D02*
X62101002Y-94615000D01*
X81151002Y-75565000D02*
X86995000Y-75565000D01*
X73531002Y-83185000D02*
X81151002Y-75565000D01*
X39211250Y-83185000D02*
X73531002Y-83185000D01*
X38417500Y-82391250D02*
X39211250Y-83185000D01*
X170815000Y-86360000D02*
X168780000Y-86360000D01*
X187830000Y-86360000D02*
X189865000Y-86360000D01*
X206880000Y-86360000D02*
X208915000Y-86360000D01*
X225930000Y-86360000D02*
X227965000Y-86360000D01*
X56515000Y-88900000D02*
X54480000Y-88900000D01*
X73530000Y-88900000D02*
X75565000Y-88900000D01*
X92580000Y-88900000D02*
X94615000Y-88900000D01*
X111630000Y-88900000D02*
X113665000Y-88900000D01*
X132715000Y-88900000D02*
X130680000Y-88900000D01*
X151765000Y-88900000D02*
X149730000Y-88900000D01*
X168780000Y-88900000D02*
X170815000Y-88900000D01*
X189865000Y-88900000D02*
X187830000Y-88900000D01*
X208915000Y-88900000D02*
X206880000Y-88900000D01*
X225930000Y-88900000D02*
X227965000Y-88900000D01*
X104141411Y-94615000D02*
X104454010Y-94615000D01*
X98357400Y-100399011D02*
X104141411Y-94615000D01*
X42002430Y-95091250D02*
X47310191Y-100399011D01*
X47310191Y-100399011D02*
X98357400Y-100399011D01*
X104454010Y-94615000D02*
X106045000Y-94615000D01*
X38417500Y-95091250D02*
X42002430Y-95091250D01*
X123504010Y-94615000D02*
X125095000Y-94615000D01*
X43029721Y-96754951D02*
X47123792Y-100849022D01*
X39293799Y-96754951D02*
X43029721Y-96754951D01*
X38417500Y-97631250D02*
X39293799Y-96754951D01*
X98808822Y-100584000D02*
X117535010Y-100584000D01*
X47123792Y-100849022D02*
X98543800Y-100849022D01*
X117535010Y-100584000D02*
X123504010Y-94615000D01*
X98543800Y-100849022D02*
X98808822Y-100584000D01*
X136121461Y-101047549D02*
X142554010Y-94615000D01*
X98981684Y-101047549D02*
X136121461Y-101047549D01*
X142554010Y-94615000D02*
X144145000Y-94615000D01*
X98730200Y-101299033D02*
X98981684Y-101047549D01*
X39545283Y-101299033D02*
X98730200Y-101299033D01*
X38417500Y-100171250D02*
X39545283Y-101299033D01*
X154721451Y-101497559D02*
X161604010Y-94615000D01*
X99168084Y-101497560D02*
X154721451Y-101497559D01*
X161604010Y-94615000D02*
X163195000Y-94615000D01*
X29835294Y-101749044D02*
X98916600Y-101749044D01*
X98916600Y-101749044D02*
X99168084Y-101497560D01*
X23177500Y-95091250D02*
X29835294Y-101749044D01*
X180654010Y-94615000D02*
X182245000Y-94615000D01*
X99103000Y-102199055D02*
X99354486Y-101947569D01*
X29648894Y-102199055D02*
X99103000Y-102199055D01*
X29557839Y-102108000D02*
X29648894Y-102199055D01*
X21976199Y-100747875D02*
X23336324Y-102108000D01*
X21976199Y-93752551D02*
X21976199Y-100747875D01*
X99354486Y-101947569D02*
X173321442Y-101947568D01*
X23177500Y-92551250D02*
X21976199Y-93752551D01*
X173321442Y-101947568D02*
X180654010Y-94615000D01*
X23336324Y-102108000D02*
X29557839Y-102108000D01*
X201295000Y-78611002D02*
X201295000Y-75565000D01*
X26918801Y-83729949D02*
X196176053Y-83729949D01*
X196176053Y-83729949D02*
X201295000Y-78611002D01*
X23177500Y-87471250D02*
X26918801Y-83729949D01*
X41153588Y-93853000D02*
X41612599Y-94312012D01*
X98171000Y-99949000D02*
X107746489Y-90373511D01*
X27019250Y-93853000D02*
X41153588Y-93853000D01*
X47496590Y-99949000D02*
X98171000Y-99949000D01*
X216103511Y-90373511D02*
X220345000Y-94615000D01*
X107746489Y-90373511D02*
X216103511Y-90373511D01*
X23177500Y-90011250D02*
X27019250Y-93853000D01*
X41612599Y-94312012D02*
X41859602Y-94312012D01*
X41859602Y-94312012D02*
X47496590Y-99949000D01*
X42539250Y-77311250D02*
X42926000Y-77698000D01*
X38417500Y-77311250D02*
X42539250Y-77311250D01*
M02*
