G04 #@! TF.GenerationSoftware,KiCad,Pcbnew,5.1.12-1.fc33*
G04 #@! TF.CreationDate,2022-01-04T15:50:15-05:00*
G04 #@! TF.ProjectId,crisco,63726973-636f-42e6-9b69-6361645f7063,rev?*
G04 #@! TF.SameCoordinates,Original*
G04 #@! TF.FileFunction,Copper,L1,Top*
G04 #@! TF.FilePolarity,Positive*
%FSLAX46Y46*%
G04 Gerber Fmt 4.6, Leading zero omitted, Abs format (unit mm)*
G04 Created by KiCad (PCBNEW 5.1.12-1.fc33) date 2022-01-04 15:50:15*
%MOMM*%
%LPD*%
G01*
G04 APERTURE LIST*
G04 #@! TA.AperFunction,SMDPad,CuDef*
%ADD10R,1.700000X0.900000*%
G04 #@! TD*
G04 #@! TA.AperFunction,ComponentPad*
%ADD11C,2.250000*%
G04 #@! TD*
G04 #@! TA.AperFunction,SMDPad,CuDef*
%ADD12R,1.300000X0.950000*%
G04 #@! TD*
G04 #@! TA.AperFunction,ComponentPad*
%ADD13R,1.397000X1.397000*%
G04 #@! TD*
G04 #@! TA.AperFunction,ComponentPad*
%ADD14C,1.397000*%
G04 #@! TD*
G04 #@! TA.AperFunction,ComponentPad*
%ADD15O,1.700000X1.700000*%
G04 #@! TD*
G04 #@! TA.AperFunction,ComponentPad*
%ADD16R,1.700000X1.700000*%
G04 #@! TD*
G04 #@! TA.AperFunction,ComponentPad*
%ADD17R,1.752600X1.752600*%
G04 #@! TD*
G04 #@! TA.AperFunction,ComponentPad*
%ADD18C,1.752600*%
G04 #@! TD*
G04 #@! TA.AperFunction,ComponentPad*
%ADD19R,1.524000X1.524000*%
G04 #@! TD*
G04 #@! TA.AperFunction,ComponentPad*
%ADD20C,1.524000*%
G04 #@! TD*
G04 #@! TA.AperFunction,ViaPad*
%ADD21C,0.800000*%
G04 #@! TD*
G04 #@! TA.AperFunction,Conductor*
%ADD22C,0.250000*%
G04 #@! TD*
G04 APERTURE END LIST*
D10*
X42926000Y-77773000D03*
X42926000Y-74373000D03*
D11*
X67945000Y-94615000D03*
X74295000Y-92075000D03*
D12*
X108080000Y-86360000D03*
D13*
X106045000Y-86360000D03*
D14*
X113665000Y-86360000D03*
D12*
X111630000Y-86360000D03*
X50930000Y-86360000D03*
D13*
X48895000Y-86360000D03*
D14*
X56515000Y-86360000D03*
D12*
X54480000Y-86360000D03*
X69980000Y-86360000D03*
D13*
X67945000Y-86360000D03*
D14*
X75565000Y-86360000D03*
D12*
X73530000Y-86360000D03*
X89030000Y-86360000D03*
D13*
X86995000Y-86360000D03*
D14*
X94615000Y-86360000D03*
D12*
X92580000Y-86360000D03*
X50930000Y-88900000D03*
D13*
X48895000Y-88900000D03*
D14*
X56515000Y-88900000D03*
D12*
X54480000Y-88900000D03*
X69980000Y-88900000D03*
D13*
X67945000Y-88900000D03*
D14*
X75565000Y-88900000D03*
D12*
X73530000Y-88900000D03*
X89030000Y-88900000D03*
D13*
X86995000Y-88900000D03*
D14*
X94615000Y-88900000D03*
D12*
X92580000Y-88900000D03*
X108080000Y-88900000D03*
D13*
X106045000Y-88900000D03*
D14*
X113665000Y-88900000D03*
D12*
X111630000Y-88900000D03*
X222380000Y-86360000D03*
D13*
X220345000Y-86360000D03*
D14*
X227965000Y-86360000D03*
D12*
X225930000Y-86360000D03*
X222380000Y-88900000D03*
D13*
X220345000Y-88900000D03*
D14*
X227965000Y-88900000D03*
D12*
X225930000Y-88900000D03*
X203330000Y-88900000D03*
D13*
X201295000Y-88900000D03*
D14*
X208915000Y-88900000D03*
D12*
X206880000Y-88900000D03*
X184280000Y-88900000D03*
D13*
X182245000Y-88900000D03*
D14*
X189865000Y-88900000D03*
D12*
X187830000Y-88900000D03*
X165230000Y-88900000D03*
D13*
X163195000Y-88900000D03*
D14*
X170815000Y-88900000D03*
D12*
X168780000Y-88900000D03*
X146180000Y-88900000D03*
D13*
X144145000Y-88900000D03*
D14*
X151765000Y-88900000D03*
D12*
X149730000Y-88900000D03*
X127130000Y-88900000D03*
D13*
X125095000Y-88900000D03*
D14*
X132715000Y-88900000D03*
D12*
X130680000Y-88900000D03*
X203330000Y-86360000D03*
D13*
X201295000Y-86360000D03*
D14*
X208915000Y-86360000D03*
D12*
X206880000Y-86360000D03*
X184280000Y-86360000D03*
D13*
X182245000Y-86360000D03*
D14*
X189865000Y-86360000D03*
D12*
X187830000Y-86360000D03*
X165230000Y-86360000D03*
D13*
X163195000Y-86360000D03*
D14*
X170815000Y-86360000D03*
D12*
X168780000Y-86360000D03*
X146180000Y-86360000D03*
D13*
X144145000Y-86360000D03*
D14*
X151765000Y-86360000D03*
D12*
X149730000Y-86360000D03*
X127130000Y-86360000D03*
D13*
X125095000Y-86360000D03*
D14*
X132715000Y-86360000D03*
D12*
X130680000Y-86360000D03*
D15*
X27305000Y-104140000D03*
X29845000Y-104140000D03*
X32385000Y-104140000D03*
D16*
X34925000Y-104140000D03*
D17*
X23177500Y-72231250D03*
D18*
X23177500Y-74771250D03*
X23177500Y-77311250D03*
X23177500Y-79851250D03*
X23177500Y-82391250D03*
X23177500Y-84931250D03*
X23177500Y-87471250D03*
X23177500Y-90011250D03*
X23177500Y-92551250D03*
X23177500Y-95091250D03*
X23177500Y-97631250D03*
X38417500Y-100171250D03*
X38417500Y-97631250D03*
X38417500Y-95091250D03*
X38417500Y-92551250D03*
X38417500Y-90011250D03*
X38417500Y-87471250D03*
X38417500Y-84931250D03*
X38417500Y-82391250D03*
X38417500Y-79851250D03*
X38417500Y-77311250D03*
X38417500Y-74771250D03*
X23177500Y-100171250D03*
X38417500Y-72231250D03*
D11*
X226695000Y-92075000D03*
X220345000Y-94615000D03*
X207645000Y-92075000D03*
X201295000Y-94615000D03*
X188595000Y-92075000D03*
X182245000Y-94615000D03*
X169545000Y-92075000D03*
X163195000Y-94615000D03*
X150495000Y-92075000D03*
X144145000Y-94615000D03*
X131445000Y-92075000D03*
X125095000Y-94615000D03*
X112395000Y-92075000D03*
X106045000Y-94615000D03*
X226695000Y-73025000D03*
X220345000Y-75565000D03*
X207645000Y-73025000D03*
X201295000Y-75565000D03*
X188595000Y-73025000D03*
X182245000Y-75565000D03*
X169545000Y-73025000D03*
X163195000Y-75565000D03*
X150495000Y-73025000D03*
X144145000Y-75565000D03*
X131445000Y-73025000D03*
X125095000Y-75565000D03*
X112395000Y-73025000D03*
X106045000Y-75565000D03*
X55245000Y-92075000D03*
X48895000Y-94615000D03*
X48895000Y-75565000D03*
X55245000Y-73025000D03*
X74295000Y-73025000D03*
X67945000Y-75565000D03*
X86995000Y-75565000D03*
X93345000Y-73025000D03*
X93345000Y-92075000D03*
X86995000Y-94615000D03*
D19*
X42799000Y-90170000D03*
D20*
X42799000Y-87630000D03*
X42799000Y-85090000D03*
D21*
X36353824Y-90773176D03*
X46355000Y-88900000D03*
D22*
X54480000Y-86360000D02*
X56515000Y-86360000D01*
X48387000Y-86868000D02*
X48387000Y-86614000D01*
X222380000Y-86360000D02*
X220345000Y-86360000D01*
X201295000Y-86360000D02*
X203330000Y-86360000D01*
X184280000Y-86360000D02*
X182245000Y-86360000D01*
X165230000Y-86360000D02*
X163195000Y-86360000D01*
X144145000Y-86360000D02*
X146180000Y-86360000D01*
X127130000Y-86360000D02*
X125095000Y-86360000D01*
X108080000Y-86360000D02*
X106045000Y-86360000D01*
X89030000Y-86360000D02*
X86995000Y-86360000D01*
X69980000Y-86360000D02*
X67945000Y-86360000D01*
X50930000Y-86360000D02*
X48895000Y-86360000D01*
X66921499Y-87383501D02*
X67945000Y-86360000D01*
X49918501Y-87383501D02*
X66921499Y-87383501D01*
X48895000Y-86360000D02*
X49918501Y-87383501D01*
X85971499Y-87383501D02*
X86995000Y-86360000D01*
X68968501Y-87383501D02*
X85971499Y-87383501D01*
X67945000Y-86360000D02*
X68968501Y-87383501D01*
X105021499Y-87383501D02*
X106045000Y-86360000D01*
X88018501Y-87383501D02*
X105021499Y-87383501D01*
X86995000Y-86360000D02*
X88018501Y-87383501D01*
X124071499Y-87383501D02*
X125095000Y-86360000D01*
X107068501Y-87383501D02*
X124071499Y-87383501D01*
X106045000Y-86360000D02*
X107068501Y-87383501D01*
X143121499Y-87383501D02*
X144145000Y-86360000D01*
X126118501Y-87383501D02*
X143121499Y-87383501D01*
X125095000Y-86360000D02*
X126118501Y-87383501D01*
X162171499Y-87383501D02*
X163195000Y-86360000D01*
X145168501Y-87383501D02*
X162171499Y-87383501D01*
X144145000Y-86360000D02*
X145168501Y-87383501D01*
X181221499Y-87383501D02*
X182245000Y-86360000D01*
X164218501Y-87383501D02*
X181221499Y-87383501D01*
X163195000Y-86360000D02*
X164218501Y-87383501D01*
X200271499Y-87383501D02*
X201295000Y-86360000D01*
X183268501Y-87383501D02*
X200271499Y-87383501D01*
X182245000Y-86360000D02*
X183268501Y-87383501D01*
X219321499Y-87383501D02*
X220345000Y-86360000D01*
X202318501Y-87383501D02*
X219321499Y-87383501D01*
X201295000Y-86360000D02*
X202318501Y-87383501D01*
X42116187Y-86269949D02*
X42206238Y-86360000D01*
X37840875Y-86269949D02*
X42116187Y-86269949D01*
X42206238Y-86360000D02*
X48895000Y-86360000D01*
X37216199Y-86894625D02*
X37840875Y-86269949D01*
X37216199Y-88809949D02*
X37216199Y-86894625D01*
X38417500Y-90011250D02*
X37216199Y-88809949D01*
X73530000Y-86360000D02*
X75565000Y-86360000D01*
X92580000Y-86360000D02*
X94615000Y-86360000D01*
X220345000Y-88900000D02*
X222380000Y-88900000D01*
X203330000Y-88900000D02*
X201295000Y-88900000D01*
X182245000Y-88900000D02*
X184280000Y-88900000D01*
X163195000Y-88900000D02*
X165230000Y-88900000D01*
X146180000Y-88900000D02*
X144145000Y-88900000D01*
X125095000Y-88900000D02*
X127130000Y-88900000D01*
X106045000Y-88900000D02*
X108080000Y-88900000D01*
X86995000Y-88900000D02*
X89030000Y-88900000D01*
X67945000Y-88900000D02*
X69980000Y-88900000D01*
X48895000Y-88900000D02*
X50930000Y-88900000D01*
X85971499Y-89923501D02*
X86995000Y-88900000D01*
X68968501Y-89923501D02*
X85971499Y-89923501D01*
X67945000Y-88900000D02*
X68968501Y-89923501D01*
X105021499Y-89923501D02*
X106045000Y-88900000D01*
X88018501Y-89923501D02*
X105021499Y-89923501D01*
X86995000Y-88900000D02*
X88018501Y-89923501D01*
X124071499Y-89923501D02*
X125095000Y-88900000D01*
X107068501Y-89923501D02*
X124071499Y-89923501D01*
X106045000Y-88900000D02*
X107068501Y-89923501D01*
X143121499Y-89923501D02*
X144145000Y-88900000D01*
X126118501Y-89923501D02*
X143121499Y-89923501D01*
X125095000Y-88900000D02*
X126118501Y-89923501D01*
X162171499Y-89923501D02*
X163195000Y-88900000D01*
X145168501Y-89923501D02*
X162171499Y-89923501D01*
X144145000Y-88900000D02*
X145168501Y-89923501D01*
X181221499Y-89923501D02*
X182245000Y-88900000D01*
X164218501Y-89923501D02*
X181221499Y-89923501D01*
X163195000Y-88900000D02*
X164218501Y-89923501D01*
X200271499Y-89923501D02*
X201295000Y-88900000D01*
X183268501Y-89923501D02*
X200271499Y-89923501D01*
X182245000Y-88900000D02*
X183268501Y-89923501D01*
X219321499Y-89923501D02*
X220345000Y-88900000D01*
X202318501Y-89923501D02*
X219321499Y-89923501D01*
X201295000Y-88900000D02*
X202318501Y-89923501D01*
X66921499Y-89923501D02*
X67945000Y-88900000D01*
X49918501Y-89923501D02*
X66921499Y-89923501D01*
X48895000Y-88900000D02*
X49918501Y-89923501D01*
X48895000Y-88900000D02*
X46355000Y-88900000D01*
X46355000Y-88900000D02*
X46355000Y-88900000D01*
X38131898Y-92551250D02*
X38417500Y-92551250D01*
X36353824Y-90773176D02*
X38131898Y-92551250D01*
X46355000Y-88900000D02*
X46355000Y-88900000D01*
X111630000Y-86360000D02*
X113665000Y-86360000D01*
X130680000Y-86360000D02*
X132715000Y-86360000D01*
X149730000Y-86360000D02*
X151765000Y-86360000D01*
X42602750Y-74771250D02*
X42926000Y-74448000D01*
X38417500Y-74771250D02*
X42602750Y-74771250D01*
X42703750Y-85248750D02*
X42862500Y-85090000D01*
X38417500Y-87471250D02*
X38417500Y-87312500D01*
X42520751Y-91415751D02*
X45720000Y-94615000D01*
X41681749Y-91415751D02*
X42520751Y-91415751D01*
X39618801Y-89352803D02*
X41681749Y-91415751D01*
X45720000Y-94615000D02*
X48895000Y-94615000D01*
X39618801Y-88672551D02*
X39618801Y-89352803D01*
X38417500Y-87471250D02*
X39618801Y-88672551D01*
X36576000Y-89947676D02*
X36576000Y-86772750D01*
X37840875Y-91212551D02*
X36576000Y-89947676D01*
X39396551Y-91212551D02*
X37840875Y-91212551D01*
X41265999Y-93081999D02*
X39396551Y-91212551D01*
X41265999Y-93329001D02*
X41265999Y-93081999D01*
X41798999Y-93862001D02*
X41265999Y-93329001D01*
X42046001Y-93862001D02*
X41798999Y-93862001D01*
X47657901Y-99473901D02*
X42046001Y-93862001D01*
X57242101Y-99473901D02*
X47657901Y-99473901D01*
X62101002Y-94615000D02*
X57242101Y-99473901D01*
X36576000Y-86772750D02*
X38417500Y-84931250D01*
X67945000Y-94615000D02*
X62101002Y-94615000D01*
X81151002Y-75565000D02*
X86995000Y-75565000D01*
X73531002Y-83185000D02*
X81151002Y-75565000D01*
X39211250Y-83185000D02*
X73531002Y-83185000D01*
X38417500Y-82391250D02*
X39211250Y-83185000D01*
X170815000Y-86360000D02*
X168780000Y-86360000D01*
X187830000Y-86360000D02*
X189865000Y-86360000D01*
X206880000Y-86360000D02*
X208915000Y-86360000D01*
X225930000Y-86360000D02*
X227965000Y-86360000D01*
X56515000Y-88900000D02*
X54480000Y-88900000D01*
X73530000Y-88900000D02*
X75565000Y-88900000D01*
X92580000Y-88900000D02*
X94615000Y-88900000D01*
X111630000Y-88900000D02*
X113665000Y-88900000D01*
X132715000Y-88900000D02*
X130680000Y-88900000D01*
X151765000Y-88900000D02*
X149730000Y-88900000D01*
X168780000Y-88900000D02*
X170815000Y-88900000D01*
X189865000Y-88900000D02*
X187830000Y-88900000D01*
X208915000Y-88900000D02*
X206880000Y-88900000D01*
X225930000Y-88900000D02*
X227965000Y-88900000D01*
X104141411Y-94615000D02*
X104454010Y-94615000D01*
X98357400Y-100399011D02*
X104141411Y-94615000D01*
X42002430Y-95091250D02*
X47310191Y-100399011D01*
X47310191Y-100399011D02*
X98357400Y-100399011D01*
X104454010Y-94615000D02*
X106045000Y-94615000D01*
X38417500Y-95091250D02*
X42002430Y-95091250D01*
X123504010Y-94615000D02*
X125095000Y-94615000D01*
X43029721Y-96754951D02*
X47123792Y-100849022D01*
X39293799Y-96754951D02*
X43029721Y-96754951D01*
X38417500Y-97631250D02*
X39293799Y-96754951D01*
X98808822Y-100584000D02*
X117535010Y-100584000D01*
X47123792Y-100849022D02*
X98543800Y-100849022D01*
X117535010Y-100584000D02*
X123504010Y-94615000D01*
X98543800Y-100849022D02*
X98808822Y-100584000D01*
X136121461Y-101047549D02*
X142554010Y-94615000D01*
X98981684Y-101047549D02*
X136121461Y-101047549D01*
X142554010Y-94615000D02*
X144145000Y-94615000D01*
X98730200Y-101299033D02*
X98981684Y-101047549D01*
X39545283Y-101299033D02*
X98730200Y-101299033D01*
X38417500Y-100171250D02*
X39545283Y-101299033D01*
X154721451Y-101497559D02*
X161604010Y-94615000D01*
X99168084Y-101497560D02*
X154721451Y-101497559D01*
X161604010Y-94615000D02*
X163195000Y-94615000D01*
X29835294Y-101749044D02*
X98916600Y-101749044D01*
X98916600Y-101749044D02*
X99168084Y-101497560D01*
X23177500Y-95091250D02*
X29835294Y-101749044D01*
X180654010Y-94615000D02*
X182245000Y-94615000D01*
X99103000Y-102199055D02*
X99354486Y-101947569D01*
X29648894Y-102199055D02*
X99103000Y-102199055D01*
X29557839Y-102108000D02*
X29648894Y-102199055D01*
X21976199Y-100747875D02*
X23336324Y-102108000D01*
X21976199Y-93752551D02*
X21976199Y-100747875D01*
X99354486Y-101947569D02*
X173321442Y-101947568D01*
X23177500Y-92551250D02*
X21976199Y-93752551D01*
X173321442Y-101947568D02*
X180654010Y-94615000D01*
X23336324Y-102108000D02*
X29557839Y-102108000D01*
X201295000Y-78611002D02*
X201295000Y-75565000D01*
X26918801Y-83729949D02*
X196176053Y-83729949D01*
X196176053Y-83729949D02*
X201295000Y-78611002D01*
X23177500Y-87471250D02*
X26918801Y-83729949D01*
X41153588Y-93853000D02*
X41612599Y-94312012D01*
X98171000Y-99949000D02*
X107746489Y-90373511D01*
X27019250Y-93853000D02*
X41153588Y-93853000D01*
X47496590Y-99949000D02*
X98171000Y-99949000D01*
X216103511Y-90373511D02*
X220345000Y-94615000D01*
X107746489Y-90373511D02*
X216103511Y-90373511D01*
X23177500Y-90011250D02*
X27019250Y-93853000D01*
X41612599Y-94312012D02*
X41859602Y-94312012D01*
X41859602Y-94312012D02*
X47496590Y-99949000D01*
X42539250Y-77311250D02*
X42926000Y-77698000D01*
X38417500Y-77311250D02*
X42539250Y-77311250D01*
M02*
