G04 #@! TF.GenerationSoftware,KiCad,Pcbnew,5.1.12-1.fc33*
G04 #@! TF.CreationDate,2022-01-04T12:52:20-05:00*
G04 #@! TF.ProjectId,crisco,63726973-636f-42e6-9b69-6361645f7063,rev?*
G04 #@! TF.SameCoordinates,Original*
G04 #@! TF.FileFunction,Legend,Top*
G04 #@! TF.FilePolarity,Positive*
%FSLAX46Y46*%
G04 Gerber Fmt 4.6, Leading zero omitted, Abs format (unit mm)*
G04 Created by KiCad (PCBNEW 5.1.12-1.fc33) date 2022-01-04 12:52:20*
%MOMM*%
%LPD*%
G01*
G04 APERTURE LIST*
%ADD10C,0.300000*%
%ADD11C,0.150000*%
%ADD12C,0.120000*%
%ADD13C,0.381000*%
%ADD14C,0.203200*%
G04 APERTURE END LIST*
D10*
X219603571Y-105310714D02*
X219532142Y-105382142D01*
X219317857Y-105453571D01*
X219175000Y-105453571D01*
X218960714Y-105382142D01*
X218817857Y-105239285D01*
X218746428Y-105096428D01*
X218675000Y-104810714D01*
X218675000Y-104596428D01*
X218746428Y-104310714D01*
X218817857Y-104167857D01*
X218960714Y-104025000D01*
X219175000Y-103953571D01*
X219317857Y-103953571D01*
X219532142Y-104025000D01*
X219603571Y-104096428D01*
X221103571Y-105453571D02*
X220603571Y-104739285D01*
X220246428Y-105453571D02*
X220246428Y-103953571D01*
X220817857Y-103953571D01*
X220960714Y-104025000D01*
X221032142Y-104096428D01*
X221103571Y-104239285D01*
X221103571Y-104453571D01*
X221032142Y-104596428D01*
X220960714Y-104667857D01*
X220817857Y-104739285D01*
X220246428Y-104739285D01*
X221746428Y-105453571D02*
X221746428Y-103953571D01*
X222389285Y-105382142D02*
X222603571Y-105453571D01*
X222960714Y-105453571D01*
X223103571Y-105382142D01*
X223175000Y-105310714D01*
X223246428Y-105167857D01*
X223246428Y-105025000D01*
X223175000Y-104882142D01*
X223103571Y-104810714D01*
X222960714Y-104739285D01*
X222675000Y-104667857D01*
X222532142Y-104596428D01*
X222460714Y-104525000D01*
X222389285Y-104382142D01*
X222389285Y-104239285D01*
X222460714Y-104096428D01*
X222532142Y-104025000D01*
X222675000Y-103953571D01*
X223032142Y-103953571D01*
X223246428Y-104025000D01*
X224746428Y-105310714D02*
X224675000Y-105382142D01*
X224460714Y-105453571D01*
X224317857Y-105453571D01*
X224103571Y-105382142D01*
X223960714Y-105239285D01*
X223889285Y-105096428D01*
X223817857Y-104810714D01*
X223817857Y-104596428D01*
X223889285Y-104310714D01*
X223960714Y-104167857D01*
X224103571Y-104025000D01*
X224317857Y-103953571D01*
X224460714Y-103953571D01*
X224675000Y-104025000D01*
X224746428Y-104096428D01*
X225675000Y-103953571D02*
X225960714Y-103953571D01*
X226103571Y-104025000D01*
X226246428Y-104167857D01*
X226317857Y-104453571D01*
X226317857Y-104953571D01*
X226246428Y-105239285D01*
X226103571Y-105382142D01*
X225960714Y-105453571D01*
X225675000Y-105453571D01*
X225532142Y-105382142D01*
X225389285Y-105239285D01*
X225317857Y-104953571D01*
X225317857Y-104453571D01*
X225389285Y-104167857D01*
X225532142Y-104025000D01*
X225675000Y-103953571D01*
X227960714Y-104453571D02*
X228317857Y-105453571D01*
X228675000Y-104453571D01*
X229532142Y-103953571D02*
X229675000Y-103953571D01*
X229817857Y-104025000D01*
X229889285Y-104096428D01*
X229960714Y-104239285D01*
X230032142Y-104525000D01*
X230032142Y-104882142D01*
X229960714Y-105167857D01*
X229889285Y-105310714D01*
X229817857Y-105382142D01*
X229675000Y-105453571D01*
X229532142Y-105453571D01*
X229389285Y-105382142D01*
X229317857Y-105310714D01*
X229246428Y-105167857D01*
X229175000Y-104882142D01*
X229175000Y-104525000D01*
X229246428Y-104239285D01*
X229317857Y-104096428D01*
X229389285Y-104025000D01*
X229532142Y-103953571D01*
X230675000Y-105310714D02*
X230746428Y-105382142D01*
X230675000Y-105453571D01*
X230603571Y-105382142D01*
X230675000Y-105310714D01*
X230675000Y-105453571D01*
X232175000Y-105453571D02*
X231317857Y-105453571D01*
X231746428Y-105453571D02*
X231746428Y-103953571D01*
X231603571Y-104167857D01*
X231460714Y-104310714D01*
X231317857Y-104382142D01*
D11*
X112555000Y-87110000D02*
X112555000Y-85610000D01*
X107155000Y-87110000D02*
X112555000Y-87110000D01*
X107155000Y-85610000D02*
X107155000Y-87110000D01*
X112555000Y-85610000D02*
X107155000Y-85610000D01*
X109355000Y-85860000D02*
X109355000Y-86860000D01*
X110355000Y-86860000D02*
X109455000Y-86360000D01*
X110355000Y-85860000D02*
X110355000Y-86860000D01*
X109455000Y-86360000D02*
X110355000Y-85860000D01*
X55405000Y-87110000D02*
X55405000Y-85610000D01*
X50005000Y-87110000D02*
X55405000Y-87110000D01*
X50005000Y-85610000D02*
X50005000Y-87110000D01*
X55405000Y-85610000D02*
X50005000Y-85610000D01*
X52205000Y-85860000D02*
X52205000Y-86860000D01*
X53205000Y-86860000D02*
X52305000Y-86360000D01*
X53205000Y-85860000D02*
X53205000Y-86860000D01*
X52305000Y-86360000D02*
X53205000Y-85860000D01*
X74455000Y-87110000D02*
X74455000Y-85610000D01*
X69055000Y-87110000D02*
X74455000Y-87110000D01*
X69055000Y-85610000D02*
X69055000Y-87110000D01*
X74455000Y-85610000D02*
X69055000Y-85610000D01*
X71255000Y-85860000D02*
X71255000Y-86860000D01*
X72255000Y-86860000D02*
X71355000Y-86360000D01*
X72255000Y-85860000D02*
X72255000Y-86860000D01*
X71355000Y-86360000D02*
X72255000Y-85860000D01*
X93505000Y-87110000D02*
X93505000Y-85610000D01*
X88105000Y-87110000D02*
X93505000Y-87110000D01*
X88105000Y-85610000D02*
X88105000Y-87110000D01*
X93505000Y-85610000D02*
X88105000Y-85610000D01*
X90305000Y-85860000D02*
X90305000Y-86860000D01*
X91305000Y-86860000D02*
X90405000Y-86360000D01*
X91305000Y-85860000D02*
X91305000Y-86860000D01*
X90405000Y-86360000D02*
X91305000Y-85860000D01*
X55405000Y-89650000D02*
X55405000Y-88150000D01*
X50005000Y-89650000D02*
X55405000Y-89650000D01*
X50005000Y-88150000D02*
X50005000Y-89650000D01*
X55405000Y-88150000D02*
X50005000Y-88150000D01*
X52205000Y-88400000D02*
X52205000Y-89400000D01*
X53205000Y-89400000D02*
X52305000Y-88900000D01*
X53205000Y-88400000D02*
X53205000Y-89400000D01*
X52305000Y-88900000D02*
X53205000Y-88400000D01*
X74455000Y-89650000D02*
X74455000Y-88150000D01*
X69055000Y-89650000D02*
X74455000Y-89650000D01*
X69055000Y-88150000D02*
X69055000Y-89650000D01*
X74455000Y-88150000D02*
X69055000Y-88150000D01*
X71255000Y-88400000D02*
X71255000Y-89400000D01*
X72255000Y-89400000D02*
X71355000Y-88900000D01*
X72255000Y-88400000D02*
X72255000Y-89400000D01*
X71355000Y-88900000D02*
X72255000Y-88400000D01*
X93505000Y-89650000D02*
X93505000Y-88150000D01*
X88105000Y-89650000D02*
X93505000Y-89650000D01*
X88105000Y-88150000D02*
X88105000Y-89650000D01*
X93505000Y-88150000D02*
X88105000Y-88150000D01*
X90305000Y-88400000D02*
X90305000Y-89400000D01*
X91305000Y-89400000D02*
X90405000Y-88900000D01*
X91305000Y-88400000D02*
X91305000Y-89400000D01*
X90405000Y-88900000D02*
X91305000Y-88400000D01*
X112555000Y-89650000D02*
X112555000Y-88150000D01*
X107155000Y-89650000D02*
X112555000Y-89650000D01*
X107155000Y-88150000D02*
X107155000Y-89650000D01*
X112555000Y-88150000D02*
X107155000Y-88150000D01*
X109355000Y-88400000D02*
X109355000Y-89400000D01*
X110355000Y-89400000D02*
X109455000Y-88900000D01*
X110355000Y-88400000D02*
X110355000Y-89400000D01*
X109455000Y-88900000D02*
X110355000Y-88400000D01*
X226855000Y-87110000D02*
X226855000Y-85610000D01*
X221455000Y-87110000D02*
X226855000Y-87110000D01*
X221455000Y-85610000D02*
X221455000Y-87110000D01*
X226855000Y-85610000D02*
X221455000Y-85610000D01*
X223655000Y-85860000D02*
X223655000Y-86860000D01*
X224655000Y-86860000D02*
X223755000Y-86360000D01*
X224655000Y-85860000D02*
X224655000Y-86860000D01*
X223755000Y-86360000D02*
X224655000Y-85860000D01*
X226855000Y-89650000D02*
X226855000Y-88150000D01*
X221455000Y-89650000D02*
X226855000Y-89650000D01*
X221455000Y-88150000D02*
X221455000Y-89650000D01*
X226855000Y-88150000D02*
X221455000Y-88150000D01*
X223655000Y-88400000D02*
X223655000Y-89400000D01*
X224655000Y-89400000D02*
X223755000Y-88900000D01*
X224655000Y-88400000D02*
X224655000Y-89400000D01*
X223755000Y-88900000D02*
X224655000Y-88400000D01*
X207805000Y-89650000D02*
X207805000Y-88150000D01*
X202405000Y-89650000D02*
X207805000Y-89650000D01*
X202405000Y-88150000D02*
X202405000Y-89650000D01*
X207805000Y-88150000D02*
X202405000Y-88150000D01*
X204605000Y-88400000D02*
X204605000Y-89400000D01*
X205605000Y-89400000D02*
X204705000Y-88900000D01*
X205605000Y-88400000D02*
X205605000Y-89400000D01*
X204705000Y-88900000D02*
X205605000Y-88400000D01*
X188755000Y-89650000D02*
X188755000Y-88150000D01*
X183355000Y-89650000D02*
X188755000Y-89650000D01*
X183355000Y-88150000D02*
X183355000Y-89650000D01*
X188755000Y-88150000D02*
X183355000Y-88150000D01*
X185555000Y-88400000D02*
X185555000Y-89400000D01*
X186555000Y-89400000D02*
X185655000Y-88900000D01*
X186555000Y-88400000D02*
X186555000Y-89400000D01*
X185655000Y-88900000D02*
X186555000Y-88400000D01*
X169705000Y-89650000D02*
X169705000Y-88150000D01*
X164305000Y-89650000D02*
X169705000Y-89650000D01*
X164305000Y-88150000D02*
X164305000Y-89650000D01*
X169705000Y-88150000D02*
X164305000Y-88150000D01*
X166505000Y-88400000D02*
X166505000Y-89400000D01*
X167505000Y-89400000D02*
X166605000Y-88900000D01*
X167505000Y-88400000D02*
X167505000Y-89400000D01*
X166605000Y-88900000D02*
X167505000Y-88400000D01*
X150655000Y-89650000D02*
X150655000Y-88150000D01*
X145255000Y-89650000D02*
X150655000Y-89650000D01*
X145255000Y-88150000D02*
X145255000Y-89650000D01*
X150655000Y-88150000D02*
X145255000Y-88150000D01*
X147455000Y-88400000D02*
X147455000Y-89400000D01*
X148455000Y-89400000D02*
X147555000Y-88900000D01*
X148455000Y-88400000D02*
X148455000Y-89400000D01*
X147555000Y-88900000D02*
X148455000Y-88400000D01*
X131605000Y-89650000D02*
X131605000Y-88150000D01*
X126205000Y-89650000D02*
X131605000Y-89650000D01*
X126205000Y-88150000D02*
X126205000Y-89650000D01*
X131605000Y-88150000D02*
X126205000Y-88150000D01*
X128405000Y-88400000D02*
X128405000Y-89400000D01*
X129405000Y-89400000D02*
X128505000Y-88900000D01*
X129405000Y-88400000D02*
X129405000Y-89400000D01*
X128505000Y-88900000D02*
X129405000Y-88400000D01*
X207805000Y-87110000D02*
X207805000Y-85610000D01*
X202405000Y-87110000D02*
X207805000Y-87110000D01*
X202405000Y-85610000D02*
X202405000Y-87110000D01*
X207805000Y-85610000D02*
X202405000Y-85610000D01*
X204605000Y-85860000D02*
X204605000Y-86860000D01*
X205605000Y-86860000D02*
X204705000Y-86360000D01*
X205605000Y-85860000D02*
X205605000Y-86860000D01*
X204705000Y-86360000D02*
X205605000Y-85860000D01*
X188755000Y-87110000D02*
X188755000Y-85610000D01*
X183355000Y-87110000D02*
X188755000Y-87110000D01*
X183355000Y-85610000D02*
X183355000Y-87110000D01*
X188755000Y-85610000D02*
X183355000Y-85610000D01*
X185555000Y-85860000D02*
X185555000Y-86860000D01*
X186555000Y-86860000D02*
X185655000Y-86360000D01*
X186555000Y-85860000D02*
X186555000Y-86860000D01*
X185655000Y-86360000D02*
X186555000Y-85860000D01*
X169705000Y-87110000D02*
X169705000Y-85610000D01*
X164305000Y-87110000D02*
X169705000Y-87110000D01*
X164305000Y-85610000D02*
X164305000Y-87110000D01*
X169705000Y-85610000D02*
X164305000Y-85610000D01*
X166505000Y-85860000D02*
X166505000Y-86860000D01*
X167505000Y-86860000D02*
X166605000Y-86360000D01*
X167505000Y-85860000D02*
X167505000Y-86860000D01*
X166605000Y-86360000D02*
X167505000Y-85860000D01*
X150655000Y-87110000D02*
X150655000Y-85610000D01*
X145255000Y-87110000D02*
X150655000Y-87110000D01*
X145255000Y-85610000D02*
X145255000Y-87110000D01*
X150655000Y-85610000D02*
X145255000Y-85610000D01*
X147455000Y-85860000D02*
X147455000Y-86860000D01*
X148455000Y-86860000D02*
X147555000Y-86360000D01*
X148455000Y-85860000D02*
X148455000Y-86860000D01*
X147555000Y-86360000D02*
X148455000Y-85860000D01*
X131605000Y-87110000D02*
X131605000Y-85610000D01*
X126205000Y-87110000D02*
X131605000Y-87110000D01*
X126205000Y-85610000D02*
X126205000Y-87110000D01*
X131605000Y-85610000D02*
X126205000Y-85610000D01*
X128405000Y-85860000D02*
X128405000Y-86860000D01*
X129405000Y-86860000D02*
X128505000Y-86360000D01*
X129405000Y-85860000D02*
X129405000Y-86860000D01*
X128505000Y-86360000D02*
X129405000Y-85860000D01*
D12*
X25975000Y-102810000D02*
X25975000Y-105470000D01*
X33655000Y-102810000D02*
X25975000Y-102810000D01*
X33655000Y-105470000D02*
X25975000Y-105470000D01*
X33655000Y-102810000D02*
X33655000Y-105470000D01*
X34925000Y-102810000D02*
X36255000Y-102810000D01*
X36255000Y-102810000D02*
X36255000Y-104140000D01*
D13*
X39687500Y-70961250D02*
X21907500Y-70961250D01*
X21907500Y-70961250D02*
X21907500Y-101441250D01*
X21907500Y-101441250D02*
X39687500Y-101441250D01*
X39687500Y-101441250D02*
X39687500Y-70961250D01*
X24447500Y-70961250D02*
X24447500Y-73501250D01*
X24447500Y-73501250D02*
X21907500Y-73501250D01*
D11*
X36707380Y-104473333D02*
X37421666Y-104473333D01*
X37564523Y-104520952D01*
X37659761Y-104616190D01*
X37707380Y-104759047D01*
X37707380Y-104854285D01*
X36802619Y-104044761D02*
X36755000Y-103997142D01*
X36707380Y-103901904D01*
X36707380Y-103663809D01*
X36755000Y-103568571D01*
X36802619Y-103520952D01*
X36897857Y-103473333D01*
X36993095Y-103473333D01*
X37135952Y-103520952D01*
X37707380Y-104092380D01*
X37707380Y-103473333D01*
D14*
X29784523Y-87521142D02*
X30812619Y-87521142D01*
X30933571Y-87448571D01*
X30994047Y-87376000D01*
X31054523Y-87230857D01*
X31054523Y-86940571D01*
X30994047Y-86795428D01*
X30933571Y-86722857D01*
X30812619Y-86650285D01*
X29784523Y-86650285D01*
X31054523Y-85126285D02*
X31054523Y-85997142D01*
X31054523Y-85561714D02*
X29784523Y-85561714D01*
X29965952Y-85706857D01*
X30086904Y-85852000D01*
X30147380Y-85997142D01*
D11*
X34707023Y-72753630D02*
X34373690Y-72277440D01*
X34135595Y-72753630D02*
X34135595Y-71753630D01*
X34516547Y-71753630D01*
X34611785Y-71801250D01*
X34659404Y-71848869D01*
X34707023Y-71944107D01*
X34707023Y-72086964D01*
X34659404Y-72182202D01*
X34611785Y-72229821D01*
X34516547Y-72277440D01*
X34135595Y-72277440D01*
X35087976Y-72467916D02*
X35564166Y-72467916D01*
X34992738Y-72753630D02*
X35326071Y-71753630D01*
X35659404Y-72753630D01*
X35897500Y-71753630D02*
X36135595Y-72753630D01*
X36326071Y-72039345D01*
X36516547Y-72753630D01*
X36754642Y-71753630D01*
X25059404Y-71753630D02*
X25630833Y-71753630D01*
X25345119Y-72753630D02*
X25345119Y-71753630D01*
X25868928Y-71753630D02*
X26535595Y-72753630D01*
X26535595Y-71753630D02*
X25868928Y-72753630D01*
X27107023Y-71753630D02*
X27202261Y-71753630D01*
X27297500Y-71801250D01*
X27345119Y-71848869D01*
X27392738Y-71944107D01*
X27440357Y-72134583D01*
X27440357Y-72372678D01*
X27392738Y-72563154D01*
X27345119Y-72658392D01*
X27297500Y-72706011D01*
X27202261Y-72753630D01*
X27107023Y-72753630D01*
X27011785Y-72706011D01*
X26964166Y-72658392D01*
X26916547Y-72563154D01*
X26868928Y-72372678D01*
X26868928Y-72134583D01*
X26916547Y-71944107D01*
X26964166Y-71848869D01*
X27011785Y-71801250D01*
X27107023Y-71753630D01*
M02*
