G04 #@! TF.GenerationSoftware,KiCad,Pcbnew,5.1.12-1.fc33*
G04 #@! TF.CreationDate,2022-01-04T19:58:38-05:00*
G04 #@! TF.ProjectId,crisco,63726973-636f-42e6-9b69-6361645f7063,rev?*
G04 #@! TF.SameCoordinates,Original*
G04 #@! TF.FileFunction,Copper,L2,Bot*
G04 #@! TF.FilePolarity,Positive*
%FSLAX46Y46*%
G04 Gerber Fmt 4.6, Leading zero omitted, Abs format (unit mm)*
G04 Created by KiCad (PCBNEW 5.1.12-1.fc33) date 2022-01-04 19:58:38*
%MOMM*%
%LPD*%
G01*
G04 APERTURE LIST*
G04 #@! TA.AperFunction,ComponentPad*
%ADD10C,2.250000*%
G04 #@! TD*
G04 #@! TA.AperFunction,ComponentPad*
%ADD11O,1.700000X1.700000*%
G04 #@! TD*
G04 #@! TA.AperFunction,ComponentPad*
%ADD12R,1.700000X1.700000*%
G04 #@! TD*
G04 #@! TA.AperFunction,ComponentPad*
%ADD13R,1.397000X1.397000*%
G04 #@! TD*
G04 #@! TA.AperFunction,ComponentPad*
%ADD14C,1.397000*%
G04 #@! TD*
G04 #@! TA.AperFunction,ComponentPad*
%ADD15R,1.752600X1.752600*%
G04 #@! TD*
G04 #@! TA.AperFunction,ComponentPad*
%ADD16C,1.752600*%
G04 #@! TD*
G04 #@! TA.AperFunction,ViaPad*
%ADD17C,0.800000*%
G04 #@! TD*
G04 #@! TA.AperFunction,Conductor*
%ADD18C,0.250000*%
G04 #@! TD*
G04 #@! TA.AperFunction,Conductor*
%ADD19C,0.500000*%
G04 #@! TD*
G04 APERTURE END LIST*
D10*
X221655000Y-93155000D03*
G04 #@! TA.AperFunction,ComponentPad*
G36*
G01*
X219593688Y-95452350D02*
X219593683Y-95452345D01*
G75*
G02*
X219507655Y-93863683I751317J837345D01*
G01*
X220817657Y-92403683D01*
G75*
G02*
X222406319Y-92317655I837345J-751317D01*
G01*
X222406319Y-92317655D01*
G75*
G02*
X222492347Y-93906317I-751317J-837345D01*
G01*
X221182345Y-95366317D01*
G75*
G02*
X219593683Y-95452345I-837345J751317D01*
G01*
G37*
G04 #@! TD.AperFunction*
X226695000Y-92075000D03*
G04 #@! TA.AperFunction,ComponentPad*
G36*
G01*
X226578483Y-93777395D02*
X226577597Y-93777334D01*
G75*
G02*
X225532666Y-92577597I77403J1122334D01*
G01*
X225572666Y-91997597D01*
G75*
G02*
X226772403Y-90952666I1122334J-77403D01*
G01*
X226772403Y-90952666D01*
G75*
G02*
X227817334Y-92152403I-77403J-1122334D01*
G01*
X227777334Y-92732403D01*
G75*
G02*
X226577597Y-93777334I-1122334J77403D01*
G01*
G37*
G04 #@! TD.AperFunction*
X202605000Y-93155000D03*
G04 #@! TA.AperFunction,ComponentPad*
G36*
G01*
X200543688Y-95452350D02*
X200543683Y-95452345D01*
G75*
G02*
X200457655Y-93863683I751317J837345D01*
G01*
X201767657Y-92403683D01*
G75*
G02*
X203356319Y-92317655I837345J-751317D01*
G01*
X203356319Y-92317655D01*
G75*
G02*
X203442347Y-93906317I-751317J-837345D01*
G01*
X202132345Y-95366317D01*
G75*
G02*
X200543683Y-95452345I-837345J751317D01*
G01*
G37*
G04 #@! TD.AperFunction*
X207645000Y-92075000D03*
G04 #@! TA.AperFunction,ComponentPad*
G36*
G01*
X207528483Y-93777395D02*
X207527597Y-93777334D01*
G75*
G02*
X206482666Y-92577597I77403J1122334D01*
G01*
X206522666Y-91997597D01*
G75*
G02*
X207722403Y-90952666I1122334J-77403D01*
G01*
X207722403Y-90952666D01*
G75*
G02*
X208767334Y-92152403I-77403J-1122334D01*
G01*
X208727334Y-92732403D01*
G75*
G02*
X207527597Y-93777334I-1122334J77403D01*
G01*
G37*
G04 #@! TD.AperFunction*
X183555000Y-93155000D03*
G04 #@! TA.AperFunction,ComponentPad*
G36*
G01*
X181493688Y-95452350D02*
X181493683Y-95452345D01*
G75*
G02*
X181407655Y-93863683I751317J837345D01*
G01*
X182717657Y-92403683D01*
G75*
G02*
X184306319Y-92317655I837345J-751317D01*
G01*
X184306319Y-92317655D01*
G75*
G02*
X184392347Y-93906317I-751317J-837345D01*
G01*
X183082345Y-95366317D01*
G75*
G02*
X181493683Y-95452345I-837345J751317D01*
G01*
G37*
G04 #@! TD.AperFunction*
X188595000Y-92075000D03*
G04 #@! TA.AperFunction,ComponentPad*
G36*
G01*
X188478483Y-93777395D02*
X188477597Y-93777334D01*
G75*
G02*
X187432666Y-92577597I77403J1122334D01*
G01*
X187472666Y-91997597D01*
G75*
G02*
X188672403Y-90952666I1122334J-77403D01*
G01*
X188672403Y-90952666D01*
G75*
G02*
X189717334Y-92152403I-77403J-1122334D01*
G01*
X189677334Y-92732403D01*
G75*
G02*
X188477597Y-93777334I-1122334J77403D01*
G01*
G37*
G04 #@! TD.AperFunction*
X164505000Y-93155000D03*
G04 #@! TA.AperFunction,ComponentPad*
G36*
G01*
X162443688Y-95452350D02*
X162443683Y-95452345D01*
G75*
G02*
X162357655Y-93863683I751317J837345D01*
G01*
X163667657Y-92403683D01*
G75*
G02*
X165256319Y-92317655I837345J-751317D01*
G01*
X165256319Y-92317655D01*
G75*
G02*
X165342347Y-93906317I-751317J-837345D01*
G01*
X164032345Y-95366317D01*
G75*
G02*
X162443683Y-95452345I-837345J751317D01*
G01*
G37*
G04 #@! TD.AperFunction*
X169545000Y-92075000D03*
G04 #@! TA.AperFunction,ComponentPad*
G36*
G01*
X169428483Y-93777395D02*
X169427597Y-93777334D01*
G75*
G02*
X168382666Y-92577597I77403J1122334D01*
G01*
X168422666Y-91997597D01*
G75*
G02*
X169622403Y-90952666I1122334J-77403D01*
G01*
X169622403Y-90952666D01*
G75*
G02*
X170667334Y-92152403I-77403J-1122334D01*
G01*
X170627334Y-92732403D01*
G75*
G02*
X169427597Y-93777334I-1122334J77403D01*
G01*
G37*
G04 #@! TD.AperFunction*
X145455000Y-93155000D03*
G04 #@! TA.AperFunction,ComponentPad*
G36*
G01*
X143393688Y-95452350D02*
X143393683Y-95452345D01*
G75*
G02*
X143307655Y-93863683I751317J837345D01*
G01*
X144617657Y-92403683D01*
G75*
G02*
X146206319Y-92317655I837345J-751317D01*
G01*
X146206319Y-92317655D01*
G75*
G02*
X146292347Y-93906317I-751317J-837345D01*
G01*
X144982345Y-95366317D01*
G75*
G02*
X143393683Y-95452345I-837345J751317D01*
G01*
G37*
G04 #@! TD.AperFunction*
X150495000Y-92075000D03*
G04 #@! TA.AperFunction,ComponentPad*
G36*
G01*
X150378483Y-93777395D02*
X150377597Y-93777334D01*
G75*
G02*
X149332666Y-92577597I77403J1122334D01*
G01*
X149372666Y-91997597D01*
G75*
G02*
X150572403Y-90952666I1122334J-77403D01*
G01*
X150572403Y-90952666D01*
G75*
G02*
X151617334Y-92152403I-77403J-1122334D01*
G01*
X151577334Y-92732403D01*
G75*
G02*
X150377597Y-93777334I-1122334J77403D01*
G01*
G37*
G04 #@! TD.AperFunction*
X126405000Y-93155000D03*
G04 #@! TA.AperFunction,ComponentPad*
G36*
G01*
X124343688Y-95452350D02*
X124343683Y-95452345D01*
G75*
G02*
X124257655Y-93863683I751317J837345D01*
G01*
X125567657Y-92403683D01*
G75*
G02*
X127156319Y-92317655I837345J-751317D01*
G01*
X127156319Y-92317655D01*
G75*
G02*
X127242347Y-93906317I-751317J-837345D01*
G01*
X125932345Y-95366317D01*
G75*
G02*
X124343683Y-95452345I-837345J751317D01*
G01*
G37*
G04 #@! TD.AperFunction*
X131445000Y-92075000D03*
G04 #@! TA.AperFunction,ComponentPad*
G36*
G01*
X131328483Y-93777395D02*
X131327597Y-93777334D01*
G75*
G02*
X130282666Y-92577597I77403J1122334D01*
G01*
X130322666Y-91997597D01*
G75*
G02*
X131522403Y-90952666I1122334J-77403D01*
G01*
X131522403Y-90952666D01*
G75*
G02*
X132567334Y-92152403I-77403J-1122334D01*
G01*
X132527334Y-92732403D01*
G75*
G02*
X131327597Y-93777334I-1122334J77403D01*
G01*
G37*
G04 #@! TD.AperFunction*
X107355000Y-93155000D03*
G04 #@! TA.AperFunction,ComponentPad*
G36*
G01*
X105293688Y-95452350D02*
X105293683Y-95452345D01*
G75*
G02*
X105207655Y-93863683I751317J837345D01*
G01*
X106517657Y-92403683D01*
G75*
G02*
X108106319Y-92317655I837345J-751317D01*
G01*
X108106319Y-92317655D01*
G75*
G02*
X108192347Y-93906317I-751317J-837345D01*
G01*
X106882345Y-95366317D01*
G75*
G02*
X105293683Y-95452345I-837345J751317D01*
G01*
G37*
G04 #@! TD.AperFunction*
X112395000Y-92075000D03*
G04 #@! TA.AperFunction,ComponentPad*
G36*
G01*
X112278483Y-93777395D02*
X112277597Y-93777334D01*
G75*
G02*
X111232666Y-92577597I77403J1122334D01*
G01*
X111272666Y-91997597D01*
G75*
G02*
X112472403Y-90952666I1122334J-77403D01*
G01*
X112472403Y-90952666D01*
G75*
G02*
X113517334Y-92152403I-77403J-1122334D01*
G01*
X113477334Y-92732403D01*
G75*
G02*
X112277597Y-93777334I-1122334J77403D01*
G01*
G37*
G04 #@! TD.AperFunction*
X88305000Y-93155000D03*
G04 #@! TA.AperFunction,ComponentPad*
G36*
G01*
X86243688Y-95452350D02*
X86243683Y-95452345D01*
G75*
G02*
X86157655Y-93863683I751317J837345D01*
G01*
X87467657Y-92403683D01*
G75*
G02*
X89056319Y-92317655I837345J-751317D01*
G01*
X89056319Y-92317655D01*
G75*
G02*
X89142347Y-93906317I-751317J-837345D01*
G01*
X87832345Y-95366317D01*
G75*
G02*
X86243683Y-95452345I-837345J751317D01*
G01*
G37*
G04 #@! TD.AperFunction*
X93345000Y-92075000D03*
G04 #@! TA.AperFunction,ComponentPad*
G36*
G01*
X93228483Y-93777395D02*
X93227597Y-93777334D01*
G75*
G02*
X92182666Y-92577597I77403J1122334D01*
G01*
X92222666Y-91997597D01*
G75*
G02*
X93422403Y-90952666I1122334J-77403D01*
G01*
X93422403Y-90952666D01*
G75*
G02*
X94467334Y-92152403I-77403J-1122334D01*
G01*
X94427334Y-92732403D01*
G75*
G02*
X93227597Y-93777334I-1122334J77403D01*
G01*
G37*
G04 #@! TD.AperFunction*
X69255000Y-93155000D03*
G04 #@! TA.AperFunction,ComponentPad*
G36*
G01*
X67193688Y-95452350D02*
X67193683Y-95452345D01*
G75*
G02*
X67107655Y-93863683I751317J837345D01*
G01*
X68417657Y-92403683D01*
G75*
G02*
X70006319Y-92317655I837345J-751317D01*
G01*
X70006319Y-92317655D01*
G75*
G02*
X70092347Y-93906317I-751317J-837345D01*
G01*
X68782345Y-95366317D01*
G75*
G02*
X67193683Y-95452345I-837345J751317D01*
G01*
G37*
G04 #@! TD.AperFunction*
X74295000Y-92075000D03*
G04 #@! TA.AperFunction,ComponentPad*
G36*
G01*
X74178483Y-93777395D02*
X74177597Y-93777334D01*
G75*
G02*
X73132666Y-92577597I77403J1122334D01*
G01*
X73172666Y-91997597D01*
G75*
G02*
X74372403Y-90952666I1122334J-77403D01*
G01*
X74372403Y-90952666D01*
G75*
G02*
X75417334Y-92152403I-77403J-1122334D01*
G01*
X75377334Y-92732403D01*
G75*
G02*
X74177597Y-93777334I-1122334J77403D01*
G01*
G37*
G04 #@! TD.AperFunction*
X50205000Y-93155000D03*
G04 #@! TA.AperFunction,ComponentPad*
G36*
G01*
X48143688Y-95452350D02*
X48143683Y-95452345D01*
G75*
G02*
X48057655Y-93863683I751317J837345D01*
G01*
X49367657Y-92403683D01*
G75*
G02*
X50956319Y-92317655I837345J-751317D01*
G01*
X50956319Y-92317655D01*
G75*
G02*
X51042347Y-93906317I-751317J-837345D01*
G01*
X49732345Y-95366317D01*
G75*
G02*
X48143683Y-95452345I-837345J751317D01*
G01*
G37*
G04 #@! TD.AperFunction*
X55245000Y-92075000D03*
G04 #@! TA.AperFunction,ComponentPad*
G36*
G01*
X55128483Y-93777395D02*
X55127597Y-93777334D01*
G75*
G02*
X54082666Y-92577597I77403J1122334D01*
G01*
X54122666Y-91997597D01*
G75*
G02*
X55322403Y-90952666I1122334J-77403D01*
G01*
X55322403Y-90952666D01*
G75*
G02*
X56367334Y-92152403I-77403J-1122334D01*
G01*
X56327334Y-92732403D01*
G75*
G02*
X55127597Y-93777334I-1122334J77403D01*
G01*
G37*
G04 #@! TD.AperFunction*
X221655000Y-74105000D03*
G04 #@! TA.AperFunction,ComponentPad*
G36*
G01*
X219593688Y-76402350D02*
X219593683Y-76402345D01*
G75*
G02*
X219507655Y-74813683I751317J837345D01*
G01*
X220817657Y-73353683D01*
G75*
G02*
X222406319Y-73267655I837345J-751317D01*
G01*
X222406319Y-73267655D01*
G75*
G02*
X222492347Y-74856317I-751317J-837345D01*
G01*
X221182345Y-76316317D01*
G75*
G02*
X219593683Y-76402345I-837345J751317D01*
G01*
G37*
G04 #@! TD.AperFunction*
X226695000Y-73025000D03*
G04 #@! TA.AperFunction,ComponentPad*
G36*
G01*
X226578483Y-74727395D02*
X226577597Y-74727334D01*
G75*
G02*
X225532666Y-73527597I77403J1122334D01*
G01*
X225572666Y-72947597D01*
G75*
G02*
X226772403Y-71902666I1122334J-77403D01*
G01*
X226772403Y-71902666D01*
G75*
G02*
X227817334Y-73102403I-77403J-1122334D01*
G01*
X227777334Y-73682403D01*
G75*
G02*
X226577597Y-74727334I-1122334J77403D01*
G01*
G37*
G04 #@! TD.AperFunction*
X202605000Y-74105000D03*
G04 #@! TA.AperFunction,ComponentPad*
G36*
G01*
X200543688Y-76402350D02*
X200543683Y-76402345D01*
G75*
G02*
X200457655Y-74813683I751317J837345D01*
G01*
X201767657Y-73353683D01*
G75*
G02*
X203356319Y-73267655I837345J-751317D01*
G01*
X203356319Y-73267655D01*
G75*
G02*
X203442347Y-74856317I-751317J-837345D01*
G01*
X202132345Y-76316317D01*
G75*
G02*
X200543683Y-76402345I-837345J751317D01*
G01*
G37*
G04 #@! TD.AperFunction*
X207645000Y-73025000D03*
G04 #@! TA.AperFunction,ComponentPad*
G36*
G01*
X207528483Y-74727395D02*
X207527597Y-74727334D01*
G75*
G02*
X206482666Y-73527597I77403J1122334D01*
G01*
X206522666Y-72947597D01*
G75*
G02*
X207722403Y-71902666I1122334J-77403D01*
G01*
X207722403Y-71902666D01*
G75*
G02*
X208767334Y-73102403I-77403J-1122334D01*
G01*
X208727334Y-73682403D01*
G75*
G02*
X207527597Y-74727334I-1122334J77403D01*
G01*
G37*
G04 #@! TD.AperFunction*
X183555000Y-74105000D03*
G04 #@! TA.AperFunction,ComponentPad*
G36*
G01*
X181493688Y-76402350D02*
X181493683Y-76402345D01*
G75*
G02*
X181407655Y-74813683I751317J837345D01*
G01*
X182717657Y-73353683D01*
G75*
G02*
X184306319Y-73267655I837345J-751317D01*
G01*
X184306319Y-73267655D01*
G75*
G02*
X184392347Y-74856317I-751317J-837345D01*
G01*
X183082345Y-76316317D01*
G75*
G02*
X181493683Y-76402345I-837345J751317D01*
G01*
G37*
G04 #@! TD.AperFunction*
X188595000Y-73025000D03*
G04 #@! TA.AperFunction,ComponentPad*
G36*
G01*
X188478483Y-74727395D02*
X188477597Y-74727334D01*
G75*
G02*
X187432666Y-73527597I77403J1122334D01*
G01*
X187472666Y-72947597D01*
G75*
G02*
X188672403Y-71902666I1122334J-77403D01*
G01*
X188672403Y-71902666D01*
G75*
G02*
X189717334Y-73102403I-77403J-1122334D01*
G01*
X189677334Y-73682403D01*
G75*
G02*
X188477597Y-74727334I-1122334J77403D01*
G01*
G37*
G04 #@! TD.AperFunction*
X164505000Y-74105000D03*
G04 #@! TA.AperFunction,ComponentPad*
G36*
G01*
X162443688Y-76402350D02*
X162443683Y-76402345D01*
G75*
G02*
X162357655Y-74813683I751317J837345D01*
G01*
X163667657Y-73353683D01*
G75*
G02*
X165256319Y-73267655I837345J-751317D01*
G01*
X165256319Y-73267655D01*
G75*
G02*
X165342347Y-74856317I-751317J-837345D01*
G01*
X164032345Y-76316317D01*
G75*
G02*
X162443683Y-76402345I-837345J751317D01*
G01*
G37*
G04 #@! TD.AperFunction*
X169545000Y-73025000D03*
G04 #@! TA.AperFunction,ComponentPad*
G36*
G01*
X169428483Y-74727395D02*
X169427597Y-74727334D01*
G75*
G02*
X168382666Y-73527597I77403J1122334D01*
G01*
X168422666Y-72947597D01*
G75*
G02*
X169622403Y-71902666I1122334J-77403D01*
G01*
X169622403Y-71902666D01*
G75*
G02*
X170667334Y-73102403I-77403J-1122334D01*
G01*
X170627334Y-73682403D01*
G75*
G02*
X169427597Y-74727334I-1122334J77403D01*
G01*
G37*
G04 #@! TD.AperFunction*
X145455000Y-74105000D03*
G04 #@! TA.AperFunction,ComponentPad*
G36*
G01*
X143393688Y-76402350D02*
X143393683Y-76402345D01*
G75*
G02*
X143307655Y-74813683I751317J837345D01*
G01*
X144617657Y-73353683D01*
G75*
G02*
X146206319Y-73267655I837345J-751317D01*
G01*
X146206319Y-73267655D01*
G75*
G02*
X146292347Y-74856317I-751317J-837345D01*
G01*
X144982345Y-76316317D01*
G75*
G02*
X143393683Y-76402345I-837345J751317D01*
G01*
G37*
G04 #@! TD.AperFunction*
X150495000Y-73025000D03*
G04 #@! TA.AperFunction,ComponentPad*
G36*
G01*
X150378483Y-74727395D02*
X150377597Y-74727334D01*
G75*
G02*
X149332666Y-73527597I77403J1122334D01*
G01*
X149372666Y-72947597D01*
G75*
G02*
X150572403Y-71902666I1122334J-77403D01*
G01*
X150572403Y-71902666D01*
G75*
G02*
X151617334Y-73102403I-77403J-1122334D01*
G01*
X151577334Y-73682403D01*
G75*
G02*
X150377597Y-74727334I-1122334J77403D01*
G01*
G37*
G04 #@! TD.AperFunction*
X126405000Y-74105000D03*
G04 #@! TA.AperFunction,ComponentPad*
G36*
G01*
X124343688Y-76402350D02*
X124343683Y-76402345D01*
G75*
G02*
X124257655Y-74813683I751317J837345D01*
G01*
X125567657Y-73353683D01*
G75*
G02*
X127156319Y-73267655I837345J-751317D01*
G01*
X127156319Y-73267655D01*
G75*
G02*
X127242347Y-74856317I-751317J-837345D01*
G01*
X125932345Y-76316317D01*
G75*
G02*
X124343683Y-76402345I-837345J751317D01*
G01*
G37*
G04 #@! TD.AperFunction*
X131445000Y-73025000D03*
G04 #@! TA.AperFunction,ComponentPad*
G36*
G01*
X131328483Y-74727395D02*
X131327597Y-74727334D01*
G75*
G02*
X130282666Y-73527597I77403J1122334D01*
G01*
X130322666Y-72947597D01*
G75*
G02*
X131522403Y-71902666I1122334J-77403D01*
G01*
X131522403Y-71902666D01*
G75*
G02*
X132567334Y-73102403I-77403J-1122334D01*
G01*
X132527334Y-73682403D01*
G75*
G02*
X131327597Y-74727334I-1122334J77403D01*
G01*
G37*
G04 #@! TD.AperFunction*
X107355000Y-74105000D03*
G04 #@! TA.AperFunction,ComponentPad*
G36*
G01*
X105293688Y-76402350D02*
X105293683Y-76402345D01*
G75*
G02*
X105207655Y-74813683I751317J837345D01*
G01*
X106517657Y-73353683D01*
G75*
G02*
X108106319Y-73267655I837345J-751317D01*
G01*
X108106319Y-73267655D01*
G75*
G02*
X108192347Y-74856317I-751317J-837345D01*
G01*
X106882345Y-76316317D01*
G75*
G02*
X105293683Y-76402345I-837345J751317D01*
G01*
G37*
G04 #@! TD.AperFunction*
X112395000Y-73025000D03*
G04 #@! TA.AperFunction,ComponentPad*
G36*
G01*
X112278483Y-74727395D02*
X112277597Y-74727334D01*
G75*
G02*
X111232666Y-73527597I77403J1122334D01*
G01*
X111272666Y-72947597D01*
G75*
G02*
X112472403Y-71902666I1122334J-77403D01*
G01*
X112472403Y-71902666D01*
G75*
G02*
X113517334Y-73102403I-77403J-1122334D01*
G01*
X113477334Y-73682403D01*
G75*
G02*
X112277597Y-74727334I-1122334J77403D01*
G01*
G37*
G04 #@! TD.AperFunction*
X88305000Y-74105000D03*
G04 #@! TA.AperFunction,ComponentPad*
G36*
G01*
X86243688Y-76402350D02*
X86243683Y-76402345D01*
G75*
G02*
X86157655Y-74813683I751317J837345D01*
G01*
X87467657Y-73353683D01*
G75*
G02*
X89056319Y-73267655I837345J-751317D01*
G01*
X89056319Y-73267655D01*
G75*
G02*
X89142347Y-74856317I-751317J-837345D01*
G01*
X87832345Y-76316317D01*
G75*
G02*
X86243683Y-76402345I-837345J751317D01*
G01*
G37*
G04 #@! TD.AperFunction*
X93345000Y-73025000D03*
G04 #@! TA.AperFunction,ComponentPad*
G36*
G01*
X93228483Y-74727395D02*
X93227597Y-74727334D01*
G75*
G02*
X92182666Y-73527597I77403J1122334D01*
G01*
X92222666Y-72947597D01*
G75*
G02*
X93422403Y-71902666I1122334J-77403D01*
G01*
X93422403Y-71902666D01*
G75*
G02*
X94467334Y-73102403I-77403J-1122334D01*
G01*
X94427334Y-73682403D01*
G75*
G02*
X93227597Y-74727334I-1122334J77403D01*
G01*
G37*
G04 #@! TD.AperFunction*
X69255000Y-74105000D03*
G04 #@! TA.AperFunction,ComponentPad*
G36*
G01*
X67193688Y-76402350D02*
X67193683Y-76402345D01*
G75*
G02*
X67107655Y-74813683I751317J837345D01*
G01*
X68417657Y-73353683D01*
G75*
G02*
X70006319Y-73267655I837345J-751317D01*
G01*
X70006319Y-73267655D01*
G75*
G02*
X70092347Y-74856317I-751317J-837345D01*
G01*
X68782345Y-76316317D01*
G75*
G02*
X67193683Y-76402345I-837345J751317D01*
G01*
G37*
G04 #@! TD.AperFunction*
X74295000Y-73025000D03*
G04 #@! TA.AperFunction,ComponentPad*
G36*
G01*
X74178483Y-74727395D02*
X74177597Y-74727334D01*
G75*
G02*
X73132666Y-73527597I77403J1122334D01*
G01*
X73172666Y-72947597D01*
G75*
G02*
X74372403Y-71902666I1122334J-77403D01*
G01*
X74372403Y-71902666D01*
G75*
G02*
X75417334Y-73102403I-77403J-1122334D01*
G01*
X75377334Y-73682403D01*
G75*
G02*
X74177597Y-74727334I-1122334J77403D01*
G01*
G37*
G04 #@! TD.AperFunction*
X50205000Y-74105000D03*
G04 #@! TA.AperFunction,ComponentPad*
G36*
G01*
X48143688Y-76402350D02*
X48143683Y-76402345D01*
G75*
G02*
X48057655Y-74813683I751317J837345D01*
G01*
X49367657Y-73353683D01*
G75*
G02*
X50956319Y-73267655I837345J-751317D01*
G01*
X50956319Y-73267655D01*
G75*
G02*
X51042347Y-74856317I-751317J-837345D01*
G01*
X49732345Y-76316317D01*
G75*
G02*
X48143683Y-76402345I-837345J751317D01*
G01*
G37*
G04 #@! TD.AperFunction*
X55245000Y-73025000D03*
G04 #@! TA.AperFunction,ComponentPad*
G36*
G01*
X55128483Y-74727395D02*
X55127597Y-74727334D01*
G75*
G02*
X54082666Y-73527597I77403J1122334D01*
G01*
X54122666Y-72947597D01*
G75*
G02*
X55322403Y-71902666I1122334J-77403D01*
G01*
X55322403Y-71902666D01*
G75*
G02*
X56367334Y-73102403I-77403J-1122334D01*
G01*
X56327334Y-73682403D01*
G75*
G02*
X55127597Y-74727334I-1122334J77403D01*
G01*
G37*
G04 #@! TD.AperFunction*
D11*
X42799000Y-85090000D03*
X42799000Y-87630000D03*
D12*
X42799000Y-90170000D03*
D13*
X106045000Y-86360000D03*
D14*
X113665000Y-86360000D03*
D13*
X48895000Y-86360000D03*
D14*
X56515000Y-86360000D03*
D13*
X67945000Y-86360000D03*
D14*
X75565000Y-86360000D03*
D13*
X86995000Y-86360000D03*
D14*
X94615000Y-86360000D03*
D13*
X48895000Y-88900000D03*
D14*
X56515000Y-88900000D03*
D13*
X67945000Y-88900000D03*
D14*
X75565000Y-88900000D03*
D13*
X86995000Y-88900000D03*
D14*
X94615000Y-88900000D03*
D13*
X106045000Y-88900000D03*
D14*
X113665000Y-88900000D03*
D13*
X220345000Y-86360000D03*
D14*
X227965000Y-86360000D03*
D13*
X220345000Y-88900000D03*
D14*
X227965000Y-88900000D03*
D13*
X201295000Y-88900000D03*
D14*
X208915000Y-88900000D03*
D13*
X182245000Y-88900000D03*
D14*
X189865000Y-88900000D03*
D13*
X163195000Y-88900000D03*
D14*
X170815000Y-88900000D03*
D13*
X144145000Y-88900000D03*
D14*
X151765000Y-88900000D03*
D13*
X125095000Y-88900000D03*
D14*
X132715000Y-88900000D03*
D13*
X201295000Y-86360000D03*
D14*
X208915000Y-86360000D03*
D13*
X182245000Y-86360000D03*
D14*
X189865000Y-86360000D03*
D13*
X163195000Y-86360000D03*
D14*
X170815000Y-86360000D03*
D13*
X144145000Y-86360000D03*
D14*
X151765000Y-86360000D03*
D13*
X125095000Y-86360000D03*
D14*
X132715000Y-86360000D03*
D11*
X27305000Y-104140000D03*
X29845000Y-104140000D03*
X32385000Y-104140000D03*
D12*
X34925000Y-104140000D03*
D15*
X23177500Y-72231250D03*
D16*
X23177500Y-74771250D03*
X23177500Y-77311250D03*
X23177500Y-79851250D03*
X23177500Y-82391250D03*
X23177500Y-84931250D03*
X23177500Y-87471250D03*
X23177500Y-90011250D03*
X23177500Y-92551250D03*
X23177500Y-95091250D03*
X23177500Y-97631250D03*
X38417500Y-100171250D03*
X38417500Y-97631250D03*
X38417500Y-95091250D03*
X38417500Y-92551250D03*
X38417500Y-90011250D03*
X38417500Y-87471250D03*
X38417500Y-84931250D03*
X38417500Y-82391250D03*
X38417500Y-79851250D03*
X38417500Y-77311250D03*
X38417500Y-74771250D03*
X23177500Y-100171250D03*
X38417500Y-72231250D03*
D17*
X36353824Y-90773176D03*
X46355000Y-88900000D03*
D18*
X55245000Y-85090000D02*
X56515000Y-86360000D01*
X55245000Y-73025000D02*
X55245000Y-85090000D01*
X74295000Y-85090000D02*
X75565000Y-86360000D01*
X74295000Y-73025000D02*
X74295000Y-85090000D01*
X93345000Y-85090000D02*
X94615000Y-86360000D01*
X93345000Y-73025000D02*
X93345000Y-85090000D01*
X36353824Y-90773176D02*
X36353824Y-90773176D01*
X36353824Y-90207491D02*
X36353824Y-90773176D01*
X37751366Y-88809949D02*
X36353824Y-90207491D01*
X38994125Y-88809949D02*
X37751366Y-88809949D01*
X39084176Y-88900000D02*
X38994125Y-88809949D01*
X46355000Y-88900000D02*
X39084176Y-88900000D01*
X112395000Y-85090000D02*
X113665000Y-86360000D01*
X112395000Y-73025000D02*
X112395000Y-85090000D01*
X131445000Y-85090000D02*
X132715000Y-86360000D01*
X131445000Y-73025000D02*
X131445000Y-85090000D01*
X150495000Y-85090000D02*
X151765000Y-86360000D01*
X150495000Y-73025000D02*
X150495000Y-85090000D01*
X25717500Y-74771250D02*
X23177500Y-77311250D01*
X38417500Y-74771250D02*
X25717500Y-74771250D01*
X23177500Y-77311250D02*
X23177500Y-79851250D01*
X34925000Y-94265824D02*
X34925000Y-104140000D01*
X37840875Y-91349949D02*
X34925000Y-94265824D01*
X41682551Y-91349949D02*
X37840875Y-91349949D01*
X42703750Y-90328750D02*
X41682551Y-91349949D01*
X26554598Y-105765010D02*
X21463000Y-100673412D01*
X21463000Y-81565750D02*
X23177500Y-79851250D01*
X21463000Y-100673412D02*
X21463000Y-81565750D01*
X33299990Y-105765010D02*
X26554598Y-105765010D01*
X34925000Y-104140000D02*
X33299990Y-105765010D01*
X24378801Y-73432551D02*
X23177500Y-72231250D01*
X44323000Y-78898824D02*
X38856727Y-73432551D01*
X44323000Y-86169500D02*
X44323000Y-78898824D01*
X38856727Y-73432551D02*
X24378801Y-73432551D01*
X42703750Y-87788750D02*
X44323000Y-86169500D01*
X32385000Y-84074000D02*
X32385000Y-104140000D01*
X36607750Y-79851250D02*
X32385000Y-84074000D01*
X38417500Y-79851250D02*
X36607750Y-79851250D01*
X42799000Y-85153500D02*
X42703750Y-85248750D01*
X42799000Y-84232750D02*
X42799000Y-85153500D01*
X38417500Y-79851250D02*
X42799000Y-84232750D01*
X47770001Y-93490001D02*
X48895000Y-94615000D01*
X47770001Y-79736001D02*
X47770001Y-93490001D01*
X48895000Y-78611002D02*
X47770001Y-79736001D01*
X48895000Y-75565000D02*
X48895000Y-78611002D01*
D19*
X67468750Y-75723750D02*
X67523751Y-75778751D01*
D18*
X66921499Y-93591499D02*
X67945000Y-94615000D01*
X66921499Y-85401499D02*
X66921499Y-93591499D01*
X67945000Y-84377998D02*
X66921499Y-85401499D01*
X67945000Y-75565000D02*
X67945000Y-84377998D01*
D19*
X86518750Y-75723750D02*
X86573751Y-75778751D01*
D18*
X85971499Y-93591499D02*
X86995000Y-94615000D01*
X85971499Y-85401499D02*
X85971499Y-93591499D01*
X86995000Y-84377998D02*
X85971499Y-85401499D01*
X86995000Y-75565000D02*
X86995000Y-84377998D01*
X169545000Y-85090000D02*
X170815000Y-86360000D01*
X169545000Y-73025000D02*
X169545000Y-85090000D01*
X188595000Y-85090000D02*
X189865000Y-86360000D01*
X188595000Y-73025000D02*
X188595000Y-85090000D01*
X207645000Y-85090000D02*
X208915000Y-86360000D01*
X207645000Y-73025000D02*
X207645000Y-85090000D01*
X226695000Y-85090000D02*
X227965000Y-86360000D01*
X226695000Y-73025000D02*
X226695000Y-85090000D01*
X55245000Y-90170000D02*
X56515000Y-88900000D01*
X55245000Y-92075000D02*
X55245000Y-90170000D01*
X74295000Y-90170000D02*
X75565000Y-88900000D01*
X74295000Y-92075000D02*
X74295000Y-90170000D01*
X93345000Y-90170000D02*
X94615000Y-88900000D01*
X93345000Y-92075000D02*
X93345000Y-90170000D01*
X112395000Y-90170000D02*
X113665000Y-88900000D01*
X112395000Y-92075000D02*
X112395000Y-90170000D01*
X131445000Y-90170000D02*
X132715000Y-88900000D01*
X131445000Y-92075000D02*
X131445000Y-90170000D01*
X150495000Y-90170000D02*
X151765000Y-88900000D01*
X150495000Y-92075000D02*
X150495000Y-90170000D01*
X169545000Y-90170000D02*
X170815000Y-88900000D01*
X169545000Y-92075000D02*
X169545000Y-90170000D01*
X188595000Y-90170000D02*
X189865000Y-88900000D01*
X188595000Y-92075000D02*
X188595000Y-90170000D01*
X207645000Y-90170000D02*
X208915000Y-88900000D01*
X207645000Y-92075000D02*
X207645000Y-90170000D01*
X226695000Y-90170000D02*
X227965000Y-88900000D01*
X226695000Y-92075000D02*
X226695000Y-90170000D01*
X105021499Y-85401499D02*
X105021499Y-93591499D01*
X105021499Y-93591499D02*
X106045000Y-94615000D01*
X106045000Y-84377998D02*
X105021499Y-85401499D01*
X106045000Y-75565000D02*
X106045000Y-84377998D01*
X125095000Y-84377998D02*
X124071499Y-85401499D01*
X124071499Y-93591499D02*
X125095000Y-94615000D01*
X124071499Y-85401499D02*
X124071499Y-93591499D01*
X125095000Y-75565000D02*
X125095000Y-84377998D01*
X143121499Y-93591499D02*
X144145000Y-94615000D01*
X143121499Y-85401499D02*
X143121499Y-93591499D01*
X144145000Y-84377998D02*
X143121499Y-85401499D01*
X144145000Y-75565000D02*
X144145000Y-84377998D01*
X162171499Y-93591499D02*
X163195000Y-94615000D01*
X162171499Y-85401499D02*
X162171499Y-93591499D01*
X163195000Y-84377998D02*
X162171499Y-85401499D01*
X163195000Y-75565000D02*
X163195000Y-84377998D01*
X181221499Y-93591499D02*
X182245000Y-94615000D01*
X181221499Y-85401499D02*
X181221499Y-93591499D01*
X182245000Y-84377998D02*
X181221499Y-85401499D01*
X182245000Y-75565000D02*
X182245000Y-84377998D01*
X200271499Y-93591499D02*
X201295000Y-94615000D01*
X200271499Y-85401499D02*
X200271499Y-93591499D01*
X201295000Y-84377998D02*
X200271499Y-85401499D01*
X201295000Y-75565000D02*
X201295000Y-84377998D01*
X219321499Y-93591499D02*
X220345000Y-94615000D01*
X219321499Y-85401499D02*
X219321499Y-93591499D01*
X220345000Y-84377998D02*
X219321499Y-85401499D01*
X220345000Y-75565000D02*
X220345000Y-84377998D01*
X27305000Y-86518750D02*
X23177500Y-82391250D01*
X27305000Y-104140000D02*
X27305000Y-86518750D01*
X24378801Y-86132551D02*
X23177500Y-84931250D01*
X26740999Y-105315001D02*
X24378801Y-102952803D01*
X24378801Y-102952803D02*
X24378801Y-86132551D01*
X28669999Y-105315001D02*
X26740999Y-105315001D01*
X29845000Y-104140000D02*
X28669999Y-105315001D01*
D19*
X38417500Y-77311250D02*
X38100000Y-77311250D01*
M02*
