M48
; DRILL file {KiCad 5.1.12-1.fc33} date Tue 04 Jan 2022 07:58:40 PM EST
; FORMAT={-:-/ absolute / inch / decimal}
; #@! TF.CreationDate,2022-01-04T19:58:40-05:00
; #@! TF.GenerationSoftware,Kicad,Pcbnew,5.1.12-1.fc33
FMAT,2
INCH
T1C0.0157
T2C0.0320
T3C0.0394
T4C0.0430
T5C0.0579
T6C0.0689
T7C0.1570
%
G90
G05
T1
X1.4313Y-3.5737
X1.825Y-3.5
T2
X1.925Y-3.4
X1.925Y-3.5
X2.225Y-3.4
X2.225Y-3.5
X2.675Y-3.4
X2.675Y-3.5
X2.975Y-3.4
X2.975Y-3.5
X3.425Y-3.4
X3.425Y-3.5
X3.725Y-3.4
X3.725Y-3.5
X4.175Y-3.4
X4.175Y-3.5
X4.475Y-3.4
X4.475Y-3.5
X4.925Y-3.4
X4.925Y-3.5
X5.225Y-3.4
X5.225Y-3.5
X5.675Y-3.4
X5.675Y-3.5
X5.975Y-3.4
X5.975Y-3.5
X6.425Y-3.4
X6.425Y-3.5
X6.725Y-3.4
X6.725Y-3.5
X7.175Y-3.4
X7.175Y-3.5
X7.475Y-3.4
X7.475Y-3.5
X7.925Y-3.4
X7.925Y-3.5
X8.225Y-3.4
X8.225Y-3.5
X8.675Y-3.4
X8.675Y-3.5
X8.975Y-3.4
X8.975Y-3.5
T3
X1.075Y-4.1
X1.175Y-4.1
X1.275Y-4.1
X1.375Y-4.1
X1.685Y-3.35
X1.685Y-3.45
X1.685Y-3.55
T4
X0.9125Y-2.8438
X0.9125Y-2.9438
X0.9125Y-3.0437
X0.9125Y-3.1437
X0.9125Y-3.2437
X0.9125Y-3.3438
X0.9125Y-3.4438
X0.9125Y-3.5437
X0.9125Y-3.6437
X0.9125Y-3.7437
X0.9125Y-3.8438
X0.9125Y-3.9438
X1.5125Y-2.8438
X1.5125Y-2.9438
X1.5125Y-3.0437
X1.5125Y-3.1437
X1.5125Y-3.2437
X1.5125Y-3.3438
X1.5125Y-3.4438
X1.5125Y-3.5437
X1.5125Y-3.6437
X1.5125Y-3.7437
X1.5125Y-3.8438
X1.5125Y-3.9438
T5
X1.925Y-2.975
X1.925Y-3.725
X1.9766Y-2.9175
X1.9766Y-3.6675
X2.1734Y-2.8978
X2.1734Y-3.6478
X2.175Y-2.875
X2.175Y-3.625
X2.675Y-2.975
X2.675Y-3.725
X2.7266Y-2.9175
X2.7266Y-3.6675
X2.9234Y-2.8978
X2.9234Y-3.6478
X2.925Y-2.875
X2.925Y-3.625
X3.425Y-2.975
X3.425Y-3.725
X3.4766Y-2.9175
X3.4766Y-3.6675
X3.6734Y-2.8978
X3.6734Y-3.6478
X3.675Y-2.875
X3.675Y-3.625
X4.175Y-2.975
X4.175Y-3.725
X4.2266Y-2.9175
X4.2266Y-3.6675
X4.4234Y-2.8978
X4.4234Y-3.6478
X4.425Y-2.875
X4.425Y-3.625
X4.925Y-2.975
X4.925Y-3.725
X4.9766Y-2.9175
X4.9766Y-3.6675
X5.1734Y-2.8978
X5.1734Y-3.6478
X5.175Y-2.875
X5.175Y-3.625
X5.675Y-2.975
X5.675Y-3.725
X5.7266Y-2.9175
X5.7266Y-3.6675
X5.9234Y-2.8978
X5.9234Y-3.6478
X5.925Y-2.875
X5.925Y-3.625
X6.425Y-2.975
X6.425Y-3.725
X6.4766Y-2.9175
X6.4766Y-3.6675
X6.6734Y-2.8978
X6.6734Y-3.6478
X6.675Y-2.875
X6.675Y-3.625
X7.175Y-2.975
X7.175Y-3.725
X7.2266Y-2.9175
X7.2266Y-3.6675
X7.4234Y-2.8978
X7.4234Y-3.6478
X7.425Y-2.875
X7.425Y-3.625
X7.925Y-2.975
X7.925Y-3.725
X7.9766Y-2.9175
X7.9766Y-3.6675
X8.1734Y-2.8978
X8.1734Y-3.6478
X8.175Y-2.875
X8.175Y-3.625
X8.675Y-2.975
X8.675Y-3.725
X8.7266Y-2.9175
X8.7266Y-3.6675
X8.9234Y-2.8978
X8.9234Y-3.6478
X8.925Y-2.875
X8.925Y-3.625
T6
X1.875Y-3.075
X1.875Y-3.825
X2.275Y-3.075
X2.275Y-3.825
X2.625Y-3.075
X2.625Y-3.825
X3.025Y-3.075
X3.025Y-3.825
X3.375Y-3.075
X3.375Y-3.825
X3.775Y-3.075
X3.775Y-3.825
X4.125Y-3.075
X4.125Y-3.825
X4.525Y-3.075
X4.525Y-3.825
X4.875Y-3.075
X4.875Y-3.825
X5.275Y-3.075
X5.275Y-3.825
X5.625Y-3.075
X5.625Y-3.825
X6.025Y-3.075
X6.025Y-3.825
X6.375Y-3.075
X6.375Y-3.825
X6.775Y-3.075
X6.775Y-3.825
X7.125Y-3.075
X7.125Y-3.825
X7.525Y-3.075
X7.525Y-3.825
X7.875Y-3.075
X7.875Y-3.825
X8.275Y-3.075
X8.275Y-3.825
X8.625Y-3.075
X8.625Y-3.825
X9.025Y-3.075
X9.025Y-3.825
T7
X2.075Y-3.075
X2.075Y-3.825
X2.825Y-3.075
X2.825Y-3.825
X3.575Y-3.075
X3.575Y-3.825
X4.325Y-3.075
X4.325Y-3.825
X5.075Y-3.075
X5.075Y-3.825
X5.825Y-3.075
X5.825Y-3.825
X6.575Y-3.075
X6.575Y-3.825
X7.325Y-3.075
X7.325Y-3.825
X8.075Y-3.075
X8.075Y-3.825
X8.825Y-3.075
X8.825Y-3.825
T0
M30
