G04 #@! TF.GenerationSoftware,KiCad,Pcbnew,5.1.12-1.fc33*
G04 #@! TF.CreationDate,2022-01-04T15:39:25-05:00*
G04 #@! TF.ProjectId,crisco,63726973-636f-42e6-9b69-6361645f7063,rev?*
G04 #@! TF.SameCoordinates,Original*
G04 #@! TF.FileFunction,Soldermask,Top*
G04 #@! TF.FilePolarity,Negative*
%FSLAX46Y46*%
G04 Gerber Fmt 4.6, Leading zero omitted, Abs format (unit mm)*
G04 Created by KiCad (PCBNEW 5.1.12-1.fc33) date 2022-01-04 15:39:25*
%MOMM*%
%LPD*%
G01*
G04 APERTURE LIST*
%ADD10C,1.852000*%
%ADD11C,4.089800*%
%ADD12C,1.499000*%
%ADD13O,1.802000X1.802000*%
%ADD14C,1.854600*%
%ADD15C,1.626000*%
G04 APERTURE END LIST*
G36*
G01*
X43776000Y-78274000D02*
X42076000Y-78274000D01*
G75*
G02*
X42025000Y-78223000I0J51000D01*
G01*
X42025000Y-77323000D01*
G75*
G02*
X42076000Y-77272000I51000J0D01*
G01*
X43776000Y-77272000D01*
G75*
G02*
X43827000Y-77323000I0J-51000D01*
G01*
X43827000Y-78223000D01*
G75*
G02*
X43776000Y-78274000I-51000J0D01*
G01*
G37*
G36*
G01*
X43776000Y-74874000D02*
X42076000Y-74874000D01*
G75*
G02*
X42025000Y-74823000I0J51000D01*
G01*
X42025000Y-73923000D01*
G75*
G02*
X42076000Y-73872000I51000J0D01*
G01*
X43776000Y-73872000D01*
G75*
G02*
X43827000Y-73923000I0J-51000D01*
G01*
X43827000Y-74823000D01*
G75*
G02*
X43776000Y-74874000I-51000J0D01*
G01*
G37*
D10*
X76835000Y-97155000D03*
X66675000Y-97155000D03*
D11*
X71755000Y-97155000D03*
G36*
G01*
X107379000Y-86835000D02*
X107379000Y-85885000D01*
G75*
G02*
X107430000Y-85834000I51000J0D01*
G01*
X108730000Y-85834000D01*
G75*
G02*
X108781000Y-85885000I0J-51000D01*
G01*
X108781000Y-86835000D01*
G75*
G02*
X108730000Y-86886000I-51000J0D01*
G01*
X107430000Y-86886000D01*
G75*
G02*
X107379000Y-86835000I0J51000D01*
G01*
G37*
G36*
G01*
X105295500Y-87058501D02*
X105295500Y-85661499D01*
G75*
G02*
X105346499Y-85610500I50999J0D01*
G01*
X106743501Y-85610500D01*
G75*
G02*
X106794500Y-85661499I0J-50999D01*
G01*
X106794500Y-87058501D01*
G75*
G02*
X106743501Y-87109500I-50999J0D01*
G01*
X105346499Y-87109500D01*
G75*
G02*
X105295500Y-87058501I0J50999D01*
G01*
G37*
D12*
X113665000Y-86360000D03*
G36*
G01*
X110929000Y-86835000D02*
X110929000Y-85885000D01*
G75*
G02*
X110980000Y-85834000I51000J0D01*
G01*
X112280000Y-85834000D01*
G75*
G02*
X112331000Y-85885000I0J-51000D01*
G01*
X112331000Y-86835000D01*
G75*
G02*
X112280000Y-86886000I-51000J0D01*
G01*
X110980000Y-86886000D01*
G75*
G02*
X110929000Y-86835000I0J51000D01*
G01*
G37*
G36*
G01*
X50229000Y-86835000D02*
X50229000Y-85885000D01*
G75*
G02*
X50280000Y-85834000I51000J0D01*
G01*
X51580000Y-85834000D01*
G75*
G02*
X51631000Y-85885000I0J-51000D01*
G01*
X51631000Y-86835000D01*
G75*
G02*
X51580000Y-86886000I-51000J0D01*
G01*
X50280000Y-86886000D01*
G75*
G02*
X50229000Y-86835000I0J51000D01*
G01*
G37*
G36*
G01*
X48145500Y-87058501D02*
X48145500Y-85661499D01*
G75*
G02*
X48196499Y-85610500I50999J0D01*
G01*
X49593501Y-85610500D01*
G75*
G02*
X49644500Y-85661499I0J-50999D01*
G01*
X49644500Y-87058501D01*
G75*
G02*
X49593501Y-87109500I-50999J0D01*
G01*
X48196499Y-87109500D01*
G75*
G02*
X48145500Y-87058501I0J50999D01*
G01*
G37*
X56515000Y-86360000D03*
G36*
G01*
X53779000Y-86835000D02*
X53779000Y-85885000D01*
G75*
G02*
X53830000Y-85834000I51000J0D01*
G01*
X55130000Y-85834000D01*
G75*
G02*
X55181000Y-85885000I0J-51000D01*
G01*
X55181000Y-86835000D01*
G75*
G02*
X55130000Y-86886000I-51000J0D01*
G01*
X53830000Y-86886000D01*
G75*
G02*
X53779000Y-86835000I0J51000D01*
G01*
G37*
G36*
G01*
X69279000Y-86835000D02*
X69279000Y-85885000D01*
G75*
G02*
X69330000Y-85834000I51000J0D01*
G01*
X70630000Y-85834000D01*
G75*
G02*
X70681000Y-85885000I0J-51000D01*
G01*
X70681000Y-86835000D01*
G75*
G02*
X70630000Y-86886000I-51000J0D01*
G01*
X69330000Y-86886000D01*
G75*
G02*
X69279000Y-86835000I0J51000D01*
G01*
G37*
G36*
G01*
X67195500Y-87058501D02*
X67195500Y-85661499D01*
G75*
G02*
X67246499Y-85610500I50999J0D01*
G01*
X68643501Y-85610500D01*
G75*
G02*
X68694500Y-85661499I0J-50999D01*
G01*
X68694500Y-87058501D01*
G75*
G02*
X68643501Y-87109500I-50999J0D01*
G01*
X67246499Y-87109500D01*
G75*
G02*
X67195500Y-87058501I0J50999D01*
G01*
G37*
X75565000Y-86360000D03*
G36*
G01*
X72829000Y-86835000D02*
X72829000Y-85885000D01*
G75*
G02*
X72880000Y-85834000I51000J0D01*
G01*
X74180000Y-85834000D01*
G75*
G02*
X74231000Y-85885000I0J-51000D01*
G01*
X74231000Y-86835000D01*
G75*
G02*
X74180000Y-86886000I-51000J0D01*
G01*
X72880000Y-86886000D01*
G75*
G02*
X72829000Y-86835000I0J51000D01*
G01*
G37*
G36*
G01*
X88329000Y-86835000D02*
X88329000Y-85885000D01*
G75*
G02*
X88380000Y-85834000I51000J0D01*
G01*
X89680000Y-85834000D01*
G75*
G02*
X89731000Y-85885000I0J-51000D01*
G01*
X89731000Y-86835000D01*
G75*
G02*
X89680000Y-86886000I-51000J0D01*
G01*
X88380000Y-86886000D01*
G75*
G02*
X88329000Y-86835000I0J51000D01*
G01*
G37*
G36*
G01*
X86245500Y-87058501D02*
X86245500Y-85661499D01*
G75*
G02*
X86296499Y-85610500I50999J0D01*
G01*
X87693501Y-85610500D01*
G75*
G02*
X87744500Y-85661499I0J-50999D01*
G01*
X87744500Y-87058501D01*
G75*
G02*
X87693501Y-87109500I-50999J0D01*
G01*
X86296499Y-87109500D01*
G75*
G02*
X86245500Y-87058501I0J50999D01*
G01*
G37*
X94615000Y-86360000D03*
G36*
G01*
X91879000Y-86835000D02*
X91879000Y-85885000D01*
G75*
G02*
X91930000Y-85834000I51000J0D01*
G01*
X93230000Y-85834000D01*
G75*
G02*
X93281000Y-85885000I0J-51000D01*
G01*
X93281000Y-86835000D01*
G75*
G02*
X93230000Y-86886000I-51000J0D01*
G01*
X91930000Y-86886000D01*
G75*
G02*
X91879000Y-86835000I0J51000D01*
G01*
G37*
G36*
G01*
X50229000Y-89375000D02*
X50229000Y-88425000D01*
G75*
G02*
X50280000Y-88374000I51000J0D01*
G01*
X51580000Y-88374000D01*
G75*
G02*
X51631000Y-88425000I0J-51000D01*
G01*
X51631000Y-89375000D01*
G75*
G02*
X51580000Y-89426000I-51000J0D01*
G01*
X50280000Y-89426000D01*
G75*
G02*
X50229000Y-89375000I0J51000D01*
G01*
G37*
G36*
G01*
X48145500Y-89598501D02*
X48145500Y-88201499D01*
G75*
G02*
X48196499Y-88150500I50999J0D01*
G01*
X49593501Y-88150500D01*
G75*
G02*
X49644500Y-88201499I0J-50999D01*
G01*
X49644500Y-89598501D01*
G75*
G02*
X49593501Y-89649500I-50999J0D01*
G01*
X48196499Y-89649500D01*
G75*
G02*
X48145500Y-89598501I0J50999D01*
G01*
G37*
X56515000Y-88900000D03*
G36*
G01*
X53779000Y-89375000D02*
X53779000Y-88425000D01*
G75*
G02*
X53830000Y-88374000I51000J0D01*
G01*
X55130000Y-88374000D01*
G75*
G02*
X55181000Y-88425000I0J-51000D01*
G01*
X55181000Y-89375000D01*
G75*
G02*
X55130000Y-89426000I-51000J0D01*
G01*
X53830000Y-89426000D01*
G75*
G02*
X53779000Y-89375000I0J51000D01*
G01*
G37*
G36*
G01*
X69279000Y-89375000D02*
X69279000Y-88425000D01*
G75*
G02*
X69330000Y-88374000I51000J0D01*
G01*
X70630000Y-88374000D01*
G75*
G02*
X70681000Y-88425000I0J-51000D01*
G01*
X70681000Y-89375000D01*
G75*
G02*
X70630000Y-89426000I-51000J0D01*
G01*
X69330000Y-89426000D01*
G75*
G02*
X69279000Y-89375000I0J51000D01*
G01*
G37*
G36*
G01*
X67195500Y-89598501D02*
X67195500Y-88201499D01*
G75*
G02*
X67246499Y-88150500I50999J0D01*
G01*
X68643501Y-88150500D01*
G75*
G02*
X68694500Y-88201499I0J-50999D01*
G01*
X68694500Y-89598501D01*
G75*
G02*
X68643501Y-89649500I-50999J0D01*
G01*
X67246499Y-89649500D01*
G75*
G02*
X67195500Y-89598501I0J50999D01*
G01*
G37*
X75565000Y-88900000D03*
G36*
G01*
X72829000Y-89375000D02*
X72829000Y-88425000D01*
G75*
G02*
X72880000Y-88374000I51000J0D01*
G01*
X74180000Y-88374000D01*
G75*
G02*
X74231000Y-88425000I0J-51000D01*
G01*
X74231000Y-89375000D01*
G75*
G02*
X74180000Y-89426000I-51000J0D01*
G01*
X72880000Y-89426000D01*
G75*
G02*
X72829000Y-89375000I0J51000D01*
G01*
G37*
G36*
G01*
X88329000Y-89375000D02*
X88329000Y-88425000D01*
G75*
G02*
X88380000Y-88374000I51000J0D01*
G01*
X89680000Y-88374000D01*
G75*
G02*
X89731000Y-88425000I0J-51000D01*
G01*
X89731000Y-89375000D01*
G75*
G02*
X89680000Y-89426000I-51000J0D01*
G01*
X88380000Y-89426000D01*
G75*
G02*
X88329000Y-89375000I0J51000D01*
G01*
G37*
G36*
G01*
X86245500Y-89598501D02*
X86245500Y-88201499D01*
G75*
G02*
X86296499Y-88150500I50999J0D01*
G01*
X87693501Y-88150500D01*
G75*
G02*
X87744500Y-88201499I0J-50999D01*
G01*
X87744500Y-89598501D01*
G75*
G02*
X87693501Y-89649500I-50999J0D01*
G01*
X86296499Y-89649500D01*
G75*
G02*
X86245500Y-89598501I0J50999D01*
G01*
G37*
X94615000Y-88900000D03*
G36*
G01*
X91879000Y-89375000D02*
X91879000Y-88425000D01*
G75*
G02*
X91930000Y-88374000I51000J0D01*
G01*
X93230000Y-88374000D01*
G75*
G02*
X93281000Y-88425000I0J-51000D01*
G01*
X93281000Y-89375000D01*
G75*
G02*
X93230000Y-89426000I-51000J0D01*
G01*
X91930000Y-89426000D01*
G75*
G02*
X91879000Y-89375000I0J51000D01*
G01*
G37*
G36*
G01*
X107379000Y-89375000D02*
X107379000Y-88425000D01*
G75*
G02*
X107430000Y-88374000I51000J0D01*
G01*
X108730000Y-88374000D01*
G75*
G02*
X108781000Y-88425000I0J-51000D01*
G01*
X108781000Y-89375000D01*
G75*
G02*
X108730000Y-89426000I-51000J0D01*
G01*
X107430000Y-89426000D01*
G75*
G02*
X107379000Y-89375000I0J51000D01*
G01*
G37*
G36*
G01*
X105295500Y-89598501D02*
X105295500Y-88201499D01*
G75*
G02*
X105346499Y-88150500I50999J0D01*
G01*
X106743501Y-88150500D01*
G75*
G02*
X106794500Y-88201499I0J-50999D01*
G01*
X106794500Y-89598501D01*
G75*
G02*
X106743501Y-89649500I-50999J0D01*
G01*
X105346499Y-89649500D01*
G75*
G02*
X105295500Y-89598501I0J50999D01*
G01*
G37*
X113665000Y-88900000D03*
G36*
G01*
X110929000Y-89375000D02*
X110929000Y-88425000D01*
G75*
G02*
X110980000Y-88374000I51000J0D01*
G01*
X112280000Y-88374000D01*
G75*
G02*
X112331000Y-88425000I0J-51000D01*
G01*
X112331000Y-89375000D01*
G75*
G02*
X112280000Y-89426000I-51000J0D01*
G01*
X110980000Y-89426000D01*
G75*
G02*
X110929000Y-89375000I0J51000D01*
G01*
G37*
G36*
G01*
X221679000Y-86835000D02*
X221679000Y-85885000D01*
G75*
G02*
X221730000Y-85834000I51000J0D01*
G01*
X223030000Y-85834000D01*
G75*
G02*
X223081000Y-85885000I0J-51000D01*
G01*
X223081000Y-86835000D01*
G75*
G02*
X223030000Y-86886000I-51000J0D01*
G01*
X221730000Y-86886000D01*
G75*
G02*
X221679000Y-86835000I0J51000D01*
G01*
G37*
G36*
G01*
X219595500Y-87058501D02*
X219595500Y-85661499D01*
G75*
G02*
X219646499Y-85610500I50999J0D01*
G01*
X221043501Y-85610500D01*
G75*
G02*
X221094500Y-85661499I0J-50999D01*
G01*
X221094500Y-87058501D01*
G75*
G02*
X221043501Y-87109500I-50999J0D01*
G01*
X219646499Y-87109500D01*
G75*
G02*
X219595500Y-87058501I0J50999D01*
G01*
G37*
X227965000Y-86360000D03*
G36*
G01*
X225229000Y-86835000D02*
X225229000Y-85885000D01*
G75*
G02*
X225280000Y-85834000I51000J0D01*
G01*
X226580000Y-85834000D01*
G75*
G02*
X226631000Y-85885000I0J-51000D01*
G01*
X226631000Y-86835000D01*
G75*
G02*
X226580000Y-86886000I-51000J0D01*
G01*
X225280000Y-86886000D01*
G75*
G02*
X225229000Y-86835000I0J51000D01*
G01*
G37*
G36*
G01*
X221679000Y-89375000D02*
X221679000Y-88425000D01*
G75*
G02*
X221730000Y-88374000I51000J0D01*
G01*
X223030000Y-88374000D01*
G75*
G02*
X223081000Y-88425000I0J-51000D01*
G01*
X223081000Y-89375000D01*
G75*
G02*
X223030000Y-89426000I-51000J0D01*
G01*
X221730000Y-89426000D01*
G75*
G02*
X221679000Y-89375000I0J51000D01*
G01*
G37*
G36*
G01*
X219595500Y-89598501D02*
X219595500Y-88201499D01*
G75*
G02*
X219646499Y-88150500I50999J0D01*
G01*
X221043501Y-88150500D01*
G75*
G02*
X221094500Y-88201499I0J-50999D01*
G01*
X221094500Y-89598501D01*
G75*
G02*
X221043501Y-89649500I-50999J0D01*
G01*
X219646499Y-89649500D01*
G75*
G02*
X219595500Y-89598501I0J50999D01*
G01*
G37*
X227965000Y-88900000D03*
G36*
G01*
X225229000Y-89375000D02*
X225229000Y-88425000D01*
G75*
G02*
X225280000Y-88374000I51000J0D01*
G01*
X226580000Y-88374000D01*
G75*
G02*
X226631000Y-88425000I0J-51000D01*
G01*
X226631000Y-89375000D01*
G75*
G02*
X226580000Y-89426000I-51000J0D01*
G01*
X225280000Y-89426000D01*
G75*
G02*
X225229000Y-89375000I0J51000D01*
G01*
G37*
G36*
G01*
X202629000Y-89375000D02*
X202629000Y-88425000D01*
G75*
G02*
X202680000Y-88374000I51000J0D01*
G01*
X203980000Y-88374000D01*
G75*
G02*
X204031000Y-88425000I0J-51000D01*
G01*
X204031000Y-89375000D01*
G75*
G02*
X203980000Y-89426000I-51000J0D01*
G01*
X202680000Y-89426000D01*
G75*
G02*
X202629000Y-89375000I0J51000D01*
G01*
G37*
G36*
G01*
X200545500Y-89598501D02*
X200545500Y-88201499D01*
G75*
G02*
X200596499Y-88150500I50999J0D01*
G01*
X201993501Y-88150500D01*
G75*
G02*
X202044500Y-88201499I0J-50999D01*
G01*
X202044500Y-89598501D01*
G75*
G02*
X201993501Y-89649500I-50999J0D01*
G01*
X200596499Y-89649500D01*
G75*
G02*
X200545500Y-89598501I0J50999D01*
G01*
G37*
X208915000Y-88900000D03*
G36*
G01*
X206179000Y-89375000D02*
X206179000Y-88425000D01*
G75*
G02*
X206230000Y-88374000I51000J0D01*
G01*
X207530000Y-88374000D01*
G75*
G02*
X207581000Y-88425000I0J-51000D01*
G01*
X207581000Y-89375000D01*
G75*
G02*
X207530000Y-89426000I-51000J0D01*
G01*
X206230000Y-89426000D01*
G75*
G02*
X206179000Y-89375000I0J51000D01*
G01*
G37*
G36*
G01*
X183579000Y-89375000D02*
X183579000Y-88425000D01*
G75*
G02*
X183630000Y-88374000I51000J0D01*
G01*
X184930000Y-88374000D01*
G75*
G02*
X184981000Y-88425000I0J-51000D01*
G01*
X184981000Y-89375000D01*
G75*
G02*
X184930000Y-89426000I-51000J0D01*
G01*
X183630000Y-89426000D01*
G75*
G02*
X183579000Y-89375000I0J51000D01*
G01*
G37*
G36*
G01*
X181495500Y-89598501D02*
X181495500Y-88201499D01*
G75*
G02*
X181546499Y-88150500I50999J0D01*
G01*
X182943501Y-88150500D01*
G75*
G02*
X182994500Y-88201499I0J-50999D01*
G01*
X182994500Y-89598501D01*
G75*
G02*
X182943501Y-89649500I-50999J0D01*
G01*
X181546499Y-89649500D01*
G75*
G02*
X181495500Y-89598501I0J50999D01*
G01*
G37*
X189865000Y-88900000D03*
G36*
G01*
X187129000Y-89375000D02*
X187129000Y-88425000D01*
G75*
G02*
X187180000Y-88374000I51000J0D01*
G01*
X188480000Y-88374000D01*
G75*
G02*
X188531000Y-88425000I0J-51000D01*
G01*
X188531000Y-89375000D01*
G75*
G02*
X188480000Y-89426000I-51000J0D01*
G01*
X187180000Y-89426000D01*
G75*
G02*
X187129000Y-89375000I0J51000D01*
G01*
G37*
G36*
G01*
X164529000Y-89375000D02*
X164529000Y-88425000D01*
G75*
G02*
X164580000Y-88374000I51000J0D01*
G01*
X165880000Y-88374000D01*
G75*
G02*
X165931000Y-88425000I0J-51000D01*
G01*
X165931000Y-89375000D01*
G75*
G02*
X165880000Y-89426000I-51000J0D01*
G01*
X164580000Y-89426000D01*
G75*
G02*
X164529000Y-89375000I0J51000D01*
G01*
G37*
G36*
G01*
X162445500Y-89598501D02*
X162445500Y-88201499D01*
G75*
G02*
X162496499Y-88150500I50999J0D01*
G01*
X163893501Y-88150500D01*
G75*
G02*
X163944500Y-88201499I0J-50999D01*
G01*
X163944500Y-89598501D01*
G75*
G02*
X163893501Y-89649500I-50999J0D01*
G01*
X162496499Y-89649500D01*
G75*
G02*
X162445500Y-89598501I0J50999D01*
G01*
G37*
X170815000Y-88900000D03*
G36*
G01*
X168079000Y-89375000D02*
X168079000Y-88425000D01*
G75*
G02*
X168130000Y-88374000I51000J0D01*
G01*
X169430000Y-88374000D01*
G75*
G02*
X169481000Y-88425000I0J-51000D01*
G01*
X169481000Y-89375000D01*
G75*
G02*
X169430000Y-89426000I-51000J0D01*
G01*
X168130000Y-89426000D01*
G75*
G02*
X168079000Y-89375000I0J51000D01*
G01*
G37*
G36*
G01*
X145479000Y-89375000D02*
X145479000Y-88425000D01*
G75*
G02*
X145530000Y-88374000I51000J0D01*
G01*
X146830000Y-88374000D01*
G75*
G02*
X146881000Y-88425000I0J-51000D01*
G01*
X146881000Y-89375000D01*
G75*
G02*
X146830000Y-89426000I-51000J0D01*
G01*
X145530000Y-89426000D01*
G75*
G02*
X145479000Y-89375000I0J51000D01*
G01*
G37*
G36*
G01*
X143395500Y-89598501D02*
X143395500Y-88201499D01*
G75*
G02*
X143446499Y-88150500I50999J0D01*
G01*
X144843501Y-88150500D01*
G75*
G02*
X144894500Y-88201499I0J-50999D01*
G01*
X144894500Y-89598501D01*
G75*
G02*
X144843501Y-89649500I-50999J0D01*
G01*
X143446499Y-89649500D01*
G75*
G02*
X143395500Y-89598501I0J50999D01*
G01*
G37*
X151765000Y-88900000D03*
G36*
G01*
X149029000Y-89375000D02*
X149029000Y-88425000D01*
G75*
G02*
X149080000Y-88374000I51000J0D01*
G01*
X150380000Y-88374000D01*
G75*
G02*
X150431000Y-88425000I0J-51000D01*
G01*
X150431000Y-89375000D01*
G75*
G02*
X150380000Y-89426000I-51000J0D01*
G01*
X149080000Y-89426000D01*
G75*
G02*
X149029000Y-89375000I0J51000D01*
G01*
G37*
G36*
G01*
X126429000Y-89375000D02*
X126429000Y-88425000D01*
G75*
G02*
X126480000Y-88374000I51000J0D01*
G01*
X127780000Y-88374000D01*
G75*
G02*
X127831000Y-88425000I0J-51000D01*
G01*
X127831000Y-89375000D01*
G75*
G02*
X127780000Y-89426000I-51000J0D01*
G01*
X126480000Y-89426000D01*
G75*
G02*
X126429000Y-89375000I0J51000D01*
G01*
G37*
G36*
G01*
X124345500Y-89598501D02*
X124345500Y-88201499D01*
G75*
G02*
X124396499Y-88150500I50999J0D01*
G01*
X125793501Y-88150500D01*
G75*
G02*
X125844500Y-88201499I0J-50999D01*
G01*
X125844500Y-89598501D01*
G75*
G02*
X125793501Y-89649500I-50999J0D01*
G01*
X124396499Y-89649500D01*
G75*
G02*
X124345500Y-89598501I0J50999D01*
G01*
G37*
X132715000Y-88900000D03*
G36*
G01*
X129979000Y-89375000D02*
X129979000Y-88425000D01*
G75*
G02*
X130030000Y-88374000I51000J0D01*
G01*
X131330000Y-88374000D01*
G75*
G02*
X131381000Y-88425000I0J-51000D01*
G01*
X131381000Y-89375000D01*
G75*
G02*
X131330000Y-89426000I-51000J0D01*
G01*
X130030000Y-89426000D01*
G75*
G02*
X129979000Y-89375000I0J51000D01*
G01*
G37*
G36*
G01*
X202629000Y-86835000D02*
X202629000Y-85885000D01*
G75*
G02*
X202680000Y-85834000I51000J0D01*
G01*
X203980000Y-85834000D01*
G75*
G02*
X204031000Y-85885000I0J-51000D01*
G01*
X204031000Y-86835000D01*
G75*
G02*
X203980000Y-86886000I-51000J0D01*
G01*
X202680000Y-86886000D01*
G75*
G02*
X202629000Y-86835000I0J51000D01*
G01*
G37*
G36*
G01*
X200545500Y-87058501D02*
X200545500Y-85661499D01*
G75*
G02*
X200596499Y-85610500I50999J0D01*
G01*
X201993501Y-85610500D01*
G75*
G02*
X202044500Y-85661499I0J-50999D01*
G01*
X202044500Y-87058501D01*
G75*
G02*
X201993501Y-87109500I-50999J0D01*
G01*
X200596499Y-87109500D01*
G75*
G02*
X200545500Y-87058501I0J50999D01*
G01*
G37*
X208915000Y-86360000D03*
G36*
G01*
X206179000Y-86835000D02*
X206179000Y-85885000D01*
G75*
G02*
X206230000Y-85834000I51000J0D01*
G01*
X207530000Y-85834000D01*
G75*
G02*
X207581000Y-85885000I0J-51000D01*
G01*
X207581000Y-86835000D01*
G75*
G02*
X207530000Y-86886000I-51000J0D01*
G01*
X206230000Y-86886000D01*
G75*
G02*
X206179000Y-86835000I0J51000D01*
G01*
G37*
G36*
G01*
X183579000Y-86835000D02*
X183579000Y-85885000D01*
G75*
G02*
X183630000Y-85834000I51000J0D01*
G01*
X184930000Y-85834000D01*
G75*
G02*
X184981000Y-85885000I0J-51000D01*
G01*
X184981000Y-86835000D01*
G75*
G02*
X184930000Y-86886000I-51000J0D01*
G01*
X183630000Y-86886000D01*
G75*
G02*
X183579000Y-86835000I0J51000D01*
G01*
G37*
G36*
G01*
X181495500Y-87058501D02*
X181495500Y-85661499D01*
G75*
G02*
X181546499Y-85610500I50999J0D01*
G01*
X182943501Y-85610500D01*
G75*
G02*
X182994500Y-85661499I0J-50999D01*
G01*
X182994500Y-87058501D01*
G75*
G02*
X182943501Y-87109500I-50999J0D01*
G01*
X181546499Y-87109500D01*
G75*
G02*
X181495500Y-87058501I0J50999D01*
G01*
G37*
X189865000Y-86360000D03*
G36*
G01*
X187129000Y-86835000D02*
X187129000Y-85885000D01*
G75*
G02*
X187180000Y-85834000I51000J0D01*
G01*
X188480000Y-85834000D01*
G75*
G02*
X188531000Y-85885000I0J-51000D01*
G01*
X188531000Y-86835000D01*
G75*
G02*
X188480000Y-86886000I-51000J0D01*
G01*
X187180000Y-86886000D01*
G75*
G02*
X187129000Y-86835000I0J51000D01*
G01*
G37*
G36*
G01*
X164529000Y-86835000D02*
X164529000Y-85885000D01*
G75*
G02*
X164580000Y-85834000I51000J0D01*
G01*
X165880000Y-85834000D01*
G75*
G02*
X165931000Y-85885000I0J-51000D01*
G01*
X165931000Y-86835000D01*
G75*
G02*
X165880000Y-86886000I-51000J0D01*
G01*
X164580000Y-86886000D01*
G75*
G02*
X164529000Y-86835000I0J51000D01*
G01*
G37*
G36*
G01*
X162445500Y-87058501D02*
X162445500Y-85661499D01*
G75*
G02*
X162496499Y-85610500I50999J0D01*
G01*
X163893501Y-85610500D01*
G75*
G02*
X163944500Y-85661499I0J-50999D01*
G01*
X163944500Y-87058501D01*
G75*
G02*
X163893501Y-87109500I-50999J0D01*
G01*
X162496499Y-87109500D01*
G75*
G02*
X162445500Y-87058501I0J50999D01*
G01*
G37*
X170815000Y-86360000D03*
G36*
G01*
X168079000Y-86835000D02*
X168079000Y-85885000D01*
G75*
G02*
X168130000Y-85834000I51000J0D01*
G01*
X169430000Y-85834000D01*
G75*
G02*
X169481000Y-85885000I0J-51000D01*
G01*
X169481000Y-86835000D01*
G75*
G02*
X169430000Y-86886000I-51000J0D01*
G01*
X168130000Y-86886000D01*
G75*
G02*
X168079000Y-86835000I0J51000D01*
G01*
G37*
G36*
G01*
X145479000Y-86835000D02*
X145479000Y-85885000D01*
G75*
G02*
X145530000Y-85834000I51000J0D01*
G01*
X146830000Y-85834000D01*
G75*
G02*
X146881000Y-85885000I0J-51000D01*
G01*
X146881000Y-86835000D01*
G75*
G02*
X146830000Y-86886000I-51000J0D01*
G01*
X145530000Y-86886000D01*
G75*
G02*
X145479000Y-86835000I0J51000D01*
G01*
G37*
G36*
G01*
X143395500Y-87058501D02*
X143395500Y-85661499D01*
G75*
G02*
X143446499Y-85610500I50999J0D01*
G01*
X144843501Y-85610500D01*
G75*
G02*
X144894500Y-85661499I0J-50999D01*
G01*
X144894500Y-87058501D01*
G75*
G02*
X144843501Y-87109500I-50999J0D01*
G01*
X143446499Y-87109500D01*
G75*
G02*
X143395500Y-87058501I0J50999D01*
G01*
G37*
X151765000Y-86360000D03*
G36*
G01*
X149029000Y-86835000D02*
X149029000Y-85885000D01*
G75*
G02*
X149080000Y-85834000I51000J0D01*
G01*
X150380000Y-85834000D01*
G75*
G02*
X150431000Y-85885000I0J-51000D01*
G01*
X150431000Y-86835000D01*
G75*
G02*
X150380000Y-86886000I-51000J0D01*
G01*
X149080000Y-86886000D01*
G75*
G02*
X149029000Y-86835000I0J51000D01*
G01*
G37*
G36*
G01*
X126429000Y-86835000D02*
X126429000Y-85885000D01*
G75*
G02*
X126480000Y-85834000I51000J0D01*
G01*
X127780000Y-85834000D01*
G75*
G02*
X127831000Y-85885000I0J-51000D01*
G01*
X127831000Y-86835000D01*
G75*
G02*
X127780000Y-86886000I-51000J0D01*
G01*
X126480000Y-86886000D01*
G75*
G02*
X126429000Y-86835000I0J51000D01*
G01*
G37*
G36*
G01*
X124345500Y-87058501D02*
X124345500Y-85661499D01*
G75*
G02*
X124396499Y-85610500I50999J0D01*
G01*
X125793501Y-85610500D01*
G75*
G02*
X125844500Y-85661499I0J-50999D01*
G01*
X125844500Y-87058501D01*
G75*
G02*
X125793501Y-87109500I-50999J0D01*
G01*
X124396499Y-87109500D01*
G75*
G02*
X124345500Y-87058501I0J50999D01*
G01*
G37*
X132715000Y-86360000D03*
G36*
G01*
X129979000Y-86835000D02*
X129979000Y-85885000D01*
G75*
G02*
X130030000Y-85834000I51000J0D01*
G01*
X131330000Y-85834000D01*
G75*
G02*
X131381000Y-85885000I0J-51000D01*
G01*
X131381000Y-86835000D01*
G75*
G02*
X131330000Y-86886000I-51000J0D01*
G01*
X130030000Y-86886000D01*
G75*
G02*
X129979000Y-86835000I0J51000D01*
G01*
G37*
D13*
X27305000Y-104140000D03*
X29845000Y-104140000D03*
X32385000Y-104140000D03*
G36*
G01*
X34075000Y-103239000D02*
X35775000Y-103239000D01*
G75*
G02*
X35826000Y-103290000I0J-51000D01*
G01*
X35826000Y-104990000D01*
G75*
G02*
X35775000Y-105041000I-51000J0D01*
G01*
X34075000Y-105041000D01*
G75*
G02*
X34024000Y-104990000I0J51000D01*
G01*
X34024000Y-103290000D01*
G75*
G02*
X34075000Y-103239000I51000J0D01*
G01*
G37*
G36*
G01*
X22301200Y-71303950D02*
X24053800Y-71303950D01*
G75*
G02*
X24104800Y-71354950I0J-51000D01*
G01*
X24104800Y-73107550D01*
G75*
G02*
X24053800Y-73158550I-51000J0D01*
G01*
X22301200Y-73158550D01*
G75*
G02*
X22250200Y-73107550I0J51000D01*
G01*
X22250200Y-71354950D01*
G75*
G02*
X22301200Y-71303950I51000J0D01*
G01*
G37*
D14*
X23177500Y-74771250D03*
X23177500Y-77311250D03*
X23177500Y-79851250D03*
X23177500Y-82391250D03*
X23177500Y-84931250D03*
X23177500Y-87471250D03*
X23177500Y-90011250D03*
X23177500Y-92551250D03*
X23177500Y-95091250D03*
X23177500Y-97631250D03*
X38417500Y-100171250D03*
X38417500Y-97631250D03*
X38417500Y-95091250D03*
X38417500Y-92551250D03*
X38417500Y-90011250D03*
X38417500Y-87471250D03*
X38417500Y-84931250D03*
X38417500Y-82391250D03*
X38417500Y-79851250D03*
X38417500Y-77311250D03*
X38417500Y-74771250D03*
X23177500Y-100171250D03*
X38417500Y-72231250D03*
D11*
X224155000Y-97155000D03*
D10*
X219075000Y-97155000D03*
X229235000Y-97155000D03*
D11*
X205105000Y-97155000D03*
D10*
X200025000Y-97155000D03*
X210185000Y-97155000D03*
D11*
X186055000Y-97155000D03*
D10*
X180975000Y-97155000D03*
X191135000Y-97155000D03*
D11*
X167005000Y-97155000D03*
D10*
X161925000Y-97155000D03*
X172085000Y-97155000D03*
D11*
X147955000Y-97155000D03*
D10*
X142875000Y-97155000D03*
X153035000Y-97155000D03*
D11*
X128905000Y-97155000D03*
D10*
X123825000Y-97155000D03*
X133985000Y-97155000D03*
D11*
X109855000Y-97155000D03*
D10*
X104775000Y-97155000D03*
X114935000Y-97155000D03*
D11*
X224155000Y-78105000D03*
D10*
X219075000Y-78105000D03*
X229235000Y-78105000D03*
D11*
X205105000Y-78105000D03*
D10*
X200025000Y-78105000D03*
X210185000Y-78105000D03*
D11*
X186055000Y-78105000D03*
D10*
X180975000Y-78105000D03*
X191135000Y-78105000D03*
D11*
X167005000Y-78105000D03*
D10*
X161925000Y-78105000D03*
X172085000Y-78105000D03*
D11*
X147955000Y-78105000D03*
D10*
X142875000Y-78105000D03*
X153035000Y-78105000D03*
D11*
X128905000Y-78105000D03*
D10*
X123825000Y-78105000D03*
X133985000Y-78105000D03*
D11*
X109855000Y-78105000D03*
D10*
X104775000Y-78105000D03*
X114935000Y-78105000D03*
D11*
X52705000Y-97155000D03*
D10*
X47625000Y-97155000D03*
X57785000Y-97155000D03*
X57785000Y-78105000D03*
X47625000Y-78105000D03*
D11*
X52705000Y-78105000D03*
X71755000Y-78105000D03*
D10*
X66675000Y-78105000D03*
X76835000Y-78105000D03*
X95885000Y-78105000D03*
X85725000Y-78105000D03*
D11*
X90805000Y-78105000D03*
X90805000Y-97155000D03*
D10*
X85725000Y-97155000D03*
X95885000Y-97155000D03*
G36*
G01*
X43612000Y-89408000D02*
X43612000Y-90932000D01*
G75*
G02*
X43561000Y-90983000I-51000J0D01*
G01*
X42037000Y-90983000D01*
G75*
G02*
X41986000Y-90932000I0J51000D01*
G01*
X41986000Y-89408000D01*
G75*
G02*
X42037000Y-89357000I51000J0D01*
G01*
X43561000Y-89357000D01*
G75*
G02*
X43612000Y-89408000I0J-51000D01*
G01*
G37*
D15*
X42799000Y-87630000D03*
X42799000Y-85090000D03*
M02*
