G04 #@! TF.GenerationSoftware,KiCad,Pcbnew,5.1.12-1.fc33*
G04 #@! TF.CreationDate,2022-01-04T15:50:15-05:00*
G04 #@! TF.ProjectId,crisco,63726973-636f-42e6-9b69-6361645f7063,rev?*
G04 #@! TF.SameCoordinates,Original*
G04 #@! TF.FileFunction,Legend,Bot*
G04 #@! TF.FilePolarity,Positive*
%FSLAX46Y46*%
G04 Gerber Fmt 4.6, Leading zero omitted, Abs format (unit mm)*
G04 Created by KiCad (PCBNEW 5.1.12-1.fc33) date 2022-01-04 15:50:15*
%MOMM*%
%LPD*%
G01*
G04 APERTURE LIST*
%ADD10C,0.010000*%
%ADD11C,0.150000*%
G04 APERTURE END LIST*
D10*
G36*
X219886114Y-102484509D02*
G01*
X219919089Y-102588182D01*
X220084136Y-102742896D01*
X220215298Y-102835928D01*
X220457455Y-103034195D01*
X220602688Y-103231392D01*
X220630219Y-103394324D01*
X220598407Y-103447880D01*
X220516700Y-103420060D01*
X220360188Y-103291509D01*
X220174759Y-103102833D01*
X219977579Y-102895319D01*
X219822938Y-102750085D01*
X219749167Y-102700666D01*
X219724796Y-102772400D01*
X219744800Y-102947897D01*
X219750778Y-102975833D01*
X219799075Y-103206997D01*
X219828776Y-103378959D01*
X219828907Y-103379997D01*
X219889556Y-103512066D01*
X220029600Y-103725605D01*
X220215011Y-103976352D01*
X220411760Y-104220043D01*
X220585817Y-104412418D01*
X220693074Y-104504040D01*
X220788978Y-104512520D01*
X220810667Y-104414047D01*
X220752419Y-104259739D01*
X220606980Y-104066610D01*
X220549108Y-104007673D01*
X220345283Y-103781565D01*
X220179115Y-103543940D01*
X220157843Y-103505000D01*
X220028136Y-103251000D01*
X220275868Y-103483833D01*
X220499264Y-103662587D01*
X220656896Y-103700928D01*
X220775864Y-103600040D01*
X220824785Y-103507825D01*
X220919939Y-103298984D01*
X221168133Y-103507825D01*
X221441662Y-103678909D01*
X221668048Y-103698187D01*
X221835440Y-103564713D01*
X221837594Y-103561300D01*
X221993195Y-103453985D01*
X222218905Y-103455514D01*
X222458640Y-103561814D01*
X222522014Y-103610990D01*
X222704861Y-103701544D01*
X222853185Y-103656845D01*
X222949997Y-103510061D01*
X222978310Y-103294362D01*
X222921134Y-103042918D01*
X222868012Y-102935435D01*
X222725156Y-102749628D01*
X222577430Y-102641638D01*
X222462853Y-102629410D01*
X222419334Y-102723669D01*
X222477575Y-102866820D01*
X222588667Y-102997000D01*
X222717175Y-103167133D01*
X222758000Y-103303798D01*
X222718630Y-103415876D01*
X222618214Y-103399816D01*
X222483296Y-103272397D01*
X222340418Y-103050402D01*
X222332271Y-103034635D01*
X222178266Y-102783121D01*
X222043653Y-102642434D01*
X221951149Y-102615249D01*
X221923473Y-102704243D01*
X221983342Y-102912091D01*
X222021790Y-102998063D01*
X222098975Y-103184536D01*
X222118447Y-103286718D01*
X222110684Y-103293333D01*
X222030332Y-103236097D01*
X221872694Y-103086984D01*
X221842258Y-103055434D01*
X221572667Y-103055434D01*
X221516578Y-103079990D01*
X221389856Y-103030697D01*
X221254820Y-102938576D01*
X221187904Y-102863911D01*
X221168743Y-102746675D01*
X221182670Y-102723774D01*
X221270611Y-102736441D01*
X221404621Y-102830694D01*
X221525075Y-102955825D01*
X221572667Y-103055434D01*
X221842258Y-103055434D01*
X221697424Y-102905304D01*
X221455091Y-102670791D01*
X221270750Y-102559190D01*
X221136871Y-102545470D01*
X220973351Y-102613658D01*
X220957569Y-102738923D01*
X221085258Y-102903728D01*
X221255167Y-103031575D01*
X221458309Y-103193076D01*
X221563571Y-103337895D01*
X221556440Y-103436496D01*
X221466834Y-103462350D01*
X221317433Y-103418768D01*
X221120702Y-103314064D01*
X220936004Y-103186347D01*
X220822701Y-103073727D01*
X220810667Y-103041108D01*
X220745273Y-102942510D01*
X220582613Y-102797407D01*
X220372966Y-102642380D01*
X220166612Y-102514012D01*
X220013834Y-102448885D01*
X219993631Y-102446666D01*
X219886114Y-102484509D01*
G37*
X219886114Y-102484509D02*
X219919089Y-102588182D01*
X220084136Y-102742896D01*
X220215298Y-102835928D01*
X220457455Y-103034195D01*
X220602688Y-103231392D01*
X220630219Y-103394324D01*
X220598407Y-103447880D01*
X220516700Y-103420060D01*
X220360188Y-103291509D01*
X220174759Y-103102833D01*
X219977579Y-102895319D01*
X219822938Y-102750085D01*
X219749167Y-102700666D01*
X219724796Y-102772400D01*
X219744800Y-102947897D01*
X219750778Y-102975833D01*
X219799075Y-103206997D01*
X219828776Y-103378959D01*
X219828907Y-103379997D01*
X219889556Y-103512066D01*
X220029600Y-103725605D01*
X220215011Y-103976352D01*
X220411760Y-104220043D01*
X220585817Y-104412418D01*
X220693074Y-104504040D01*
X220788978Y-104512520D01*
X220810667Y-104414047D01*
X220752419Y-104259739D01*
X220606980Y-104066610D01*
X220549108Y-104007673D01*
X220345283Y-103781565D01*
X220179115Y-103543940D01*
X220157843Y-103505000D01*
X220028136Y-103251000D01*
X220275868Y-103483833D01*
X220499264Y-103662587D01*
X220656896Y-103700928D01*
X220775864Y-103600040D01*
X220824785Y-103507825D01*
X220919939Y-103298984D01*
X221168133Y-103507825D01*
X221441662Y-103678909D01*
X221668048Y-103698187D01*
X221835440Y-103564713D01*
X221837594Y-103561300D01*
X221993195Y-103453985D01*
X222218905Y-103455514D01*
X222458640Y-103561814D01*
X222522014Y-103610990D01*
X222704861Y-103701544D01*
X222853185Y-103656845D01*
X222949997Y-103510061D01*
X222978310Y-103294362D01*
X222921134Y-103042918D01*
X222868012Y-102935435D01*
X222725156Y-102749628D01*
X222577430Y-102641638D01*
X222462853Y-102629410D01*
X222419334Y-102723669D01*
X222477575Y-102866820D01*
X222588667Y-102997000D01*
X222717175Y-103167133D01*
X222758000Y-103303798D01*
X222718630Y-103415876D01*
X222618214Y-103399816D01*
X222483296Y-103272397D01*
X222340418Y-103050402D01*
X222332271Y-103034635D01*
X222178266Y-102783121D01*
X222043653Y-102642434D01*
X221951149Y-102615249D01*
X221923473Y-102704243D01*
X221983342Y-102912091D01*
X222021790Y-102998063D01*
X222098975Y-103184536D01*
X222118447Y-103286718D01*
X222110684Y-103293333D01*
X222030332Y-103236097D01*
X221872694Y-103086984D01*
X221842258Y-103055434D01*
X221572667Y-103055434D01*
X221516578Y-103079990D01*
X221389856Y-103030697D01*
X221254820Y-102938576D01*
X221187904Y-102863911D01*
X221168743Y-102746675D01*
X221182670Y-102723774D01*
X221270611Y-102736441D01*
X221404621Y-102830694D01*
X221525075Y-102955825D01*
X221572667Y-103055434D01*
X221842258Y-103055434D01*
X221697424Y-102905304D01*
X221455091Y-102670791D01*
X221270750Y-102559190D01*
X221136871Y-102545470D01*
X220973351Y-102613658D01*
X220957569Y-102738923D01*
X221085258Y-102903728D01*
X221255167Y-103031575D01*
X221458309Y-103193076D01*
X221563571Y-103337895D01*
X221556440Y-103436496D01*
X221466834Y-103462350D01*
X221317433Y-103418768D01*
X221120702Y-103314064D01*
X220936004Y-103186347D01*
X220822701Y-103073727D01*
X220810667Y-103041108D01*
X220745273Y-102942510D01*
X220582613Y-102797407D01*
X220372966Y-102642380D01*
X220166612Y-102514012D01*
X220013834Y-102448885D01*
X219993631Y-102446666D01*
X219886114Y-102484509D01*
G36*
X204724000Y-101856987D02*
G01*
X204761465Y-101967651D01*
X204861310Y-102186514D01*
X205004716Y-102473181D01*
X205062667Y-102583852D01*
X205217650Y-102889739D01*
X205335353Y-103147496D01*
X205396702Y-103314376D01*
X205401334Y-103342865D01*
X205350442Y-103450608D01*
X205226807Y-103456005D01*
X205073988Y-103379786D01*
X204935546Y-103242680D01*
X204859395Y-103084970D01*
X204757823Y-102895684D01*
X204584856Y-102730013D01*
X204398316Y-102634217D01*
X204293740Y-102632420D01*
X204276742Y-102710393D01*
X204374886Y-102874229D01*
X204418027Y-102927768D01*
X204585997Y-103171562D01*
X204625672Y-103327856D01*
X204558863Y-103387516D01*
X204407384Y-103341405D01*
X204193048Y-103180391D01*
X204082246Y-103068389D01*
X203806057Y-102798436D01*
X203535719Y-102588302D01*
X203310598Y-102466385D01*
X203221167Y-102447224D01*
X203119657Y-102484986D01*
X203156077Y-102589120D01*
X203320673Y-102743154D01*
X203451298Y-102835928D01*
X203693455Y-103034195D01*
X203838688Y-103231392D01*
X203866219Y-103394324D01*
X203834407Y-103447880D01*
X203752700Y-103420060D01*
X203596188Y-103291509D01*
X203410759Y-103102833D01*
X203213579Y-102895319D01*
X203058938Y-102750085D01*
X202985167Y-102700666D01*
X202960796Y-102772400D01*
X202980800Y-102947897D01*
X202986778Y-102975833D01*
X203035075Y-103206997D01*
X203064776Y-103378959D01*
X203064907Y-103379997D01*
X203125556Y-103512066D01*
X203265600Y-103725605D01*
X203451011Y-103976352D01*
X203647760Y-104220043D01*
X203821817Y-104412418D01*
X203929074Y-104504040D01*
X204024978Y-104512520D01*
X204046667Y-104414047D01*
X203988419Y-104259739D01*
X203842980Y-104066610D01*
X203785108Y-104007673D01*
X203581283Y-103781565D01*
X203415115Y-103543940D01*
X203393843Y-103505000D01*
X203264136Y-103251000D01*
X203511868Y-103483833D01*
X203732809Y-103661885D01*
X203888425Y-103702799D01*
X204008362Y-103609629D01*
X204050926Y-103539374D01*
X204145810Y-103362082D01*
X204334529Y-103539374D01*
X204538093Y-103688746D01*
X204688982Y-103688345D01*
X204813262Y-103538748D01*
X204880864Y-103430068D01*
X204950285Y-103420379D01*
X205071303Y-103517352D01*
X205148027Y-103590330D01*
X205355141Y-103742212D01*
X205495570Y-103741125D01*
X205564339Y-103588320D01*
X205570667Y-103484162D01*
X205570667Y-103261652D01*
X205830956Y-103510326D01*
X205997505Y-103661424D01*
X206093488Y-103704624D01*
X206168855Y-103650982D01*
X206211956Y-103594651D01*
X206322169Y-103351034D01*
X206312357Y-103298042D01*
X206078667Y-103298042D01*
X206070539Y-103403641D01*
X206019084Y-103412921D01*
X205883692Y-103323435D01*
X205828783Y-103282989D01*
X205650337Y-103129949D01*
X205541381Y-102997686D01*
X205535107Y-102984120D01*
X205516178Y-102892580D01*
X205579588Y-102884214D01*
X205752922Y-102960434D01*
X205828872Y-102999174D01*
X206017802Y-103148779D01*
X206078667Y-103298042D01*
X206312357Y-103298042D01*
X206276931Y-103106728D01*
X206166204Y-102935211D01*
X206000158Y-102778064D01*
X205788618Y-102643417D01*
X205585490Y-102558473D01*
X205444685Y-102550438D01*
X205426952Y-102562159D01*
X205360533Y-102524761D01*
X205243257Y-102372942D01*
X205131621Y-102192555D01*
X204964951Y-101934033D01*
X204831170Y-101789870D01*
X204746183Y-101773161D01*
X204724000Y-101856987D01*
G37*
X204724000Y-101856987D02*
X204761465Y-101967651D01*
X204861310Y-102186514D01*
X205004716Y-102473181D01*
X205062667Y-102583852D01*
X205217650Y-102889739D01*
X205335353Y-103147496D01*
X205396702Y-103314376D01*
X205401334Y-103342865D01*
X205350442Y-103450608D01*
X205226807Y-103456005D01*
X205073988Y-103379786D01*
X204935546Y-103242680D01*
X204859395Y-103084970D01*
X204757823Y-102895684D01*
X204584856Y-102730013D01*
X204398316Y-102634217D01*
X204293740Y-102632420D01*
X204276742Y-102710393D01*
X204374886Y-102874229D01*
X204418027Y-102927768D01*
X204585997Y-103171562D01*
X204625672Y-103327856D01*
X204558863Y-103387516D01*
X204407384Y-103341405D01*
X204193048Y-103180391D01*
X204082246Y-103068389D01*
X203806057Y-102798436D01*
X203535719Y-102588302D01*
X203310598Y-102466385D01*
X203221167Y-102447224D01*
X203119657Y-102484986D01*
X203156077Y-102589120D01*
X203320673Y-102743154D01*
X203451298Y-102835928D01*
X203693455Y-103034195D01*
X203838688Y-103231392D01*
X203866219Y-103394324D01*
X203834407Y-103447880D01*
X203752700Y-103420060D01*
X203596188Y-103291509D01*
X203410759Y-103102833D01*
X203213579Y-102895319D01*
X203058938Y-102750085D01*
X202985167Y-102700666D01*
X202960796Y-102772400D01*
X202980800Y-102947897D01*
X202986778Y-102975833D01*
X203035075Y-103206997D01*
X203064776Y-103378959D01*
X203064907Y-103379997D01*
X203125556Y-103512066D01*
X203265600Y-103725605D01*
X203451011Y-103976352D01*
X203647760Y-104220043D01*
X203821817Y-104412418D01*
X203929074Y-104504040D01*
X204024978Y-104512520D01*
X204046667Y-104414047D01*
X203988419Y-104259739D01*
X203842980Y-104066610D01*
X203785108Y-104007673D01*
X203581283Y-103781565D01*
X203415115Y-103543940D01*
X203393843Y-103505000D01*
X203264136Y-103251000D01*
X203511868Y-103483833D01*
X203732809Y-103661885D01*
X203888425Y-103702799D01*
X204008362Y-103609629D01*
X204050926Y-103539374D01*
X204145810Y-103362082D01*
X204334529Y-103539374D01*
X204538093Y-103688746D01*
X204688982Y-103688345D01*
X204813262Y-103538748D01*
X204880864Y-103430068D01*
X204950285Y-103420379D01*
X205071303Y-103517352D01*
X205148027Y-103590330D01*
X205355141Y-103742212D01*
X205495570Y-103741125D01*
X205564339Y-103588320D01*
X205570667Y-103484162D01*
X205570667Y-103261652D01*
X205830956Y-103510326D01*
X205997505Y-103661424D01*
X206093488Y-103704624D01*
X206168855Y-103650982D01*
X206211956Y-103594651D01*
X206322169Y-103351034D01*
X206312357Y-103298042D01*
X206078667Y-103298042D01*
X206070539Y-103403641D01*
X206019084Y-103412921D01*
X205883692Y-103323435D01*
X205828783Y-103282989D01*
X205650337Y-103129949D01*
X205541381Y-102997686D01*
X205535107Y-102984120D01*
X205516178Y-102892580D01*
X205579588Y-102884214D01*
X205752922Y-102960434D01*
X205828872Y-102999174D01*
X206017802Y-103148779D01*
X206078667Y-103298042D01*
X206312357Y-103298042D01*
X206276931Y-103106728D01*
X206166204Y-102935211D01*
X206000158Y-102778064D01*
X205788618Y-102643417D01*
X205585490Y-102558473D01*
X205444685Y-102550438D01*
X205426952Y-102562159D01*
X205360533Y-102524761D01*
X205243257Y-102372942D01*
X205131621Y-102192555D01*
X204964951Y-101934033D01*
X204831170Y-101789870D01*
X204746183Y-101773161D01*
X204724000Y-101856987D01*
G36*
X229313016Y-102145375D02*
G01*
X229333599Y-102213833D01*
X229401721Y-102365353D01*
X229410367Y-102404333D01*
X229430276Y-102566198D01*
X229433771Y-102594833D01*
X229516154Y-102680479D01*
X229620321Y-102700666D01*
X229785853Y-102776975D01*
X229916654Y-102994280D01*
X229997366Y-103209163D01*
X230038132Y-103360198D01*
X230039334Y-103375280D01*
X229983400Y-103456061D01*
X229845382Y-103431235D01*
X229686167Y-103322544D01*
X229571788Y-103248617D01*
X229531334Y-103272684D01*
X229595164Y-103388437D01*
X229749668Y-103543597D01*
X229939364Y-103692057D01*
X230108771Y-103787710D01*
X230167466Y-103801333D01*
X230258044Y-103725002D01*
X230311074Y-103528494D01*
X230311320Y-103526166D01*
X230267821Y-103201759D01*
X230143043Y-102975833D01*
X230027975Y-102797643D01*
X230017034Y-102716400D01*
X230077358Y-102700666D01*
X230192890Y-102665025D01*
X230208667Y-102632933D01*
X230138491Y-102495950D01*
X229979782Y-102387870D01*
X229863434Y-102362000D01*
X229691911Y-102301204D01*
X229616000Y-102235000D01*
X229493993Y-102139412D01*
X229374575Y-102108157D01*
X229313016Y-102145375D01*
G37*
X229313016Y-102145375D02*
X229333599Y-102213833D01*
X229401721Y-102365353D01*
X229410367Y-102404333D01*
X229430276Y-102566198D01*
X229433771Y-102594833D01*
X229516154Y-102680479D01*
X229620321Y-102700666D01*
X229785853Y-102776975D01*
X229916654Y-102994280D01*
X229997366Y-103209163D01*
X230038132Y-103360198D01*
X230039334Y-103375280D01*
X229983400Y-103456061D01*
X229845382Y-103431235D01*
X229686167Y-103322544D01*
X229571788Y-103248617D01*
X229531334Y-103272684D01*
X229595164Y-103388437D01*
X229749668Y-103543597D01*
X229939364Y-103692057D01*
X230108771Y-103787710D01*
X230167466Y-103801333D01*
X230258044Y-103725002D01*
X230311074Y-103528494D01*
X230311320Y-103526166D01*
X230267821Y-103201759D01*
X230143043Y-102975833D01*
X230027975Y-102797643D01*
X230017034Y-102716400D01*
X230077358Y-102700666D01*
X230192890Y-102665025D01*
X230208667Y-102632933D01*
X230138491Y-102495950D01*
X229979782Y-102387870D01*
X229863434Y-102362000D01*
X229691911Y-102301204D01*
X229616000Y-102235000D01*
X229493993Y-102139412D01*
X229374575Y-102108157D01*
X229313016Y-102145375D01*
G36*
X225665838Y-102541674D02*
G01*
X225653724Y-102679500D01*
X225706346Y-102921306D01*
X225779776Y-103079338D01*
X225878022Y-103264563D01*
X225849712Y-103355833D01*
X225710967Y-103378000D01*
X225588183Y-103395874D01*
X225612813Y-103474824D01*
X225640503Y-103509622D01*
X225816872Y-103672161D01*
X225985746Y-103750501D01*
X226098106Y-103722737D01*
X226102661Y-103716137D01*
X226121975Y-103574434D01*
X226097744Y-103440742D01*
X226074166Y-103335616D01*
X226113388Y-103332675D01*
X226239687Y-103439261D01*
X226310234Y-103505000D01*
X226481210Y-103657958D01*
X226579686Y-103704228D01*
X226654684Y-103655049D01*
X226701290Y-103594651D01*
X226813315Y-103366650D01*
X226812883Y-103362687D01*
X226584199Y-103362687D01*
X226536165Y-103419518D01*
X226404555Y-103381151D01*
X226244593Y-103253210D01*
X226074250Y-103058941D01*
X226060123Y-103039505D01*
X225948625Y-102863407D01*
X225949791Y-102797473D01*
X226071340Y-102839003D01*
X226282840Y-102961572D01*
X226446853Y-103096886D01*
X226550867Y-103242867D01*
X226584199Y-103362687D01*
X226812883Y-103362687D01*
X226789813Y-103151088D01*
X226621913Y-102928350D01*
X226300741Y-102678824D01*
X226281019Y-102665638D01*
X225972665Y-102491886D01*
X225768179Y-102450552D01*
X225665838Y-102541674D01*
G37*
X225665838Y-102541674D02*
X225653724Y-102679500D01*
X225706346Y-102921306D01*
X225779776Y-103079338D01*
X225878022Y-103264563D01*
X225849712Y-103355833D01*
X225710967Y-103378000D01*
X225588183Y-103395874D01*
X225612813Y-103474824D01*
X225640503Y-103509622D01*
X225816872Y-103672161D01*
X225985746Y-103750501D01*
X226098106Y-103722737D01*
X226102661Y-103716137D01*
X226121975Y-103574434D01*
X226097744Y-103440742D01*
X226074166Y-103335616D01*
X226113388Y-103332675D01*
X226239687Y-103439261D01*
X226310234Y-103505000D01*
X226481210Y-103657958D01*
X226579686Y-103704228D01*
X226654684Y-103655049D01*
X226701290Y-103594651D01*
X226813315Y-103366650D01*
X226812883Y-103362687D01*
X226584199Y-103362687D01*
X226536165Y-103419518D01*
X226404555Y-103381151D01*
X226244593Y-103253210D01*
X226074250Y-103058941D01*
X226060123Y-103039505D01*
X225948625Y-102863407D01*
X225949791Y-102797473D01*
X226071340Y-102839003D01*
X226282840Y-102961572D01*
X226446853Y-103096886D01*
X226550867Y-103242867D01*
X226584199Y-103362687D01*
X226812883Y-103362687D01*
X226789813Y-103151088D01*
X226621913Y-102928350D01*
X226300741Y-102678824D01*
X226281019Y-102665638D01*
X225972665Y-102491886D01*
X225768179Y-102450552D01*
X225665838Y-102541674D01*
G36*
X217544349Y-102145375D02*
G01*
X217564933Y-102213833D01*
X217633054Y-102365353D01*
X217641700Y-102404333D01*
X217661609Y-102566198D01*
X217665105Y-102594833D01*
X217747488Y-102680479D01*
X217851654Y-102700666D01*
X218017186Y-102776975D01*
X218147987Y-102994280D01*
X218228699Y-103209163D01*
X218269466Y-103360198D01*
X218270667Y-103375280D01*
X218220238Y-103462022D01*
X218090908Y-103435265D01*
X217990424Y-103362687D01*
X217524866Y-103362687D01*
X217476832Y-103419518D01*
X217345222Y-103381151D01*
X217185259Y-103253210D01*
X217014917Y-103058941D01*
X217000790Y-103039505D01*
X216889292Y-102863407D01*
X216890458Y-102797473D01*
X217012007Y-102839003D01*
X217223507Y-102961572D01*
X217387520Y-103096886D01*
X217491534Y-103242867D01*
X217524866Y-103362687D01*
X217990424Y-103362687D01*
X217915614Y-103308654D01*
X217789998Y-103176131D01*
X217548950Y-102929632D01*
X217268374Y-102704922D01*
X216995054Y-102534374D01*
X216775771Y-102450358D01*
X216735801Y-102446666D01*
X216625852Y-102514350D01*
X216591289Y-102683676D01*
X216633338Y-102904051D01*
X216720443Y-103079338D01*
X216818479Y-103264020D01*
X216789343Y-103355742D01*
X216640834Y-103380675D01*
X216524925Y-103389561D01*
X216520396Y-103433462D01*
X216634757Y-103545371D01*
X216689295Y-103593551D01*
X216894867Y-103732579D01*
X217024208Y-103732218D01*
X217063407Y-103597141D01*
X217043396Y-103474596D01*
X216987737Y-103251000D01*
X217256887Y-103505000D01*
X217526036Y-103759000D01*
X217782330Y-103379492D01*
X218032995Y-103590412D01*
X218276889Y-103760975D01*
X218435653Y-103787624D01*
X218514059Y-103669942D01*
X218524667Y-103547333D01*
X218536550Y-103365038D01*
X218591475Y-103309025D01*
X218718360Y-103375836D01*
X218878774Y-103505000D01*
X219123322Y-103672035D01*
X219326149Y-103701282D01*
X219537454Y-103597170D01*
X219577681Y-103566644D01*
X219768403Y-103416622D01*
X219569873Y-103102932D01*
X219532359Y-103055434D01*
X219286667Y-103055434D01*
X219230578Y-103079990D01*
X219103856Y-103030697D01*
X218968820Y-102938576D01*
X218901904Y-102863911D01*
X218882743Y-102746675D01*
X218896670Y-102723774D01*
X218984611Y-102736441D01*
X219118621Y-102830694D01*
X219239075Y-102955825D01*
X219286667Y-103055434D01*
X219532359Y-103055434D01*
X219333886Y-102804145D01*
X219081947Y-102608875D01*
X218848233Y-102541947D01*
X218803997Y-102546649D01*
X218670236Y-102622386D01*
X218679024Y-102755282D01*
X218823005Y-102923743D01*
X218969167Y-103031575D01*
X219170222Y-103191309D01*
X219276613Y-103335389D01*
X219273430Y-103433699D01*
X219180834Y-103459117D01*
X219010575Y-103414070D01*
X218806291Y-103305515D01*
X218597303Y-103158898D01*
X218412936Y-102999667D01*
X218282511Y-102853269D01*
X218235351Y-102745150D01*
X218300781Y-102700758D01*
X218306855Y-102700666D01*
X218423537Y-102665459D01*
X218440000Y-102632933D01*
X218369824Y-102495950D01*
X218211116Y-102387870D01*
X218094767Y-102362000D01*
X217923244Y-102301204D01*
X217847334Y-102235000D01*
X217725326Y-102139412D01*
X217605908Y-102108157D01*
X217544349Y-102145375D01*
G37*
X217544349Y-102145375D02*
X217564933Y-102213833D01*
X217633054Y-102365353D01*
X217641700Y-102404333D01*
X217661609Y-102566198D01*
X217665105Y-102594833D01*
X217747488Y-102680479D01*
X217851654Y-102700666D01*
X218017186Y-102776975D01*
X218147987Y-102994280D01*
X218228699Y-103209163D01*
X218269466Y-103360198D01*
X218270667Y-103375280D01*
X218220238Y-103462022D01*
X218090908Y-103435265D01*
X217990424Y-103362687D01*
X217524866Y-103362687D01*
X217476832Y-103419518D01*
X217345222Y-103381151D01*
X217185259Y-103253210D01*
X217014917Y-103058941D01*
X217000790Y-103039505D01*
X216889292Y-102863407D01*
X216890458Y-102797473D01*
X217012007Y-102839003D01*
X217223507Y-102961572D01*
X217387520Y-103096886D01*
X217491534Y-103242867D01*
X217524866Y-103362687D01*
X217990424Y-103362687D01*
X217915614Y-103308654D01*
X217789998Y-103176131D01*
X217548950Y-102929632D01*
X217268374Y-102704922D01*
X216995054Y-102534374D01*
X216775771Y-102450358D01*
X216735801Y-102446666D01*
X216625852Y-102514350D01*
X216591289Y-102683676D01*
X216633338Y-102904051D01*
X216720443Y-103079338D01*
X216818479Y-103264020D01*
X216789343Y-103355742D01*
X216640834Y-103380675D01*
X216524925Y-103389561D01*
X216520396Y-103433462D01*
X216634757Y-103545371D01*
X216689295Y-103593551D01*
X216894867Y-103732579D01*
X217024208Y-103732218D01*
X217063407Y-103597141D01*
X217043396Y-103474596D01*
X216987737Y-103251000D01*
X217256887Y-103505000D01*
X217526036Y-103759000D01*
X217782330Y-103379492D01*
X218032995Y-103590412D01*
X218276889Y-103760975D01*
X218435653Y-103787624D01*
X218514059Y-103669942D01*
X218524667Y-103547333D01*
X218536550Y-103365038D01*
X218591475Y-103309025D01*
X218718360Y-103375836D01*
X218878774Y-103505000D01*
X219123322Y-103672035D01*
X219326149Y-103701282D01*
X219537454Y-103597170D01*
X219577681Y-103566644D01*
X219768403Y-103416622D01*
X219569873Y-103102932D01*
X219532359Y-103055434D01*
X219286667Y-103055434D01*
X219230578Y-103079990D01*
X219103856Y-103030697D01*
X218968820Y-102938576D01*
X218901904Y-102863911D01*
X218882743Y-102746675D01*
X218896670Y-102723774D01*
X218984611Y-102736441D01*
X219118621Y-102830694D01*
X219239075Y-102955825D01*
X219286667Y-103055434D01*
X219532359Y-103055434D01*
X219333886Y-102804145D01*
X219081947Y-102608875D01*
X218848233Y-102541947D01*
X218803997Y-102546649D01*
X218670236Y-102622386D01*
X218679024Y-102755282D01*
X218823005Y-102923743D01*
X218969167Y-103031575D01*
X219170222Y-103191309D01*
X219276613Y-103335389D01*
X219273430Y-103433699D01*
X219180834Y-103459117D01*
X219010575Y-103414070D01*
X218806291Y-103305515D01*
X218597303Y-103158898D01*
X218412936Y-102999667D01*
X218282511Y-102853269D01*
X218235351Y-102745150D01*
X218300781Y-102700758D01*
X218306855Y-102700666D01*
X218423537Y-102665459D01*
X218440000Y-102632933D01*
X218369824Y-102495950D01*
X218211116Y-102387870D01*
X218094767Y-102362000D01*
X217923244Y-102301204D01*
X217847334Y-102235000D01*
X217725326Y-102139412D01*
X217605908Y-102108157D01*
X217544349Y-102145375D01*
G36*
X208823682Y-102145375D02*
G01*
X208844266Y-102213833D01*
X208912388Y-102365353D01*
X208921033Y-102404333D01*
X208940943Y-102566198D01*
X208944438Y-102594833D01*
X209026821Y-102680479D01*
X209130987Y-102700666D01*
X209296519Y-102776975D01*
X209427321Y-102994280D01*
X209508033Y-103209163D01*
X209548799Y-103360198D01*
X209550000Y-103375280D01*
X209494067Y-103456061D01*
X209356049Y-103431235D01*
X209196834Y-103322544D01*
X209082455Y-103248617D01*
X209042000Y-103272684D01*
X209105831Y-103388437D01*
X209260335Y-103543597D01*
X209450031Y-103692057D01*
X209619438Y-103787710D01*
X209678132Y-103801333D01*
X209768711Y-103725002D01*
X209821741Y-103528494D01*
X209821987Y-103526166D01*
X209778487Y-103201759D01*
X209653709Y-102975833D01*
X209538642Y-102797643D01*
X209527701Y-102716400D01*
X209588025Y-102700666D01*
X209703556Y-102665025D01*
X209719334Y-102632933D01*
X209649157Y-102495950D01*
X209490449Y-102387870D01*
X209374101Y-102362000D01*
X209202578Y-102301204D01*
X209126667Y-102235000D01*
X209004659Y-102139412D01*
X208885241Y-102108157D01*
X208823682Y-102145375D01*
G37*
X208823682Y-102145375D02*
X208844266Y-102213833D01*
X208912388Y-102365353D01*
X208921033Y-102404333D01*
X208940943Y-102566198D01*
X208944438Y-102594833D01*
X209026821Y-102680479D01*
X209130987Y-102700666D01*
X209296519Y-102776975D01*
X209427321Y-102994280D01*
X209508033Y-103209163D01*
X209548799Y-103360198D01*
X209550000Y-103375280D01*
X209494067Y-103456061D01*
X209356049Y-103431235D01*
X209196834Y-103322544D01*
X209082455Y-103248617D01*
X209042000Y-103272684D01*
X209105831Y-103388437D01*
X209260335Y-103543597D01*
X209450031Y-103692057D01*
X209619438Y-103787710D01*
X209678132Y-103801333D01*
X209768711Y-103725002D01*
X209821741Y-103528494D01*
X209821987Y-103526166D01*
X209778487Y-103201759D01*
X209653709Y-102975833D01*
X209538642Y-102797643D01*
X209527701Y-102716400D01*
X209588025Y-102700666D01*
X209703556Y-102665025D01*
X209719334Y-102632933D01*
X209649157Y-102495950D01*
X209490449Y-102387870D01*
X209374101Y-102362000D01*
X209202578Y-102301204D01*
X209126667Y-102235000D01*
X209004659Y-102139412D01*
X208885241Y-102108157D01*
X208823682Y-102145375D01*
G36*
X197877956Y-101573093D02*
G01*
X197901577Y-101736846D01*
X198029807Y-101992304D01*
X198255353Y-102325178D01*
X198570927Y-102721179D01*
X198597255Y-102752128D01*
X198786127Y-102992914D01*
X198919293Y-103200257D01*
X198966667Y-103323628D01*
X198925203Y-103446902D01*
X198828193Y-103453442D01*
X198716706Y-103365573D01*
X198631815Y-103205626D01*
X198615370Y-103132646D01*
X198546543Y-102962557D01*
X198424226Y-102828513D01*
X198298841Y-102776565D01*
X198248693Y-102797752D01*
X198239977Y-102903385D01*
X198284869Y-103069924D01*
X198328581Y-103236086D01*
X198280503Y-103292245D01*
X198262465Y-103293333D01*
X198177464Y-103219250D01*
X198089049Y-103032562D01*
X198058206Y-102933500D01*
X198002553Y-102783727D01*
X197748779Y-102783727D01*
X197743810Y-102785333D01*
X197682789Y-102720695D01*
X197571731Y-102559648D01*
X197534239Y-102500173D01*
X197427023Y-102300651D01*
X197368431Y-102143424D01*
X197363145Y-102059628D01*
X197415850Y-102080399D01*
X197483884Y-102165379D01*
X197585693Y-102336845D01*
X197679241Y-102533939D01*
X197741335Y-102701340D01*
X197748779Y-102783727D01*
X198002553Y-102783727D01*
X197955879Y-102658119D01*
X197800503Y-102353716D01*
X197621357Y-102067272D01*
X197447719Y-101845771D01*
X197313014Y-101737697D01*
X197219822Y-101753684D01*
X197199182Y-101881010D01*
X197238287Y-102084769D01*
X197324336Y-102330053D01*
X197444523Y-102581955D01*
X197586043Y-102805567D01*
X197736094Y-102965982D01*
X197773056Y-102991883D01*
X197852094Y-103116491D01*
X197866000Y-103208666D01*
X197829976Y-103379743D01*
X197719518Y-103408284D01*
X197531048Y-103293118D01*
X197284212Y-103055434D01*
X197019334Y-103055434D01*
X196963244Y-103079990D01*
X196836522Y-103030697D01*
X196701487Y-102938576D01*
X196634571Y-102863911D01*
X196615410Y-102746675D01*
X196629337Y-102723774D01*
X196717277Y-102736441D01*
X196851288Y-102830694D01*
X196971742Y-102955825D01*
X197019334Y-103055434D01*
X197284212Y-103055434D01*
X197260992Y-103033075D01*
X197230944Y-103000773D01*
X196973110Y-102738434D01*
X196784934Y-102592798D01*
X196637067Y-102543194D01*
X196584342Y-102545365D01*
X196420317Y-102613554D01*
X196404167Y-102738754D01*
X196531679Y-102903528D01*
X196701834Y-103031575D01*
X196894671Y-103179711D01*
X197007335Y-103311416D01*
X197019334Y-103349851D01*
X196978732Y-103445250D01*
X196843357Y-103442778D01*
X196592850Y-103341572D01*
X196570629Y-103330841D01*
X196299667Y-103199016D01*
X196576170Y-103457841D01*
X196853642Y-103660651D01*
X197083338Y-103702731D01*
X197269250Y-103584575D01*
X197297703Y-103547287D01*
X197416340Y-103377909D01*
X197569626Y-103547287D01*
X197766677Y-103696125D01*
X197938057Y-103677822D01*
X198049707Y-103555781D01*
X198135191Y-103460155D01*
X198252943Y-103439998D01*
X198442368Y-103499156D01*
X198697916Y-103619016D01*
X198888852Y-103704257D01*
X199000785Y-103702367D01*
X199104249Y-103605664D01*
X199132210Y-103571723D01*
X199247777Y-103445031D01*
X199329811Y-103445366D01*
X199435251Y-103550556D01*
X199628452Y-103696819D01*
X199792241Y-103676443D01*
X199899853Y-103543872D01*
X199966263Y-103438663D01*
X200038443Y-103428315D01*
X200167558Y-103519048D01*
X200247994Y-103586205D01*
X200492963Y-103758875D01*
X200652305Y-103788704D01*
X200732236Y-103675109D01*
X200744667Y-103539807D01*
X200744667Y-103278280D01*
X201005163Y-103497473D01*
X201275730Y-103673964D01*
X201498628Y-103696362D01*
X201695218Y-103565195D01*
X201737184Y-103515623D01*
X201895324Y-103314581D01*
X202129050Y-103515623D01*
X202370432Y-103678630D01*
X202578103Y-103697642D01*
X202801241Y-103576324D01*
X202813681Y-103566644D01*
X203004403Y-103416622D01*
X202805873Y-103102932D01*
X202768359Y-103055434D01*
X202522667Y-103055434D01*
X202466578Y-103079990D01*
X202339856Y-103030697D01*
X202204820Y-102938576D01*
X202137904Y-102863911D01*
X202118743Y-102746675D01*
X202132670Y-102723774D01*
X202220611Y-102736441D01*
X202354621Y-102830694D01*
X202475075Y-102955825D01*
X202522667Y-103055434D01*
X202768359Y-103055434D01*
X202569886Y-102804145D01*
X202317947Y-102608875D01*
X202084233Y-102541947D01*
X202039997Y-102546649D01*
X201906236Y-102622386D01*
X201915024Y-102755282D01*
X202059005Y-102923743D01*
X202205167Y-103031575D01*
X202403703Y-103189551D01*
X202512729Y-103334739D01*
X202515362Y-103435423D01*
X202434628Y-103462666D01*
X202226754Y-103402499D01*
X201960274Y-103244626D01*
X201836557Y-103145704D01*
X201588051Y-103145704D01*
X201584027Y-103256324D01*
X201570364Y-103274986D01*
X201437994Y-103357638D01*
X201328094Y-103286893D01*
X201267357Y-103087465D01*
X201239714Y-102852324D01*
X201449595Y-103009328D01*
X201588051Y-103145704D01*
X201836557Y-103145704D01*
X201683081Y-103022988D01*
X201443069Y-102771526D01*
X201422394Y-102745318D01*
X201252161Y-102537351D01*
X201119685Y-102398143D01*
X201066397Y-102362000D01*
X201013324Y-102435977D01*
X200958920Y-102618594D01*
X200949432Y-102665345D01*
X200936915Y-102932224D01*
X201036238Y-103160564D01*
X201075130Y-103215678D01*
X201182602Y-103388899D01*
X201181478Y-103457586D01*
X201091219Y-103428001D01*
X200931280Y-103306410D01*
X200724591Y-103102833D01*
X200542455Y-102891161D01*
X200476873Y-102769856D01*
X200516985Y-102717751D01*
X200525930Y-102715625D01*
X200643224Y-102659859D01*
X200660000Y-102626725D01*
X200590266Y-102495467D01*
X200433405Y-102389235D01*
X200314767Y-102362000D01*
X200143244Y-102301204D01*
X200067334Y-102235000D01*
X199945326Y-102139412D01*
X199825908Y-102108157D01*
X199764349Y-102145375D01*
X199784933Y-102213833D01*
X199853054Y-102365353D01*
X199861700Y-102404333D01*
X199881609Y-102566198D01*
X199885105Y-102594833D01*
X199967488Y-102680479D01*
X200071654Y-102700666D01*
X200237186Y-102776975D01*
X200367987Y-102994280D01*
X200448835Y-103211123D01*
X200489518Y-103365950D01*
X200490667Y-103381488D01*
X200443410Y-103463437D01*
X200322754Y-103431566D01*
X200160372Y-103304845D01*
X199987937Y-103102246D01*
X199962082Y-103064878D01*
X199770147Y-102830463D01*
X199573325Y-102671570D01*
X199408620Y-102613385D01*
X199337807Y-102639971D01*
X199361439Y-102722483D01*
X199468705Y-102879855D01*
X199513521Y-102935090D01*
X199675142Y-103161360D01*
X199726317Y-103315907D01*
X199660519Y-103377692D01*
X199650925Y-103378000D01*
X199445818Y-103323651D01*
X199267861Y-103145634D01*
X199106217Y-102843869D01*
X198860691Y-102843869D01*
X198852138Y-102870000D01*
X198787487Y-102808166D01*
X198649818Y-102645581D01*
X198468163Y-102416620D01*
X198457006Y-102402179D01*
X198276871Y-102151342D01*
X198172749Y-101973032D01*
X198147428Y-101883917D01*
X198203699Y-101900664D01*
X198344351Y-102039937D01*
X198408873Y-102114573D01*
X198557259Y-102309500D01*
X198698978Y-102524919D01*
X198808599Y-102717488D01*
X198860691Y-102843869D01*
X199106217Y-102843869D01*
X199095936Y-102824676D01*
X198957524Y-102573826D01*
X198759121Y-102289404D01*
X198530899Y-102006380D01*
X198303031Y-101759724D01*
X198105688Y-101584405D01*
X197969043Y-101515395D01*
X197966232Y-101515333D01*
X197877956Y-101573093D01*
G37*
X197877956Y-101573093D02*
X197901577Y-101736846D01*
X198029807Y-101992304D01*
X198255353Y-102325178D01*
X198570927Y-102721179D01*
X198597255Y-102752128D01*
X198786127Y-102992914D01*
X198919293Y-103200257D01*
X198966667Y-103323628D01*
X198925203Y-103446902D01*
X198828193Y-103453442D01*
X198716706Y-103365573D01*
X198631815Y-103205626D01*
X198615370Y-103132646D01*
X198546543Y-102962557D01*
X198424226Y-102828513D01*
X198298841Y-102776565D01*
X198248693Y-102797752D01*
X198239977Y-102903385D01*
X198284869Y-103069924D01*
X198328581Y-103236086D01*
X198280503Y-103292245D01*
X198262465Y-103293333D01*
X198177464Y-103219250D01*
X198089049Y-103032562D01*
X198058206Y-102933500D01*
X198002553Y-102783727D01*
X197748779Y-102783727D01*
X197743810Y-102785333D01*
X197682789Y-102720695D01*
X197571731Y-102559648D01*
X197534239Y-102500173D01*
X197427023Y-102300651D01*
X197368431Y-102143424D01*
X197363145Y-102059628D01*
X197415850Y-102080399D01*
X197483884Y-102165379D01*
X197585693Y-102336845D01*
X197679241Y-102533939D01*
X197741335Y-102701340D01*
X197748779Y-102783727D01*
X198002553Y-102783727D01*
X197955879Y-102658119D01*
X197800503Y-102353716D01*
X197621357Y-102067272D01*
X197447719Y-101845771D01*
X197313014Y-101737697D01*
X197219822Y-101753684D01*
X197199182Y-101881010D01*
X197238287Y-102084769D01*
X197324336Y-102330053D01*
X197444523Y-102581955D01*
X197586043Y-102805567D01*
X197736094Y-102965982D01*
X197773056Y-102991883D01*
X197852094Y-103116491D01*
X197866000Y-103208666D01*
X197829976Y-103379743D01*
X197719518Y-103408284D01*
X197531048Y-103293118D01*
X197284212Y-103055434D01*
X197019334Y-103055434D01*
X196963244Y-103079990D01*
X196836522Y-103030697D01*
X196701487Y-102938576D01*
X196634571Y-102863911D01*
X196615410Y-102746675D01*
X196629337Y-102723774D01*
X196717277Y-102736441D01*
X196851288Y-102830694D01*
X196971742Y-102955825D01*
X197019334Y-103055434D01*
X197284212Y-103055434D01*
X197260992Y-103033075D01*
X197230944Y-103000773D01*
X196973110Y-102738434D01*
X196784934Y-102592798D01*
X196637067Y-102543194D01*
X196584342Y-102545365D01*
X196420317Y-102613554D01*
X196404167Y-102738754D01*
X196531679Y-102903528D01*
X196701834Y-103031575D01*
X196894671Y-103179711D01*
X197007335Y-103311416D01*
X197019334Y-103349851D01*
X196978732Y-103445250D01*
X196843357Y-103442778D01*
X196592850Y-103341572D01*
X196570629Y-103330841D01*
X196299667Y-103199016D01*
X196576170Y-103457841D01*
X196853642Y-103660651D01*
X197083338Y-103702731D01*
X197269250Y-103584575D01*
X197297703Y-103547287D01*
X197416340Y-103377909D01*
X197569626Y-103547287D01*
X197766677Y-103696125D01*
X197938057Y-103677822D01*
X198049707Y-103555781D01*
X198135191Y-103460155D01*
X198252943Y-103439998D01*
X198442368Y-103499156D01*
X198697916Y-103619016D01*
X198888852Y-103704257D01*
X199000785Y-103702367D01*
X199104249Y-103605664D01*
X199132210Y-103571723D01*
X199247777Y-103445031D01*
X199329811Y-103445366D01*
X199435251Y-103550556D01*
X199628452Y-103696819D01*
X199792241Y-103676443D01*
X199899853Y-103543872D01*
X199966263Y-103438663D01*
X200038443Y-103428315D01*
X200167558Y-103519048D01*
X200247994Y-103586205D01*
X200492963Y-103758875D01*
X200652305Y-103788704D01*
X200732236Y-103675109D01*
X200744667Y-103539807D01*
X200744667Y-103278280D01*
X201005163Y-103497473D01*
X201275730Y-103673964D01*
X201498628Y-103696362D01*
X201695218Y-103565195D01*
X201737184Y-103515623D01*
X201895324Y-103314581D01*
X202129050Y-103515623D01*
X202370432Y-103678630D01*
X202578103Y-103697642D01*
X202801241Y-103576324D01*
X202813681Y-103566644D01*
X203004403Y-103416622D01*
X202805873Y-103102932D01*
X202768359Y-103055434D01*
X202522667Y-103055434D01*
X202466578Y-103079990D01*
X202339856Y-103030697D01*
X202204820Y-102938576D01*
X202137904Y-102863911D01*
X202118743Y-102746675D01*
X202132670Y-102723774D01*
X202220611Y-102736441D01*
X202354621Y-102830694D01*
X202475075Y-102955825D01*
X202522667Y-103055434D01*
X202768359Y-103055434D01*
X202569886Y-102804145D01*
X202317947Y-102608875D01*
X202084233Y-102541947D01*
X202039997Y-102546649D01*
X201906236Y-102622386D01*
X201915024Y-102755282D01*
X202059005Y-102923743D01*
X202205167Y-103031575D01*
X202403703Y-103189551D01*
X202512729Y-103334739D01*
X202515362Y-103435423D01*
X202434628Y-103462666D01*
X202226754Y-103402499D01*
X201960274Y-103244626D01*
X201836557Y-103145704D01*
X201588051Y-103145704D01*
X201584027Y-103256324D01*
X201570364Y-103274986D01*
X201437994Y-103357638D01*
X201328094Y-103286893D01*
X201267357Y-103087465D01*
X201239714Y-102852324D01*
X201449595Y-103009328D01*
X201588051Y-103145704D01*
X201836557Y-103145704D01*
X201683081Y-103022988D01*
X201443069Y-102771526D01*
X201422394Y-102745318D01*
X201252161Y-102537351D01*
X201119685Y-102398143D01*
X201066397Y-102362000D01*
X201013324Y-102435977D01*
X200958920Y-102618594D01*
X200949432Y-102665345D01*
X200936915Y-102932224D01*
X201036238Y-103160564D01*
X201075130Y-103215678D01*
X201182602Y-103388899D01*
X201181478Y-103457586D01*
X201091219Y-103428001D01*
X200931280Y-103306410D01*
X200724591Y-103102833D01*
X200542455Y-102891161D01*
X200476873Y-102769856D01*
X200516985Y-102717751D01*
X200525930Y-102715625D01*
X200643224Y-102659859D01*
X200660000Y-102626725D01*
X200590266Y-102495467D01*
X200433405Y-102389235D01*
X200314767Y-102362000D01*
X200143244Y-102301204D01*
X200067334Y-102235000D01*
X199945326Y-102139412D01*
X199825908Y-102108157D01*
X199764349Y-102145375D01*
X199784933Y-102213833D01*
X199853054Y-102365353D01*
X199861700Y-102404333D01*
X199881609Y-102566198D01*
X199885105Y-102594833D01*
X199967488Y-102680479D01*
X200071654Y-102700666D01*
X200237186Y-102776975D01*
X200367987Y-102994280D01*
X200448835Y-103211123D01*
X200489518Y-103365950D01*
X200490667Y-103381488D01*
X200443410Y-103463437D01*
X200322754Y-103431566D01*
X200160372Y-103304845D01*
X199987937Y-103102246D01*
X199962082Y-103064878D01*
X199770147Y-102830463D01*
X199573325Y-102671570D01*
X199408620Y-102613385D01*
X199337807Y-102639971D01*
X199361439Y-102722483D01*
X199468705Y-102879855D01*
X199513521Y-102935090D01*
X199675142Y-103161360D01*
X199726317Y-103315907D01*
X199660519Y-103377692D01*
X199650925Y-103378000D01*
X199445818Y-103323651D01*
X199267861Y-103145634D01*
X199106217Y-102843869D01*
X198860691Y-102843869D01*
X198852138Y-102870000D01*
X198787487Y-102808166D01*
X198649818Y-102645581D01*
X198468163Y-102416620D01*
X198457006Y-102402179D01*
X198276871Y-102151342D01*
X198172749Y-101973032D01*
X198147428Y-101883917D01*
X198203699Y-101900664D01*
X198344351Y-102039937D01*
X198408873Y-102114573D01*
X198557259Y-102309500D01*
X198698978Y-102524919D01*
X198808599Y-102717488D01*
X198860691Y-102843869D01*
X199106217Y-102843869D01*
X199095936Y-102824676D01*
X198957524Y-102573826D01*
X198759121Y-102289404D01*
X198530899Y-102006380D01*
X198303031Y-101759724D01*
X198105688Y-101584405D01*
X197969043Y-101515395D01*
X197966232Y-101515333D01*
X197877956Y-101573093D01*
G36*
X230532970Y-101581506D02*
G01*
X230451691Y-101764412D01*
X230460763Y-102040635D01*
X230557846Y-102386756D01*
X230740599Y-102779358D01*
X230852167Y-102968131D01*
X230975235Y-103177517D01*
X231047422Y-103328245D01*
X231055334Y-103360135D01*
X231100571Y-103477857D01*
X231169410Y-103586310D01*
X231275048Y-103684543D01*
X231346760Y-103639939D01*
X231342501Y-103510313D01*
X231252832Y-103306115D01*
X231201904Y-103223053D01*
X230967188Y-102839296D01*
X230786365Y-102486227D01*
X230668754Y-102189034D01*
X230623674Y-101972901D01*
X230660442Y-101863015D01*
X230695500Y-101854316D01*
X230848466Y-101899150D01*
X231029237Y-102011849D01*
X231207003Y-102161637D01*
X231350955Y-102317734D01*
X231430280Y-102449363D01*
X231414170Y-102525748D01*
X231375813Y-102533907D01*
X231345149Y-102567348D01*
X231419600Y-102625262D01*
X231595648Y-102666142D01*
X231692537Y-102614171D01*
X231765023Y-102522143D01*
X231746578Y-102397251D01*
X231685067Y-102267147D01*
X231532916Y-102062315D01*
X231303129Y-101846420D01*
X231046836Y-101658764D01*
X230815170Y-101538649D01*
X230706943Y-101515333D01*
X230532970Y-101581506D01*
G37*
X230532970Y-101581506D02*
X230451691Y-101764412D01*
X230460763Y-102040635D01*
X230557846Y-102386756D01*
X230740599Y-102779358D01*
X230852167Y-102968131D01*
X230975235Y-103177517D01*
X231047422Y-103328245D01*
X231055334Y-103360135D01*
X231100571Y-103477857D01*
X231169410Y-103586310D01*
X231275048Y-103684543D01*
X231346760Y-103639939D01*
X231342501Y-103510313D01*
X231252832Y-103306115D01*
X231201904Y-103223053D01*
X230967188Y-102839296D01*
X230786365Y-102486227D01*
X230668754Y-102189034D01*
X230623674Y-101972901D01*
X230660442Y-101863015D01*
X230695500Y-101854316D01*
X230848466Y-101899150D01*
X231029237Y-102011849D01*
X231207003Y-102161637D01*
X231350955Y-102317734D01*
X231430280Y-102449363D01*
X231414170Y-102525748D01*
X231375813Y-102533907D01*
X231345149Y-102567348D01*
X231419600Y-102625262D01*
X231595648Y-102666142D01*
X231692537Y-102614171D01*
X231765023Y-102522143D01*
X231746578Y-102397251D01*
X231685067Y-102267147D01*
X231532916Y-102062315D01*
X231303129Y-101846420D01*
X231046836Y-101658764D01*
X230815170Y-101538649D01*
X230706943Y-101515333D01*
X230532970Y-101581506D01*
G36*
X227944162Y-102433469D02*
G01*
X227885984Y-102605025D01*
X227874452Y-102659908D01*
X227859709Y-102925215D01*
X227951788Y-103147805D01*
X227999130Y-103215678D01*
X228110259Y-103392795D01*
X228096933Y-103455111D01*
X227959213Y-103402584D01*
X227835673Y-103328082D01*
X227741973Y-103277262D01*
X227773802Y-103327795D01*
X227902836Y-103455082D01*
X228170992Y-103657156D01*
X228394818Y-103704452D01*
X228592353Y-103599623D01*
X228629212Y-103561833D01*
X228737652Y-103412693D01*
X228769334Y-103327447D01*
X228718321Y-103225209D01*
X228662277Y-103145704D01*
X228512051Y-103145704D01*
X228508027Y-103256324D01*
X228494364Y-103274986D01*
X228361994Y-103357638D01*
X228252094Y-103286893D01*
X228191357Y-103087465D01*
X228163714Y-102852324D01*
X228373595Y-103009328D01*
X228512051Y-103145704D01*
X228662277Y-103145704D01*
X228588965Y-103041705D01*
X228416788Y-102821002D01*
X228237314Y-102607165D01*
X228086067Y-102444262D01*
X228003739Y-102377729D01*
X227944162Y-102433469D01*
G37*
X227944162Y-102433469D02*
X227885984Y-102605025D01*
X227874452Y-102659908D01*
X227859709Y-102925215D01*
X227951788Y-103147805D01*
X227999130Y-103215678D01*
X228110259Y-103392795D01*
X228096933Y-103455111D01*
X227959213Y-103402584D01*
X227835673Y-103328082D01*
X227741973Y-103277262D01*
X227773802Y-103327795D01*
X227902836Y-103455082D01*
X228170992Y-103657156D01*
X228394818Y-103704452D01*
X228592353Y-103599623D01*
X228629212Y-103561833D01*
X228737652Y-103412693D01*
X228769334Y-103327447D01*
X228718321Y-103225209D01*
X228662277Y-103145704D01*
X228512051Y-103145704D01*
X228508027Y-103256324D01*
X228494364Y-103274986D01*
X228361994Y-103357638D01*
X228252094Y-103286893D01*
X228191357Y-103087465D01*
X228163714Y-102852324D01*
X228373595Y-103009328D01*
X228512051Y-103145704D01*
X228662277Y-103145704D01*
X228588965Y-103041705D01*
X228416788Y-102821002D01*
X228237314Y-102607165D01*
X228086067Y-102444262D01*
X228003739Y-102377729D01*
X227944162Y-102433469D01*
G36*
X224551201Y-101878714D02*
G01*
X224582395Y-102102513D01*
X224694521Y-102390840D01*
X224856626Y-102681119D01*
X225037754Y-102910775D01*
X225081454Y-102950616D01*
X225190681Y-103115679D01*
X225203271Y-103301333D01*
X225123332Y-103423630D01*
X224989505Y-103419093D01*
X224838277Y-103285964D01*
X224700295Y-103058027D01*
X224635396Y-102885771D01*
X224594488Y-102783727D01*
X224334112Y-102783727D01*
X224329144Y-102785333D01*
X224268122Y-102720695D01*
X224157065Y-102559648D01*
X224119573Y-102500173D01*
X224012356Y-102300651D01*
X223953764Y-102143424D01*
X223948479Y-102059628D01*
X224001183Y-102080399D01*
X224069217Y-102165379D01*
X224171026Y-102336845D01*
X224264575Y-102533939D01*
X224326668Y-102701340D01*
X224334112Y-102783727D01*
X224594488Y-102783727D01*
X224529638Y-102621962D01*
X224372136Y-102327882D01*
X224193155Y-102050673D01*
X224022960Y-101837481D01*
X223898348Y-101737697D01*
X223805156Y-101753684D01*
X223784515Y-101881010D01*
X223823621Y-102084769D01*
X223909669Y-102330053D01*
X224029856Y-102581955D01*
X224171377Y-102805567D01*
X224321427Y-102965982D01*
X224358389Y-102991883D01*
X224438900Y-103123624D01*
X224437708Y-103302311D01*
X224361332Y-103423630D01*
X224236714Y-103416872D01*
X224121832Y-103343960D01*
X223960469Y-103221307D01*
X223901373Y-103221018D01*
X223952459Y-103324845D01*
X224070334Y-103462666D01*
X224287481Y-103654706D01*
X224451428Y-103703886D01*
X224592465Y-103614666D01*
X224645036Y-103547287D01*
X224763674Y-103377909D01*
X224916959Y-103547287D01*
X225108579Y-103695105D01*
X225277858Y-103677937D01*
X225411574Y-103540809D01*
X225487604Y-103367945D01*
X225473131Y-103149967D01*
X225449228Y-103053976D01*
X225343582Y-102783727D01*
X225096112Y-102783727D01*
X225091144Y-102785333D01*
X225030122Y-102720695D01*
X224919065Y-102559648D01*
X224881573Y-102500173D01*
X224774356Y-102300651D01*
X224715764Y-102143424D01*
X224710479Y-102059628D01*
X224763183Y-102080399D01*
X224831217Y-102165379D01*
X224933026Y-102336845D01*
X225026575Y-102533939D01*
X225088668Y-102701340D01*
X225096112Y-102783727D01*
X225343582Y-102783727D01*
X225221869Y-102472382D01*
X224894253Y-101978933D01*
X224819874Y-101896333D01*
X224578334Y-101642333D01*
X224551201Y-101878714D01*
G37*
X224551201Y-101878714D02*
X224582395Y-102102513D01*
X224694521Y-102390840D01*
X224856626Y-102681119D01*
X225037754Y-102910775D01*
X225081454Y-102950616D01*
X225190681Y-103115679D01*
X225203271Y-103301333D01*
X225123332Y-103423630D01*
X224989505Y-103419093D01*
X224838277Y-103285964D01*
X224700295Y-103058027D01*
X224635396Y-102885771D01*
X224594488Y-102783727D01*
X224334112Y-102783727D01*
X224329144Y-102785333D01*
X224268122Y-102720695D01*
X224157065Y-102559648D01*
X224119573Y-102500173D01*
X224012356Y-102300651D01*
X223953764Y-102143424D01*
X223948479Y-102059628D01*
X224001183Y-102080399D01*
X224069217Y-102165379D01*
X224171026Y-102336845D01*
X224264575Y-102533939D01*
X224326668Y-102701340D01*
X224334112Y-102783727D01*
X224594488Y-102783727D01*
X224529638Y-102621962D01*
X224372136Y-102327882D01*
X224193155Y-102050673D01*
X224022960Y-101837481D01*
X223898348Y-101737697D01*
X223805156Y-101753684D01*
X223784515Y-101881010D01*
X223823621Y-102084769D01*
X223909669Y-102330053D01*
X224029856Y-102581955D01*
X224171377Y-102805567D01*
X224321427Y-102965982D01*
X224358389Y-102991883D01*
X224438900Y-103123624D01*
X224437708Y-103302311D01*
X224361332Y-103423630D01*
X224236714Y-103416872D01*
X224121832Y-103343960D01*
X223960469Y-103221307D01*
X223901373Y-103221018D01*
X223952459Y-103324845D01*
X224070334Y-103462666D01*
X224287481Y-103654706D01*
X224451428Y-103703886D01*
X224592465Y-103614666D01*
X224645036Y-103547287D01*
X224763674Y-103377909D01*
X224916959Y-103547287D01*
X225108579Y-103695105D01*
X225277858Y-103677937D01*
X225411574Y-103540809D01*
X225487604Y-103367945D01*
X225473131Y-103149967D01*
X225449228Y-103053976D01*
X225343582Y-102783727D01*
X225096112Y-102783727D01*
X225091144Y-102785333D01*
X225030122Y-102720695D01*
X224919065Y-102559648D01*
X224881573Y-102500173D01*
X224774356Y-102300651D01*
X224715764Y-102143424D01*
X224710479Y-102059628D01*
X224763183Y-102080399D01*
X224831217Y-102165379D01*
X224933026Y-102336845D01*
X225026575Y-102533939D01*
X225088668Y-102701340D01*
X225096112Y-102783727D01*
X225343582Y-102783727D01*
X225221869Y-102472382D01*
X224894253Y-101978933D01*
X224819874Y-101896333D01*
X224578334Y-101642333D01*
X224551201Y-101878714D01*
G36*
X215070299Y-101564248D02*
G01*
X215079709Y-101693836D01*
X215177235Y-101910289D01*
X215357276Y-102198258D01*
X215614228Y-102542397D01*
X215719252Y-102670832D01*
X215924202Y-102932249D01*
X216077142Y-103158068D01*
X216151031Y-103307484D01*
X216154000Y-103326897D01*
X216112531Y-103448321D01*
X216015513Y-103453415D01*
X215904035Y-103364896D01*
X215819186Y-103205486D01*
X215802703Y-103132646D01*
X215733876Y-102962557D01*
X215611559Y-102828513D01*
X215486174Y-102776565D01*
X215436026Y-102797752D01*
X215427310Y-102903385D01*
X215472203Y-103069924D01*
X215515914Y-103236086D01*
X215467836Y-103292245D01*
X215449799Y-103293333D01*
X215364798Y-103219250D01*
X215276382Y-103032562D01*
X215245539Y-102933500D01*
X215189886Y-102783727D01*
X214936112Y-102783727D01*
X214931144Y-102785333D01*
X214870122Y-102720695D01*
X214759065Y-102559648D01*
X214721573Y-102500173D01*
X214614356Y-102300651D01*
X214555764Y-102143424D01*
X214550479Y-102059628D01*
X214603183Y-102080399D01*
X214671217Y-102165379D01*
X214773026Y-102336845D01*
X214866575Y-102533939D01*
X214928668Y-102701340D01*
X214936112Y-102783727D01*
X215189886Y-102783727D01*
X215143212Y-102658119D01*
X214987836Y-102353716D01*
X214808690Y-102067272D01*
X214635052Y-101845771D01*
X214500348Y-101737697D01*
X214407156Y-101753684D01*
X214386515Y-101881010D01*
X214425621Y-102084769D01*
X214511669Y-102330053D01*
X214631856Y-102581955D01*
X214773377Y-102805567D01*
X214923427Y-102965982D01*
X214960389Y-102991883D01*
X215039427Y-103116491D01*
X215053334Y-103208666D01*
X215017309Y-103379743D01*
X214906851Y-103408284D01*
X214718382Y-103293118D01*
X214471546Y-103055434D01*
X214206667Y-103055434D01*
X214150578Y-103079990D01*
X214023856Y-103030697D01*
X213888820Y-102938576D01*
X213821904Y-102863911D01*
X213802743Y-102746675D01*
X213816670Y-102723774D01*
X213904611Y-102736441D01*
X214038621Y-102830694D01*
X214159075Y-102955825D01*
X214206667Y-103055434D01*
X214471546Y-103055434D01*
X214448325Y-103033075D01*
X214418278Y-103000773D01*
X214160443Y-102738434D01*
X213972267Y-102592798D01*
X213824401Y-102543194D01*
X213771675Y-102545365D01*
X213607650Y-102613554D01*
X213591501Y-102738754D01*
X213719012Y-102903528D01*
X213889167Y-103031575D01*
X214082005Y-103179711D01*
X214194668Y-103311416D01*
X214206667Y-103349851D01*
X214166066Y-103445250D01*
X214030690Y-103442778D01*
X213780184Y-103341572D01*
X213757963Y-103330841D01*
X213487000Y-103199016D01*
X213763503Y-103457841D01*
X214040975Y-103660651D01*
X214270671Y-103702731D01*
X214456584Y-103584575D01*
X214485036Y-103547287D01*
X214603674Y-103377909D01*
X214756959Y-103547287D01*
X214954464Y-103696235D01*
X215126090Y-103677872D01*
X215235202Y-103558725D01*
X215392335Y-103446954D01*
X215625996Y-103478255D01*
X215855339Y-103602828D01*
X216073986Y-103706142D01*
X216242779Y-103661363D01*
X216356002Y-103535439D01*
X216424704Y-103410581D01*
X216432336Y-103277165D01*
X216375822Y-103076270D01*
X216324818Y-102938074D01*
X216278347Y-102843869D01*
X216048025Y-102843869D01*
X216039471Y-102870000D01*
X215974821Y-102808166D01*
X215837151Y-102645581D01*
X215655497Y-102416620D01*
X215644339Y-102402179D01*
X215464204Y-102151342D01*
X215360082Y-101973032D01*
X215334762Y-101883917D01*
X215391033Y-101900664D01*
X215531684Y-102039937D01*
X215596206Y-102114573D01*
X215744592Y-102309500D01*
X215886311Y-102524919D01*
X215995933Y-102717488D01*
X216048025Y-102843869D01*
X216278347Y-102843869D01*
X216145985Y-102575550D01*
X215893678Y-102198184D01*
X215611325Y-101863689D01*
X215342360Y-101629776D01*
X215338238Y-101627059D01*
X215154608Y-101536873D01*
X215070299Y-101564248D01*
G37*
X215070299Y-101564248D02*
X215079709Y-101693836D01*
X215177235Y-101910289D01*
X215357276Y-102198258D01*
X215614228Y-102542397D01*
X215719252Y-102670832D01*
X215924202Y-102932249D01*
X216077142Y-103158068D01*
X216151031Y-103307484D01*
X216154000Y-103326897D01*
X216112531Y-103448321D01*
X216015513Y-103453415D01*
X215904035Y-103364896D01*
X215819186Y-103205486D01*
X215802703Y-103132646D01*
X215733876Y-102962557D01*
X215611559Y-102828513D01*
X215486174Y-102776565D01*
X215436026Y-102797752D01*
X215427310Y-102903385D01*
X215472203Y-103069924D01*
X215515914Y-103236086D01*
X215467836Y-103292245D01*
X215449799Y-103293333D01*
X215364798Y-103219250D01*
X215276382Y-103032562D01*
X215245539Y-102933500D01*
X215189886Y-102783727D01*
X214936112Y-102783727D01*
X214931144Y-102785333D01*
X214870122Y-102720695D01*
X214759065Y-102559648D01*
X214721573Y-102500173D01*
X214614356Y-102300651D01*
X214555764Y-102143424D01*
X214550479Y-102059628D01*
X214603183Y-102080399D01*
X214671217Y-102165379D01*
X214773026Y-102336845D01*
X214866575Y-102533939D01*
X214928668Y-102701340D01*
X214936112Y-102783727D01*
X215189886Y-102783727D01*
X215143212Y-102658119D01*
X214987836Y-102353716D01*
X214808690Y-102067272D01*
X214635052Y-101845771D01*
X214500348Y-101737697D01*
X214407156Y-101753684D01*
X214386515Y-101881010D01*
X214425621Y-102084769D01*
X214511669Y-102330053D01*
X214631856Y-102581955D01*
X214773377Y-102805567D01*
X214923427Y-102965982D01*
X214960389Y-102991883D01*
X215039427Y-103116491D01*
X215053334Y-103208666D01*
X215017309Y-103379743D01*
X214906851Y-103408284D01*
X214718382Y-103293118D01*
X214471546Y-103055434D01*
X214206667Y-103055434D01*
X214150578Y-103079990D01*
X214023856Y-103030697D01*
X213888820Y-102938576D01*
X213821904Y-102863911D01*
X213802743Y-102746675D01*
X213816670Y-102723774D01*
X213904611Y-102736441D01*
X214038621Y-102830694D01*
X214159075Y-102955825D01*
X214206667Y-103055434D01*
X214471546Y-103055434D01*
X214448325Y-103033075D01*
X214418278Y-103000773D01*
X214160443Y-102738434D01*
X213972267Y-102592798D01*
X213824401Y-102543194D01*
X213771675Y-102545365D01*
X213607650Y-102613554D01*
X213591501Y-102738754D01*
X213719012Y-102903528D01*
X213889167Y-103031575D01*
X214082005Y-103179711D01*
X214194668Y-103311416D01*
X214206667Y-103349851D01*
X214166066Y-103445250D01*
X214030690Y-103442778D01*
X213780184Y-103341572D01*
X213757963Y-103330841D01*
X213487000Y-103199016D01*
X213763503Y-103457841D01*
X214040975Y-103660651D01*
X214270671Y-103702731D01*
X214456584Y-103584575D01*
X214485036Y-103547287D01*
X214603674Y-103377909D01*
X214756959Y-103547287D01*
X214954464Y-103696235D01*
X215126090Y-103677872D01*
X215235202Y-103558725D01*
X215392335Y-103446954D01*
X215625996Y-103478255D01*
X215855339Y-103602828D01*
X216073986Y-103706142D01*
X216242779Y-103661363D01*
X216356002Y-103535439D01*
X216424704Y-103410581D01*
X216432336Y-103277165D01*
X216375822Y-103076270D01*
X216324818Y-102938074D01*
X216278347Y-102843869D01*
X216048025Y-102843869D01*
X216039471Y-102870000D01*
X215974821Y-102808166D01*
X215837151Y-102645581D01*
X215655497Y-102416620D01*
X215644339Y-102402179D01*
X215464204Y-102151342D01*
X215360082Y-101973032D01*
X215334762Y-101883917D01*
X215391033Y-101900664D01*
X215531684Y-102039937D01*
X215596206Y-102114573D01*
X215744592Y-102309500D01*
X215886311Y-102524919D01*
X215995933Y-102717488D01*
X216048025Y-102843869D01*
X216278347Y-102843869D01*
X216145985Y-102575550D01*
X215893678Y-102198184D01*
X215611325Y-101863689D01*
X215342360Y-101629776D01*
X215338238Y-101627059D01*
X215154608Y-101536873D01*
X215070299Y-101564248D01*
G36*
X213041914Y-103253047D02*
G01*
X213035166Y-103418596D01*
X213035986Y-103425743D01*
X213092424Y-103610303D01*
X213176015Y-103698197D01*
X213254754Y-103672286D01*
X213261501Y-103506737D01*
X213260681Y-103499589D01*
X213204244Y-103315030D01*
X213120653Y-103227135D01*
X213041914Y-103253047D01*
G37*
X213041914Y-103253047D02*
X213035166Y-103418596D01*
X213035986Y-103425743D01*
X213092424Y-103610303D01*
X213176015Y-103698197D01*
X213254754Y-103672286D01*
X213261501Y-103506737D01*
X213260681Y-103499589D01*
X213204244Y-103315030D01*
X213120653Y-103227135D01*
X213041914Y-103253047D01*
G36*
X210043637Y-101581506D02*
G01*
X209962357Y-101764412D01*
X209971429Y-102040635D01*
X210068512Y-102386756D01*
X210251265Y-102779358D01*
X210362834Y-102968131D01*
X210485901Y-103177517D01*
X210558089Y-103328245D01*
X210566000Y-103360135D01*
X210611238Y-103477857D01*
X210680077Y-103586310D01*
X210785714Y-103684543D01*
X210857427Y-103639939D01*
X210853168Y-103510313D01*
X210763499Y-103306115D01*
X210712571Y-103223053D01*
X210477854Y-102839296D01*
X210297032Y-102486227D01*
X210179421Y-102189034D01*
X210134341Y-101972901D01*
X210171109Y-101863015D01*
X210206167Y-101854316D01*
X210359133Y-101899150D01*
X210539904Y-102011849D01*
X210717670Y-102161637D01*
X210861621Y-102317734D01*
X210940947Y-102449363D01*
X210924836Y-102525748D01*
X210886479Y-102533907D01*
X210855816Y-102567348D01*
X210930267Y-102625262D01*
X211106314Y-102666142D01*
X211203204Y-102614171D01*
X211275690Y-102522143D01*
X211257244Y-102397251D01*
X211195733Y-102267147D01*
X211043583Y-102062315D01*
X210813795Y-101846420D01*
X210557503Y-101658764D01*
X210325837Y-101538649D01*
X210217609Y-101515333D01*
X210043637Y-101581506D01*
G37*
X210043637Y-101581506D02*
X209962357Y-101764412D01*
X209971429Y-102040635D01*
X210068512Y-102386756D01*
X210251265Y-102779358D01*
X210362834Y-102968131D01*
X210485901Y-103177517D01*
X210558089Y-103328245D01*
X210566000Y-103360135D01*
X210611238Y-103477857D01*
X210680077Y-103586310D01*
X210785714Y-103684543D01*
X210857427Y-103639939D01*
X210853168Y-103510313D01*
X210763499Y-103306115D01*
X210712571Y-103223053D01*
X210477854Y-102839296D01*
X210297032Y-102486227D01*
X210179421Y-102189034D01*
X210134341Y-101972901D01*
X210171109Y-101863015D01*
X210206167Y-101854316D01*
X210359133Y-101899150D01*
X210539904Y-102011849D01*
X210717670Y-102161637D01*
X210861621Y-102317734D01*
X210940947Y-102449363D01*
X210924836Y-102525748D01*
X210886479Y-102533907D01*
X210855816Y-102567348D01*
X210930267Y-102625262D01*
X211106314Y-102666142D01*
X211203204Y-102614171D01*
X211275690Y-102522143D01*
X211257244Y-102397251D01*
X211195733Y-102267147D01*
X211043583Y-102062315D01*
X210813795Y-101846420D01*
X210557503Y-101658764D01*
X210325837Y-101538649D01*
X210217609Y-101515333D01*
X210043637Y-101581506D01*
G36*
X207454829Y-102433469D02*
G01*
X207396651Y-102605025D01*
X207385119Y-102659908D01*
X207370376Y-102925215D01*
X207462455Y-103147805D01*
X207509797Y-103215678D01*
X207620926Y-103392795D01*
X207607600Y-103455111D01*
X207469880Y-103402584D01*
X207346339Y-103328082D01*
X207252640Y-103277262D01*
X207284468Y-103327795D01*
X207413503Y-103455082D01*
X207681659Y-103657156D01*
X207905484Y-103704452D01*
X208103020Y-103599623D01*
X208139878Y-103561833D01*
X208248319Y-103412693D01*
X208280000Y-103327447D01*
X208228988Y-103225209D01*
X208172943Y-103145704D01*
X208022717Y-103145704D01*
X208018694Y-103256324D01*
X208005031Y-103274986D01*
X207872660Y-103357638D01*
X207762761Y-103286893D01*
X207702024Y-103087465D01*
X207674381Y-102852324D01*
X207884262Y-103009328D01*
X208022717Y-103145704D01*
X208172943Y-103145704D01*
X208099631Y-103041705D01*
X207927455Y-102821002D01*
X207747981Y-102607165D01*
X207596733Y-102444262D01*
X207514406Y-102377729D01*
X207454829Y-102433469D01*
G37*
X207454829Y-102433469D02*
X207396651Y-102605025D01*
X207385119Y-102659908D01*
X207370376Y-102925215D01*
X207462455Y-103147805D01*
X207509797Y-103215678D01*
X207620926Y-103392795D01*
X207607600Y-103455111D01*
X207469880Y-103402584D01*
X207346339Y-103328082D01*
X207252640Y-103277262D01*
X207284468Y-103327795D01*
X207413503Y-103455082D01*
X207681659Y-103657156D01*
X207905484Y-103704452D01*
X208103020Y-103599623D01*
X208139878Y-103561833D01*
X208248319Y-103412693D01*
X208280000Y-103327447D01*
X208228988Y-103225209D01*
X208172943Y-103145704D01*
X208022717Y-103145704D01*
X208018694Y-103256324D01*
X208005031Y-103274986D01*
X207872660Y-103357638D01*
X207762761Y-103286893D01*
X207702024Y-103087465D01*
X207674381Y-102852324D01*
X207884262Y-103009328D01*
X208022717Y-103145704D01*
X208172943Y-103145704D01*
X208099631Y-103041705D01*
X207927455Y-102821002D01*
X207747981Y-102607165D01*
X207596733Y-102444262D01*
X207514406Y-102377729D01*
X207454829Y-102433469D01*
G36*
X195854580Y-103253047D02*
G01*
X195847833Y-103418596D01*
X195848653Y-103425743D01*
X195905090Y-103610303D01*
X195988681Y-103698197D01*
X196067421Y-103672286D01*
X196074168Y-103506737D01*
X196073348Y-103499589D01*
X196016911Y-103315030D01*
X195933320Y-103227135D01*
X195854580Y-103253047D01*
G37*
X195854580Y-103253047D02*
X195847833Y-103418596D01*
X195848653Y-103425743D01*
X195905090Y-103610303D01*
X195988681Y-103698197D01*
X196067421Y-103672286D01*
X196074168Y-103506737D01*
X196073348Y-103499589D01*
X196016911Y-103315030D01*
X195933320Y-103227135D01*
X195854580Y-103253047D01*
G36*
X212202123Y-101634993D02*
G01*
X212161636Y-101663831D01*
X212163812Y-101779498D01*
X212273168Y-102017524D01*
X212486758Y-102371639D01*
X212513787Y-102413271D01*
X212733123Y-102748992D01*
X212877246Y-102963758D01*
X212964449Y-103077790D01*
X213013024Y-103111309D01*
X213041263Y-103084535D01*
X213065399Y-103023016D01*
X213045150Y-102903094D01*
X212956973Y-102683981D01*
X212823955Y-102409284D01*
X212669183Y-102122605D01*
X212515743Y-101867551D01*
X212386721Y-101687725D01*
X212329728Y-101633512D01*
X212202123Y-101634993D01*
G37*
X212202123Y-101634993D02*
X212161636Y-101663831D01*
X212163812Y-101779498D01*
X212273168Y-102017524D01*
X212486758Y-102371639D01*
X212513787Y-102413271D01*
X212733123Y-102748992D01*
X212877246Y-102963758D01*
X212964449Y-103077790D01*
X213013024Y-103111309D01*
X213041263Y-103084535D01*
X213065399Y-103023016D01*
X213045150Y-102903094D01*
X212956973Y-102683981D01*
X212823955Y-102409284D01*
X212669183Y-102122605D01*
X212515743Y-101867551D01*
X212386721Y-101687725D01*
X212329728Y-101633512D01*
X212202123Y-101634993D01*
G36*
X195014790Y-101634993D02*
G01*
X194974303Y-101663831D01*
X194976478Y-101779498D01*
X195085834Y-102017524D01*
X195299425Y-102371639D01*
X195326453Y-102413271D01*
X195545790Y-102748992D01*
X195689913Y-102963758D01*
X195777116Y-103077790D01*
X195825690Y-103111309D01*
X195853930Y-103084535D01*
X195878066Y-103023016D01*
X195857816Y-102903094D01*
X195769640Y-102683981D01*
X195636622Y-102409284D01*
X195481850Y-102122605D01*
X195328409Y-101867551D01*
X195199387Y-101687725D01*
X195142395Y-101633512D01*
X195014790Y-101634993D01*
G37*
X195014790Y-101634993D02*
X194974303Y-101663831D01*
X194976478Y-101779498D01*
X195085834Y-102017524D01*
X195299425Y-102371639D01*
X195326453Y-102413271D01*
X195545790Y-102748992D01*
X195689913Y-102963758D01*
X195777116Y-103077790D01*
X195825690Y-103111309D01*
X195853930Y-103084535D01*
X195878066Y-103023016D01*
X195857816Y-102903094D01*
X195769640Y-102683981D01*
X195636622Y-102409284D01*
X195481850Y-102122605D01*
X195328409Y-101867551D01*
X195199387Y-101687725D01*
X195142395Y-101633512D01*
X195014790Y-101634993D01*
G36*
X228901135Y-101729986D02*
G01*
X228862127Y-101886893D01*
X228854000Y-102108000D01*
X228872309Y-102373388D01*
X228919254Y-102512035D01*
X228982862Y-102510047D01*
X229051161Y-102353531D01*
X229054636Y-102340833D01*
X229105544Y-102046255D01*
X229092868Y-101817639D01*
X229021110Y-101695095D01*
X228981000Y-101684666D01*
X228901135Y-101729986D01*
G37*
X228901135Y-101729986D02*
X228862127Y-101886893D01*
X228854000Y-102108000D01*
X228872309Y-102373388D01*
X228919254Y-102512035D01*
X228982862Y-102510047D01*
X229051161Y-102353531D01*
X229054636Y-102340833D01*
X229105544Y-102046255D01*
X229092868Y-101817639D01*
X229021110Y-101695095D01*
X228981000Y-101684666D01*
X228901135Y-101729986D01*
G36*
X208411802Y-101729986D02*
G01*
X208372794Y-101886893D01*
X208364667Y-102108000D01*
X208382976Y-102373388D01*
X208429920Y-102512035D01*
X208493528Y-102510047D01*
X208561828Y-102353531D01*
X208565303Y-102340833D01*
X208616211Y-102046255D01*
X208603535Y-101817639D01*
X208531777Y-101695095D01*
X208491667Y-101684666D01*
X208411802Y-101729986D01*
G37*
X208411802Y-101729986D02*
X208372794Y-101886893D01*
X208364667Y-102108000D01*
X208382976Y-102373388D01*
X208429920Y-102512035D01*
X208493528Y-102510047D01*
X208561828Y-102353531D01*
X208565303Y-102340833D01*
X208616211Y-102046255D01*
X208603535Y-101817639D01*
X208531777Y-101695095D01*
X208491667Y-101684666D01*
X208411802Y-101729986D01*
G36*
X204002458Y-102124246D02*
G01*
X203998689Y-102127755D01*
X203989798Y-102230301D01*
X204011399Y-102307548D01*
X204108940Y-102422766D01*
X204227971Y-102436096D01*
X204298517Y-102345249D01*
X204300667Y-102317009D01*
X204241544Y-102195224D01*
X204116153Y-102114682D01*
X204002458Y-102124246D01*
G37*
X204002458Y-102124246D02*
X203998689Y-102127755D01*
X203989798Y-102230301D01*
X204011399Y-102307548D01*
X204108940Y-102422766D01*
X204227971Y-102436096D01*
X204298517Y-102345249D01*
X204300667Y-102317009D01*
X204241544Y-102195224D01*
X204116153Y-102114682D01*
X204002458Y-102124246D01*
G36*
X199091792Y-102124246D02*
G01*
X199088023Y-102127755D01*
X199079131Y-102230301D01*
X199100733Y-102307548D01*
X199198273Y-102422766D01*
X199317305Y-102436096D01*
X199387851Y-102345249D01*
X199390000Y-102317009D01*
X199330878Y-102195224D01*
X199205486Y-102114682D01*
X199091792Y-102124246D01*
G37*
X199091792Y-102124246D02*
X199088023Y-102127755D01*
X199079131Y-102230301D01*
X199100733Y-102307548D01*
X199198273Y-102422766D01*
X199317305Y-102436096D01*
X199387851Y-102345249D01*
X199390000Y-102317009D01*
X199330878Y-102195224D01*
X199205486Y-102114682D01*
X199091792Y-102124246D01*
D11*
X43441857Y-83510380D02*
X43918047Y-83510380D01*
X43918047Y-82510380D01*
X43108523Y-82986571D02*
X42775190Y-82986571D01*
X42632333Y-83510380D02*
X43108523Y-83510380D01*
X43108523Y-82510380D01*
X42632333Y-82510380D01*
X42203761Y-83510380D02*
X42203761Y-82510380D01*
X41965666Y-82510380D01*
X41822809Y-82558000D01*
X41727571Y-82653238D01*
X41679952Y-82748476D01*
X41632333Y-82938952D01*
X41632333Y-83081809D01*
X41679952Y-83272285D01*
X41727571Y-83367523D01*
X41822809Y-83462761D01*
X41965666Y-83510380D01*
X42203761Y-83510380D01*
M02*
